<svg width="189" height="50" viewBox="0 0 189 50" fill="none" xmlns="http://www.w3.org/2000/svg">
<rect x="0.544922" y="14.064" width="186.047" height="36.0099" rx="4.83715" transform="rotate(-4.23313 0.544922 14.064)" fill="#2652B9"/>
<path d="M37.0133 40.0553L39.5272 39.8692L40.9681 34.5685L49.7527 33.9182L51.9583 38.9491L54.4722 38.7631L46.3198 21.312L42.5076 21.5942L37.0133 40.0553ZM41.3386 32.8189L44.4812 22.3647L49.1287 32.2423L41.3386 32.8189Z" fill="#F1F0EF"/>
<path d="M58.278 34.6205L58.2361 33.6792C59.2263 36.5502 61.7318 38.5035 64.5496 38.2949C68.0027 38.0393 70.5279 34.6304 70.2335 30.6524C69.9411 26.7021 66.9415 23.7021 63.4884 23.9577C60.8088 24.156 58.6867 26.2574 58.003 29.0301L57.9632 28.1164L57.1175 20.0684C57.1053 19.9026 56.9866 19.8003 56.8485 19.8105L55.2677 19.8442C55.102 19.8565 54.972 19.9772 54.9843 20.1429L56.3522 38.6239L58.1202 38.493L58.278 34.6205ZM58.493 31.5214C58.2701 28.5103 60.1324 25.9004 62.7843 25.7041C65.3258 25.516 67.6073 27.8192 67.8302 30.8303C68.0551 33.869 66.1376 36.483 63.5961 36.6712C60.9994 36.8634 58.7179 34.5601 58.493 31.5214Z" fill="#F1F0EF"/>
<path d="M79.7369 37.1708C83.7977 36.8702 87.0617 33.6844 86.7469 29.4302C86.434 25.2036 82.7366 22.533 78.6757 22.8336C74.6149 23.1341 71.3509 26.32 71.6637 30.5466C71.9786 34.8008 75.6761 37.4714 79.7369 37.1708ZM79.6204 35.5962C76.8026 35.8048 74.3165 33.7389 74.0671 30.3687C73.8176 26.9985 75.9725 24.5891 78.7902 24.3805C81.6079 24.172 84.094 26.2378 84.3435 29.6081C84.593 32.9783 82.4381 35.3876 79.6204 35.5962Z" fill="#F1F0EF"/>
<path d="M95.032 36.0387C100.17 35.6584 99.2406 27.2277 99.3756 29.0509L99.7129 33.609L99.9339 35.0926C99.9461 35.2583 100.122 35.3842 100.286 35.3443L102.093 34.9883C102.229 34.9505 102.329 34.8042 102.319 34.6661L102.118 33.4588L101.227 21.4144L98.8235 21.5923C99.3817 29.1338 98.7194 34.0714 95.0177 34.3454C92.4763 34.5335 91.4317 32.8054 91.2498 30.3468L90.6466 22.1975L88.2432 22.3754L88.8546 30.6352C89.102 33.9778 90.8606 36.3475 95.032 36.0387Z" fill="#F1F0EF"/>
<path d="M111.156 34.8453C113.669 34.6592 115.205 33.2678 114.988 30.3396L114.841 28.3506L112.466 28.5265L112.607 30.4326C112.78 32.7807 112.089 33.193 111.067 33.2686C109.934 33.3525 109.053 33.0844 108.877 30.7086L108.256 22.3107L112.841 21.9713L112.737 20.5624L108.151 20.9018L107.861 16.9791C107.843 16.7305 107.609 16.5811 107.369 16.71L105.611 17.729L105.724 19.2483C105.803 20.3257 105.196 21.1206 104.394 21.1799L103.041 21.2801L103.145 22.689L105.852 22.4886L106.48 30.9694C106.697 33.8976 108.614 35.0334 111.156 34.8453Z" fill="#F1F0EF"/>
<path d="M131.054 33.3725C135.474 33.0453 138.536 29.7633 138.234 25.6748L137.412 14.5697L135.008 14.7476L135.822 25.7422C136.057 28.9191 133.958 31.3243 130.919 31.5493C127.88 31.7742 125.449 29.7042 125.214 26.5274L124.4 15.5327L121.997 15.7106L122.823 26.871C123.126 30.9595 126.772 33.6894 131.054 33.3725Z" fill="#F1F0EF"/>
<path d="M147.412 32.1617C151.777 31.8386 153.298 29.5039 153.133 27.2663C152.932 24.5591 149.791 24.1527 146.899 23.728C144.849 23.4352 142.963 23.4638 142.84 21.8063C142.746 20.5356 143.794 19.6803 145.755 19.5351C147.827 19.3818 148.605 20.1297 149.668 21.3565C149.759 21.4609 149.899 21.4783 150.005 21.4149L151.42 20.6435C151.58 20.5483 151.646 20.3212 151.496 20.1657C150.039 18.4958 148.503 17.6374 145.824 17.8357C142.343 18.0933 140.264 20.0249 140.409 21.9862C140.628 24.9421 143.993 24.9985 146.376 25.2944C148.478 25.5554 150.549 25.7632 150.674 27.4483C150.809 29.2715 149.61 30.3325 147.234 30.5083C144.858 30.6842 143.932 29.8083 142.75 28.0904C142.657 27.9584 142.516 27.941 142.382 28.0065L140.92 28.8924C140.761 28.9876 140.718 29.1574 140.841 29.315C142.434 31.3358 144.346 32.3887 147.412 32.1617Z" fill="#F1F0EF"/>
</svg>
