<svg width="150" height="36" viewBox="0 0 150 36" fill="none" xmlns="http://www.w3.org/2000/svg">
<path d="M0.819489 5.6124C0.819489 3.06262 2.8865 0.995605 5.43628 0.995605H144.453C147.003 0.995605 149.07 3.06261 149.07 5.6124V30.7482C149.07 33.298 147.003 35.365 144.453 35.365H5.43627C2.88649 35.365 0.819489 33.298 0.819489 30.7483V5.6124Z" fill="#FEF0E5"/>
<path d="M23.7846 26.5618H26.1905L27.9355 21.6178H36.3429L38.0878 26.5618H40.4937L33.9634 9.37686H30.3149L23.7846 26.5618ZM28.4114 19.9787L32.1392 10.2493L35.867 19.9787H28.4114Z" fill="#FE7505"/>
<path d="M42.293 13.845V26.5618H44.5931C44.6195 23.3628 44.5667 14.7703 48.7968 14.7703C51.2556 14.7703 52.4189 16.9382 52.4189 19.1062V26.5618H54.719V22.8076C54.719 19.1326 55.803 14.7703 58.817 14.7703C61.2757 14.7703 62.439 16.9382 62.439 19.1062V26.5618H64.7392V18.6832C64.7392 15.5899 62.4919 13.1047 59.7423 13.1047C56.4904 13.1047 55.1156 15.6428 54.719 18.6303C54.6926 15.5634 52.4453 13.1047 49.7222 13.1047C45.73 13.1047 44.5667 16.9382 44.5667 20.7189L44.3023 13.6599C44.3023 13.5013 44.1437 13.3691 43.985 13.3955L42.5309 13.5806C42.3987 13.607 42.293 13.7128 42.293 13.845Z" fill="#FE7505"/>
<path d="M71.0158 26.8262C75.2988 26.8262 76.7001 22.1995 76.7001 20.7454L76.9116 26.5618H79.106L78.9473 16.7003C78.9209 14.9554 77.2024 13.0782 73.3688 13.0782C69.9318 13.0782 68.1605 14.7174 67.3673 16.1451C67.288 16.2773 67.3673 16.4624 67.526 16.5152L69.0594 17.0704C69.1916 17.1233 69.3502 17.0704 69.4031 16.9382C69.9054 15.6692 70.9629 14.5588 73.4217 14.5588C75.2195 14.5588 76.3564 15.0876 76.6472 16.3302C76.7794 16.9118 76.3299 17.1498 76.0127 17.2291C72.9723 18.0751 66.6535 19.5556 66.6535 23.3892C66.6535 25.4514 68.6628 26.8262 71.0158 26.8262ZM71.1744 25.2399C70.1169 25.2399 68.9536 24.6847 68.9536 23.3363C68.9536 19.82 75.9069 18.8154 76.7001 18.2866C76.7001 22.5167 73.3424 25.2399 71.1744 25.2399Z" fill="#FE7505"/>
<path d="M81.0221 26.5618H92.2849L92.2056 24.9491H83.7453L92.4964 14.8496V13.3426H81.5509L81.498 14.9289H89.8261L81.0221 25.002V26.5618Z" fill="#FE7505"/>
<path d="M94.7674 13.845V26.5618H97.094V13.6599C97.094 13.5013 96.9354 13.3426 96.7767 13.3691L95.0054 13.5806C94.8732 13.607 94.7674 13.7128 94.7674 13.845ZM96.1422 11.4655C97.0147 11.1747 97.4113 10.7517 97.2791 9.9585C97.1733 9.16535 96.6181 8.84809 95.7456 9.13891C94.8467 9.42974 94.4237 9.79987 94.5295 10.5666C94.6352 11.3597 95.2698 11.7563 96.1422 11.4655Z" fill="#FE7505"/>
<path d="M99.3029 13.845V26.5618H101.603C101.629 23.3628 101.577 14.7703 105.807 14.7703C108.265 14.7703 109.429 16.9382 109.429 19.1062V26.5618H111.729V18.6832C111.729 15.5899 109.482 13.1047 106.732 13.1047C102.74 13.1047 101.577 16.9382 101.577 20.7189L101.312 13.6599C101.312 13.5013 101.154 13.3691 100.995 13.3955L99.5408 13.5806C99.4086 13.607 99.3029 13.7128 99.3029 13.845Z" fill="#FE7505"/>
<path d="M120.916 31.8759C124.829 31.8759 127.209 29.6551 127.209 26.0859V13.845C127.209 13.7128 127.129 13.607 126.997 13.5806L125.464 13.3691C125.305 13.3426 125.173 13.5013 125.173 13.6599L125.041 17.2026C124.115 14.7967 122.053 13.1047 119.594 13.1047C116.29 13.1047 113.646 16.1715 113.646 19.9522C113.646 23.7594 116.29 26.8262 119.594 26.8262C121.921 26.8262 123.93 25.2928 124.908 23.0455V26.1124C124.908 28.6505 123.322 30.2896 120.943 30.2896C118.616 30.2896 116.739 28.4654 115.391 27.1963C115.285 27.117 115.126 27.117 115.02 27.2228L114.016 28.201C113.91 28.3068 113.91 28.4918 114.042 28.5976C115.814 30.1574 117.77 31.8759 120.916 31.8759ZM115.946 19.9522C115.946 17.0704 117.955 14.7174 120.387 14.7174C122.926 14.7174 124.882 17.0704 124.882 19.9522C124.882 22.8604 122.873 25.2135 120.387 25.2135C117.955 25.2135 115.946 22.8604 115.946 19.9522Z" fill="#FE7505"/>
</svg>
