<svg width="20" height="21" viewBox="0 0 20 21" fill="none" xmlns="http://www.w3.org/2000/svg">
<path d="M1.10141 12.6L4.74307 13.5684L13.7499 6.69146L8.88439 14.5226L17.98 17.085C18.1151 17.1219 18.2547 17.1277 18.3881 17.1072C18.567 17.0796 18.7364 17.004 18.8798 16.8838C19.1289 16.6745 19.2611 16.3567 19.2334 16.0321L17.9403 1.05452C17.9091 0.70114 17.6945 0.391182 17.3745 0.238074C17.0556 0.0858026 16.6804 0.113189 16.385 0.31042L0.799577 10.803C0.473272 11.0232 0.306482 11.4121 0.371048 11.7988C0.436601 12.1853 0.72157 12.4986 1.10141 12.6ZM7.82026 20.757L12.1884 17.7415L7.12912 16.2659L7.82026 20.757Z" fill="#28CE7E"/>
</svg>
