<svg width="239" height="37" viewBox="0 0 239 37" fill="none" xmlns="http://www.w3.org/2000/svg">
<rect width="238.452" height="36.1055" rx="4.84999" fill="#2652B9"/>
<path d="M12.8628 27H15.2791V18.5567H26.1665V27H28.5828V9.08585L26.1665 8.94698V16.9736H15.2791V9.08585L12.8628 8.94698V27Z" fill="#FEF0E5"/>
<path d="M35.4421 27.2777C39.9414 27.2777 41.4134 22.4173 41.4134 20.8897L41.6356 27H43.9409L43.7742 16.6403C43.7464 14.8073 41.9411 12.8353 37.9139 12.8353C34.3033 12.8353 32.4425 14.5573 31.6093 16.0571C31.5259 16.1959 31.6093 16.3904 31.7759 16.4459L33.3868 17.0292C33.5257 17.0847 33.6923 17.0292 33.7479 16.8903C34.2756 15.5572 35.3865 14.3907 37.9695 14.3907C39.8581 14.3907 41.0524 14.9461 41.3579 16.2515C41.4968 16.8625 41.0246 17.1125 40.6913 17.1958C37.4973 18.0846 30.8594 19.6399 30.8594 23.6671C30.8594 25.8335 32.9702 27.2777 35.4421 27.2777ZM35.6087 25.6113C34.4977 25.6113 33.2757 25.028 33.2757 23.6116C33.2757 19.9176 40.5802 18.8622 41.4134 18.3068C41.4134 22.7506 37.8862 25.6113 35.6087 25.6113Z" fill="#FEF0E5"/>
<path d="M49.3689 27H53.0628L57.8399 13.1131H55.3681L51.202 25.6113L46.9248 13.1131H44.4807L49.3689 27Z" fill="#FEF0E5"/>
<path d="M65.5281 27.2777C69.5831 27.2777 71.5272 25.1114 72.3049 23.1394C72.3604 23.0283 72.1383 22.9172 71.9161 22.9172H69.9997C69.8886 22.9172 69.7775 22.9728 69.7497 23.0839C69.3053 24.2504 68.1944 25.6113 65.5281 25.6113C62.7785 25.6113 60.8621 23.3616 60.7232 20.3898H72.6104C72.8326 16.6959 70.3607 12.8353 65.5281 12.8353C61.0565 12.8353 58.3902 16.0571 58.3902 19.9732C58.3902 23.9726 61.1954 27.2777 65.5281 27.2777ZM70.1385 18.6956H60.8621C60.8898 16.6959 62.7229 14.5295 65.5281 14.5295C67.8333 14.5295 70.2219 16.6681 70.1385 18.6956Z" fill="#FEF0E5"/>
<path d="M85.2961 27.2777C89.7955 27.2777 91.2675 22.4173 91.2675 20.8897L91.4897 27H93.7949L93.6283 16.6403C93.6005 14.8073 91.7952 12.8353 87.768 12.8353C84.1574 12.8353 82.2965 14.5573 81.4633 16.0571C81.38 16.1959 81.4633 16.3904 81.63 16.4459L83.2408 17.0292C83.3797 17.0847 83.5464 17.0292 83.6019 16.8903C84.1296 15.5572 85.2406 14.3907 87.8235 14.3907C89.7122 14.3907 90.9064 14.9461 91.2119 16.2515C91.3508 16.8625 90.8787 17.1125 90.5454 17.1958C87.3514 18.0846 80.7134 19.6399 80.7134 23.6671C80.7134 25.8335 82.8242 27.2777 85.2961 27.2777ZM85.4628 25.6113C84.3518 25.6113 83.1297 25.028 83.1297 23.6116C83.1297 19.9176 90.4343 18.8622 91.2675 18.3068C91.2675 22.7506 87.7402 25.6113 85.4628 25.6113Z" fill="#FEF0E5"/>
<path d="M113.701 32.5547H116.118V13.4186C116.118 13.2519 116.007 13.1131 115.812 13.1408L114.285 13.2519C114.146 13.2519 114.035 13.363 114.035 13.5297L113.84 17.0847C112.868 14.5851 110.702 12.8631 108.147 12.8631C104.675 12.8631 101.897 16.0849 101.897 20.0565C101.897 24.0559 104.675 27.2777 108.147 27.2777C110.591 27.2777 112.674 25.6946 113.701 23.3894V23.4727V32.5547ZM104.314 20.0565C104.314 17.0292 106.425 14.5573 108.98 14.5573C111.646 14.5573 113.701 17.0292 113.701 20.0565C113.701 23.1116 111.591 25.5835 108.98 25.5835C106.425 25.5835 104.314 23.1116 104.314 20.0565Z" fill="#FEF0E5"/>
<path d="M124.451 27.2777C129.616 27.2777 129.311 18.7789 129.311 20.612V25.1947L129.422 26.6945C129.422 26.8611 129.589 27 129.755 26.9722L131.588 26.75C131.727 26.7222 131.838 26.5834 131.838 26.4445L131.727 25.2224V13.1131H129.311C129.311 20.6953 128.283 25.5835 124.562 25.5835C122.006 25.5835 121.09 23.7782 121.09 21.3063V13.1131H118.674V21.4174C118.674 24.7781 120.257 27.2777 124.451 27.2777Z" fill="#FEF0E5"/>
<path d="M141.258 27.2777C145.313 27.2777 147.258 25.1114 148.035 23.1394C148.091 23.0283 147.869 22.9172 147.646 22.9172H145.73C145.619 22.9172 145.508 22.9728 145.48 23.0839C145.036 24.2504 143.925 25.6113 141.258 25.6113C138.509 25.6113 136.592 23.3616 136.454 20.3898H148.341C148.563 16.6959 146.091 12.8353 141.258 12.8353C136.787 12.8353 134.121 16.0571 134.121 19.9732C134.121 23.9726 136.926 27.2777 141.258 27.2777ZM145.869 18.6956H136.592C136.62 16.6959 138.453 14.5295 141.258 14.5295C143.564 14.5295 145.952 16.6681 145.869 18.6956Z" fill="#FEF0E5"/>
<path d="M156.2 27.2777C160.589 27.2777 162.283 25.0558 162.283 22.8061C162.283 20.0843 159.172 19.4455 156.311 18.8067C154.284 18.3623 152.395 18.2512 152.395 16.5848C152.395 15.3072 153.506 14.5295 155.478 14.5295C157.561 14.5295 158.283 15.335 159.255 16.6403C159.339 16.7514 159.478 16.7792 159.589 16.7237L161.061 16.0571C161.227 15.9738 161.311 15.7516 161.172 15.5849C159.839 13.8074 158.367 12.8353 155.673 12.8353C152.173 12.8353 149.951 14.6128 149.951 16.5848C149.951 19.5566 153.312 19.8621 155.673 20.3343C157.756 20.7509 159.811 21.1119 159.811 22.8061C159.811 24.6392 158.533 25.6113 156.145 25.6113C153.756 25.6113 152.895 24.667 151.84 22.8617C151.757 22.7228 151.618 22.695 151.479 22.7506L149.951 23.5282C149.785 23.6116 149.729 23.7782 149.84 23.9449C151.284 26.0834 153.117 27.2777 156.2 27.2777Z" fill="#FEF0E5"/>
<path d="M169.44 27.2777C171.967 27.2777 173.606 26.0001 173.606 23.0561V21.0564H171.217V22.9728C171.217 25.3335 170.495 25.6946 169.467 25.6946C168.329 25.6946 167.468 25.3613 167.468 22.9728V14.5295H172.078V13.1131H167.468V9.16917C167.468 8.9192 167.245 8.75256 166.995 8.86365L165.162 9.75242V11.28C165.162 12.3632 164.496 13.1131 163.69 13.1131H162.329V14.5295H165.051V23.0561C165.051 26.0001 166.884 27.2777 169.44 27.2777Z" fill="#FEF0E5"/>
<path d="M175.44 13.6408V27H177.884V13.4463C177.884 13.2797 177.717 13.1131 177.551 13.1408L175.69 13.363C175.551 13.3908 175.44 13.5019 175.44 13.6408ZM176.884 11.1411C177.801 10.8356 178.217 10.3912 178.079 9.558C177.967 8.72479 177.384 8.3915 176.468 8.69701C175.523 9.00253 175.079 9.39136 175.19 10.1968C175.301 11.03 175.968 11.4466 176.884 11.1411Z" fill="#FEF0E5"/>
<path d="M187.244 27.2777C191.327 27.2777 194.827 24.3337 194.827 20.0565C194.827 15.8071 191.327 12.8631 187.244 12.8631C183.162 12.8631 179.662 15.8071 179.662 20.0565C179.662 24.3337 183.162 27.2777 187.244 27.2777ZM187.244 25.6946C184.411 25.6946 182.078 23.4449 182.078 20.0565C182.078 16.6681 184.411 14.4184 187.244 14.4184C190.077 14.4184 192.41 16.6681 192.41 20.0565C192.41 23.4449 190.077 25.6946 187.244 25.6946Z" fill="#FEF0E5"/>
<path d="M196.845 13.6408V27H199.261C199.289 23.6393 199.234 14.6128 203.677 14.6128C206.26 14.6128 207.482 16.8903 207.482 19.1678V27H209.899V18.7234C209.899 15.4738 207.538 12.8631 204.649 12.8631C200.456 12.8631 199.234 16.8903 199.234 20.862L198.956 13.4463C198.956 13.2797 198.789 13.1408 198.623 13.1686L197.095 13.363C196.956 13.3908 196.845 13.5019 196.845 13.6408Z" fill="#FEF0E5"/>
<path d="M216.899 21.9451V22.4451H219.176V22.1673C219.176 20.862 219.509 19.9454 220.898 19.2233C223.231 18.029 225.009 16.8347 225.009 14.1129C225.009 11.0022 222.648 8.66924 218.759 8.66924C214.066 8.66924 212.455 12.0854 212.455 14.5017H214.871C214.871 13.0297 215.288 10.9189 218.704 10.9189C221.453 10.9189 222.62 12.2798 222.62 14.1685C222.62 15.7238 221.898 16.3348 220.12 17.2514C218.01 18.3345 216.899 19.8621 216.899 21.9451ZM218.287 26.9444C218.704 26.2779 219.232 25.6946 219.926 25.278C220.12 25.1669 219.981 24.9447 219.926 24.9169C219.204 24.4726 218.815 24.1115 218.287 23.2227C218.176 23.0283 217.982 23.0561 217.871 23.2783C217.593 23.8615 217.093 24.5281 216.288 24.9169C216.065 25.028 216.093 25.1947 216.288 25.3058C216.899 25.6391 217.51 26.2779 217.843 26.8889C217.982 27.1388 218.148 27.1388 218.287 26.9444Z" fill="#FEF0E5"/>
</svg>
