<svg xmlns="http://www.w3.org/2000/svg" width="103" height="32" fill="none"><g fill="#fff" clip-path="url(#a)"><path d="M25.34 11.264a11.685 11.685 0 0 0-1.763-2.84A11.933 11.933 0 1 0 7.1 25.463c.86.67 1.81 1.213 2.822 1.615 1.42.582 2.938.881 4.472.882a11.96 11.96 0 0 0 11.935-11.95 11.812 11.812 0 0 0-.988-4.745zm-10.954-4.79a9.45 9.45 0 0 1 3.987.882 3.872 3.872 0 0 1-.953.274 5.054 5.054 0 0 0-4.278 4.278 2.647 2.647 0 0 1-2.39 2.337 5.054 5.054 0 0 0-4.278 4.278 2.567 2.567 0 0 1-.696 1.535 9.527 9.527 0 0 1 8.617-13.602l-.009.018zm-7.294 15.71c.106-.097.211-.186.317-.291a4.834 4.834 0 0 0 1.43-2.85 2.567 2.567 0 0 1 .767-1.605c.421-.439.99-.709 1.596-.758a5.054 5.054 0 0 0 4.278-4.278 2.576 2.576 0 0 1 .767-1.685 2.532 2.532 0 0 1 1.614-.732 4.834 4.834 0 0 0 2.646-1.262 9.27 9.27 0 0 1 2.082 2.452.758.758 0 0 1-.115.124 2.531 2.531 0 0 1-1.596.776 5.037 5.037 0 0 0-4.278 4.278 2.646 2.646 0 0 1-2.373 2.364 5.081 5.081 0 0 0-4.304 4.278 2.77 2.77 0 0 1-.432 1.209 9.607 9.607 0 0 1-2.4-2.02zm7.294 3.404a9.557 9.557 0 0 1-2.646-.37 5.1 5.1 0 0 0 .565-1.764 2.646 2.646 0 0 1 2.363-2.364 5.054 5.054 0 0 0 4.287-4.278 2.647 2.647 0 0 1 2.364-2.364 5.036 5.036 0 0 0 2.258-.882 9.543 9.543 0 0 1-9.19 11.978v.044zM92.562 9.12v13.777h-2.845V9.12h2.845zm5.948 8.311h-5.948v-2.845l5.948-.017v2.862zm1.12-5.466h-7.068V9.122h7.069v2.845zm0 10.932h-7.068v-2.845l7.069-.017v2.862zM83.59 9.104v13.793h-2.846V9.104h2.845zm4.396 2.844H76.348V9.121l11.638-.017v2.844zM70.367 9.104l-5.931 13.793h-3.208L67.16 9.104h3.207zm.017 0 5.966 13.793h-3.207L67.177 9.104h3.207zm2.414 11.241h-8.19v-2.931l8.19-.017v2.948zm-25.9-11.241h5.828c1.92 0 3.529.31 4.828.93 1.299.621 1.948 1.834 1.948 3.639 0 1.069-.345 1.913-1.034 2.534-.679.61-1.523 1.035-2.535 1.276-1 .23-2.069.345-3.207.345h-2.914v5.069h-2.914V9.104zm6.449 7.758h3.258l2.604 6.035H55.95l-2.603-6.035zm-.62-1.81c.907 0 1.603-.046 2.085-.138.495-.104.84-.264 1.035-.483.195-.218.293-.511.293-.88 0-.367-.098-.66-.293-.879-.196-.218-.54-.379-1.035-.482-.482-.104-1.178-.155-2.086-.155h-2.914v3.017h2.914zm-7.56-5.948-9.258 11.93-.138-3.965 5.93-7.965h3.466zm-8.793 0v13.793H33.53V9.104h2.845zm.862 7.827 1.793-1.983 6.138 7.949h-3.465l-4.466-5.966z"/></g><defs><clipPath id="a"><path fill="#fff" d="M0 0h102.029v32H0z"/></clipPath></defs></svg>