<svg xmlns="http://www.w3.org/2000/svg" width="104" height="30" fill="none"><path fill="#fff" d="M93.917 26.365c-1.725 0-3.134-.365-4.227-1.093-1.069-.753-1.87-1.7-2.404-2.842a9.54 9.54 0 0 1-.802-3.68c-.024-1.506.255-2.842.838-4.008.607-1.19 1.457-2.113 2.55-2.77 1.118-.68 2.43-1.02 3.935-1.02 1.336 0 2.526.292 3.571.875a6.575 6.575 0 0 1 2.55 2.478c.632 1.044.96 2.283.984 3.716v.947H90.018c0 1.385.34 2.454 1.02 3.207.68.728 1.615 1.093 2.806 1.093.923 0 1.688-.231 2.295-.693.632-.461 1.008-1.068 1.13-1.821h3.607c-.17 1.578-.85 2.915-2.04 4.008-1.19 1.068-2.83 1.603-4.92 1.603zm-3.79-9.073h7.069a7.76 7.76 0 0 0-.182-.801 3.41 3.41 0 0 0-.474-1.13c-.219-.388-.559-.716-1.02-.984-.462-.267-1.057-.4-1.785-.4-.972 0-1.713.206-2.223.62-.486.388-.838.85-1.057 1.384-.194.51-.303.947-.328 1.311zm-12.402 9.073c-1.724 0-3.133-.365-4.226-1.093-1.069-.753-1.87-1.7-2.405-2.842a9.543 9.543 0 0 1-.801-3.68c-.025-1.506.254-2.842.837-4.008.608-1.19 1.458-2.113 2.55-2.77 1.118-.68 2.43-1.02 3.936-1.02 1.336 0 2.526.292 3.57.875a6.574 6.574 0 0 1 2.551 2.478c.632 1.044.96 2.283.984 3.716v.947H73.827c0 1.385.34 2.454 1.02 3.207.68.728 1.615 1.093 2.805 1.093.923 0 1.689-.231 2.296-.693.631-.461 1.008-1.068 1.13-1.821h3.606c-.17 1.578-.85 2.915-2.04 4.008-1.19 1.068-2.83 1.603-4.919 1.603zm-3.789-9.073h7.068a7.76 7.76 0 0 0-.182-.801 3.41 3.41 0 0 0-.474-1.13c-.218-.388-.558-.716-1.02-.984-.461-.267-1.056-.4-1.785-.4-.972 0-1.712.206-2.223.62-.485.388-.837.85-1.056 1.384-.194.51-.304.947-.328 1.311zM59.346 26V11.025h3.461l.255 4.154c.146-.632.425-1.263.838-1.895.437-.655 1.032-1.19 1.785-1.603.778-.437 1.774-.656 2.988-.656h.547v4.154h-.547c-2.089 0-3.546.34-4.372 1.02-.826.656-1.239 1.773-1.239 3.352v6.45h-3.716zm-5.727 0c-1.19 0-2.09-.291-2.697-.874-.582-.583-.874-1.53-.874-2.842v-8.635h-2.259v-2.624c.704 0 1.251-.072 1.64-.218.388-.146.668-.486.838-1.02.17-.535.255-1.397.255-2.587h2.987v3.825h3.425v2.624H53.51v9.436h3.498V26H53.62zm-11.032 0V5.487h3.643V26h-3.643zm-6.514 0V5.487h3.644V26h-3.644zm-9.88.364c-1.7 0-3.109-.327-4.226-.983a6.26 6.26 0 0 1-2.514-2.696c-.559-1.166-.838-2.49-.838-3.972-.024-2.235.595-4.068 1.858-5.502 1.288-1.457 3.194-2.186 5.72-2.186 2.454 0 4.312.705 5.575 2.114 1.287 1.408 1.931 3.267 1.931 5.574 0 1.433-.267 2.733-.801 3.899a6.21 6.21 0 0 1-2.478 2.769c-1.117.656-2.526.983-4.227.983zm0-3.133c1.07 0 1.883-.23 2.442-.692A3.301 3.301 0 0 0 29.8 20.79a8.454 8.454 0 0 0 0-4.409 3.303 3.303 0 0 0-1.165-1.785c-.56-.462-1.373-.692-2.442-.692-1.093 0-1.93.243-2.514.729a3.598 3.598 0 0 0-1.165 1.785 8.183 8.183 0 0 0-.292 2.186c0 .729.097 1.457.291 2.186a3.604 3.604 0 0 0 1.166 1.749c.583.461 1.421.692 2.514.692zM6.062 26H2.346V5.487h8.234c2.283 0 4.056.571 5.32 1.713 1.263 1.141 1.894 2.866 1.894 5.173 0 2.017-.656 3.595-1.967 4.737-1.288 1.142-3.037 1.713-5.247 1.713H6.062V26zM10.07 8.511H6.062v7.579h4.008c1.312 0 2.368-.316 3.17-.947.801-.632 1.202-1.58 1.202-2.842 0-1.288-.4-2.235-1.202-2.842-.777-.632-1.834-.948-3.17-.948z"/></svg>