<svg width="20" height="22" viewBox="0 0 20 22" fill="none" xmlns="http://www.w3.org/2000/svg">
<path d="M6.41545 21.6043L7.33239 21.2053L2.145 9.28513L1.22806 9.68416C0.215758 10.1247 -0.248287 11.3038 0.192242 12.3161L3.78352 20.5685C4.22404 21.5808 5.40315 22.0449 6.41545 21.6043ZM15.8991 3.29967L9.4805 6.09288L9.16537 2.55693C9.04474 1.19711 7.62731 0.35583 6.37569 0.900506L6.16938 0.990288L3.75462 7.97175L9.16626 20.4073L19.2526 16.0179L19.4096 6.57492C19.3874 6.46133 19.3525 6.28347 19.3291 6.16936L18.531 4.33549C18.0905 3.32319 16.9114 2.85914 15.8991 3.29967Z" fill="#28CE7E"/>
</svg>
