 <svg  version="1.0" xmlns="http://www.w3.org/2000/svg"  width="300.000000pt" height="300.000000pt" viewBox="0 0 300.000000 300.000000"  preserveAspectRatio="xMidYMid meet">  <g transform="translate(0.000000,300.000000) scale(0.100000,-0.100000)" fill="#ffffff" stroke="none"> <path d="M2047 2919 c-11 -6 -25 -26 -33 -45 -37 -87 65 -162 140 -103 21 16 26 29 26 63 0 60 -29 96 -78 96 -20 0 -45 -5 -55 -11z m78 -78 c0 -34 -30 -51 -51 -29 -25 24 -10 60 24 56 21 -2 27 -8 27 -27z"/> <path d="M2292 2754 c-93 -47 -127 -180 -68 -267 35 -52 80 -72 163 -70 l72 1 66 -98 c160 -241 229 -425 255 -683 8 -85 8 -132 -4 -234 -52 -446 -289 -812 -671 -1036 -173 -102 -359 -161 -554 -176 -120 -10 -146 -19 -138 -46 9 -29 259 -4 414 41 99 28 234 88 341 151 456 266 722 810 663 1354 -27 244 -127 496 -275 687 l-56 72 26 39 c34 52 42 133 17 180 -10 19 -35 48 -56 65 -31 25 -49 31 -100 33 -44 3 -72 -1 -95 -13z m133 -48 c42 -18 75 -69 75 -116 0 -74 -69 -138 -138 -126 -55 9 -112 74 -112 128 0 37 34 90 71 110 41 22 59 22 104 4z"/> <path d="M1241 2694 c-425 -71 -768 -361 -916 -774 -149 -416 -38 -907 277 -1224 37 -37 68 -72 68 -76 0 -4 -14 -13 -30 -19 -78 -27 -118 -89 -91 -139 15 -29 70 -60 130 -74 40 -9 56 -18 66 -39 34 -65 146 -129 226 -129 71 0 184 62 225 122 12 17 40 35 79 49 87 31 125 62 125 102 0 58 -45 97 -147 127 -24 7 -43 16 -43 20 0 4 -18 27 -41 50 -56 58 -114 82 -203 83 -83 2 -133 -20 -184 -77 -17 -20 -38 -36 -46 -36 -20 0 -176 167 -225 242 -65 97 -127 234 -157 344 -25 90 -28 115 -28 279 -1 194 12 274 71 425 133 341 462 611 828 681 477 91 951 -127 1190 -547 86 -150 127 -287 146 -479 5 -54 11 -101 14 -103 2 -2 13 -1 24 3 19 6 21 14 21 74 0 349 -233 757 -543 949 -248 155 -549 214 -836 166z m-210 -1986 c71 -24 116 -64 138 -123 24 -64 27 -137 7 -154 -27 -23 -184 -34 -296 -21 -57 6 -107 13 -111 15 -16 10 -18 85 -3 135 35 118 155 186 265 148z m-302 -92 c13 -16 4 -49 -13 -43 -14 4 -21 57 -8 57 5 0 15 -6 21 -14z m-29 -117 c0 -33 -3 -59 -7 -57 -5 2 -25 10 -45 17 -59 23 -60 48 -4 82 50 30 56 26 56 -42z m605 38 c22 -12 40 -29 40 -37 0 -14 -69 -60 -91 -60 -8 0 -11 19 -9 58 2 31 3 58 4 60 3 6 19 0 56 -21z m-498 -167 c16 -18 30 -20 170 -20 101 0 153 -4 153 -11 0 -5 -21 -20 -47 -32 -73 -33 -152 -29 -233 11 -66 33 -107 72 -75 72 8 0 23 -9 32 -20z"/> <path d="M1294 2450 c-83 -12 -235 -64 -312 -106 -79 -44 -192 -139 -255 -212 -101 -119 -186 -311 -207 -470 -12 -84 -16 -95 -42 -113 -38 -28 -58 -69 -58 -122 0 -40 5 -49 41 -82 37 -33 46 -37 81 -32 49 7 94 47 109 97 14 47 -8 104 -51 128 -34 19 -36 34 -19 128 31 174 94 307 214 447 132 155 320 252 546 281 291 38 594 -86 778 -318 143 -181 218 -428 191 -631 -36 -271 -177 -501 -400 -652 -107 -72 -234 -116 -384 -132 -87 -9 -126 -26 -112 -50 11 -17 108 -13 219 10 196 39 405 164 523 310 144 178 217 381 216 604 0 339 -184 653 -472 804 -92 48 -168 79 -240 97 -69 18 -284 26 -366 14z m-716 -966 c13 -9 22 -26 22 -40 0 -28 -41 -74 -65 -74 -23 0 -65 45 -65 70 0 27 34 60 63 60 12 0 33 -7 45 -16z"/> <path d="M1422 2108 c-7 -7 -12 -20 -12 -29 0 -18 -26 -33 -42 -23 -5 3 -13 17 -19 31 -13 34 -43 27 -47 -12 -3 -28 -25 -55 -44 -55 -5 0 -13 11 -18 25 -6 15 -17 25 -29 25 -23 0 -31 -18 -21 -45 4 -11 3 -26 -2 -32 -14 -18 -47 -16 -54 2 -7 17 -40 20 -50 4 -3 -6 -1 -22 6 -35 22 -40 -21 -74 -50 -39 -17 20 -27 19 -40 -4 -7 -15 -6 -23 5 -35 33 -33 13 -61 -41 -58 -41 3 -50 -12 -24 -38 30 -30 22 -54 -20 -60 -45 -6 -54 -40 -15 -58 34 -16 30 -46 -7 -50 -55 -6 -64 -58 -11 -64 35 -4 38 -37 5 -54 -13 -6 -29 -17 -34 -22 -16 -16 9 -42 39 -42 36 0 41 -28 8 -54 -38 -30 -29 -61 14 -51 24 5 32 2 42 -16 10 -19 9 -25 -10 -40 -40 -32 -22 -68 24 -47 21 10 29 9 42 -5 16 -16 15 -19 -6 -47 -18 -25 -20 -34 -10 -46 10 -13 15 -12 36 1 42 28 86 -8 52 -42 -16 -16 -4 -43 19 -43 11 0 25 7 32 15 27 32 68 10 49 -27 -5 -9 -6 -24 -3 -32 9 -23 45 -20 51 4 4 14 14 20 35 20 28 0 30 -2 25 -29 -11 -52 33 -70 53 -21 7 16 18 30 25 30 31 0 45 -13 45 -41 0 -42 34 -40 46 4 12 41 55 46 64 7 3 -14 14 -26 23 -28 17 -4 21 2 31 51 8 34 37 36 59 5 22 -33 53 -13 49 30 -4 38 29 53 58 27 11 -10 26 -15 35 -12 17 7 20 33 5 42 -15 9 -12 45 5 51 8 4 27 -2 42 -11 25 -17 27 -17 40 0 11 16 10 21 -2 35 -8 9 -15 27 -15 39 0 19 5 22 40 19 52 -3 70 14 41 38 -11 10 -21 29 -21 41 0 20 5 23 35 23 47 0 56 23 20 55 -32 30 -29 48 10 55 31 6 59 39 38 47 -20 7 -63 44 -63 54 0 5 11 11 25 15 31 8 47 27 39 48 -5 12 -14 16 -30 12 -17 -5 -26 -1 -34 13 -8 16 -5 25 16 45 32 29 27 62 -7 53 -44 -12 -68 25 -34 53 9 7 15 23 13 34 -3 18 -9 21 -45 18 -47 -4 -53 5 -31 53 16 36 -2 54 -37 35 -22 -12 -28 -12 -43 3 -14 14 -14 21 -4 37 23 37 -11 68 -38 35 -7 -9 -23 -15 -34 -13 -17 2 -21 10 -21 43 0 46 -24 59 -48 25 -24 -34 -61 -23 -67 20 -6 43 -41 50 -50 10 -9 -37 -41 -33 -60 7 -16 35 -29 40 -48 21z m120 -119 c202 -42 367 -248 368 -458 0 -128 -53 -243 -168 -364 -22 -23 -24 -30 -12 -37 11 -7 8 -11 -15 -20 -16 -6 -38 -20 -48 -31 -11 -12 -31 -19 -52 -19 -24 0 -37 -6 -45 -20 -11 -21 -40 -28 -40 -10 0 6 4 10 8 10 5 0 39 29 78 65 38 35 78 65 89 67 35 5 55 78 22 78 -7 0 -52 -40 -102 -90 -71 -71 -98 -91 -130 -98 -83 -17 -83 -6 -5 73 48 48 71 79 68 91 -7 39 -37 24 -124 -66 -81 -83 -92 -91 -119 -85 -55 10 -53 22 18 91 46 45 67 73 67 90 0 41 -28 28 -111 -53 -74 -71 -80 -76 -104 -65 -14 6 -25 17 -25 24 0 7 34 47 76 89 67 67 76 80 70 103 -3 14 -10 26 -14 26 -9 0 -55 -40 -134 -118 -56 -55 -58 -55 -78 -37 -11 10 -20 23 -20 29 0 6 37 48 82 93 69 69 81 86 72 100 -6 9 -15 18 -21 20 -6 2 -44 -30 -84 -71 -41 -42 -79 -76 -86 -76 -7 0 -15 16 -19 36 -6 35 -4 39 70 113 49 49 76 84 76 99 0 39 -33 25 -100 -43 -35 -36 -68 -65 -72 -65 -4 0 -8 19 -8 43 0 39 6 49 75 124 75 82 89 108 59 120 -10 4 -30 -10 -59 -43 -24 -27 -44 -53 -45 -58 0 -14 -50 -76 -61 -76 -15 0 -10 19 14 53 12 18 24 34 27 37 3 3 21 36 40 75 98 196 309 299 522 254z m-137 -940 c-4 -5 -16 -9 -29 -9 -12 0 -27 -5 -34 -12 -9 -9 -12 -9 -12 0 0 7 15 18 33 26 33 14 52 12 42 -5z"/> </g> </svg> 