<svg xmlns:xlink="http://www.w3.org/1999/xlink" xmlns="http://www.w3.org/2000/svg" style="width:100%;height:100%" width="36"  height="36" ><defs><svg viewBox="0 0 36 36" id="svg33637349"><g transform="translate(-0 -0)" id="ss33637349_1"><path d="M 0 36 L 0 0 L 36 0 L 36 36 Z" fill="#000000" fill-opacity="0"></path><path d="M 28.401 18.048 C 32.805 15.331 35.797 10.532 36 5.027 C 36.012 4.692 35.737 4.405 35.402 4.405 L 32.171 4.405 C 31.907 4.405 31.692 4.189 31.692 3.926 L 31.692 0.599 C 31.692 0.264 31.417 -0.012 31.07 0 C 25.576 0.216 20.777 3.196 18.048 7.6 C 15.331 3.208 10.532 0.216 5.027 0 C 4.692 -0.012 4.405 0.264 4.405 0.599 L 4.405 3.83 C 4.405 4.093 4.189 4.309 3.926 4.309 L 0.599 4.309 C 0.264 4.309 -0.012 4.584 0 4.931 C 0.216 10.425 3.196 15.224 7.6 17.953 C 3.208 20.681 0.216 25.468 0 30.974 C -0.012 31.309 0.264 31.596 0.599 31.596 L 3.83 31.596 C 4.093 31.596 4.309 31.812 4.309 32.075 L 4.309 35.414 C 4.309 35.749 4.584 36.024 4.931 36.012 C 10.425 35.797 15.224 32.817 17.953 28.413 C 20.681 32.817 25.48 35.809 30.974 36.012 C 31.309 36.024 31.596 35.749 31.596 35.414 L 31.596 32.183 C 31.596 31.919 31.812 31.704 32.075 31.704 L 35.414 31.704 C 35.749 31.704 36.024 31.429 36.012 31.081 C 35.797 25.576 32.805 20.777 28.401 18.048 Z M 18 16.026 C 19.09 16.026 19.975 16.911 19.975 18 C 19.975 19.09 19.09 19.975 18 19.975 C 16.911 19.975 16.026 19.09 16.026 18 C 16.026 16.911 16.911 16.026 18 16.026 Z M 31.189 5.338 C 30.746 10.772 26.426 15.128 21.004 15.619 C 20.717 15.643 20.466 15.403 20.49 15.104 C 20.933 9.671 25.253 5.314 30.675 4.824 C 30.962 4.8 31.213 5.039 31.189 5.338 Z M 15.104 15.511 C 9.671 15.068 5.314 10.748 4.824 5.326 C 4.8 5.039 5.039 4.788 5.338 4.812 C 10.772 5.254 15.128 9.575 15.619 14.996 C 15.643 15.296 15.391 15.547 15.104 15.511 Z M 4.812 30.663 C 5.254 25.229 9.575 20.873 14.996 20.382 C 15.284 20.358 15.535 20.597 15.511 20.897 C 15.068 26.33 10.748 30.687 5.326 31.177 C 5.039 31.201 4.788 30.962 4.812 30.663 Z M 20.909 20.49 C 26.342 20.933 30.699 25.253 31.189 30.675 C 31.213 30.962 30.974 31.213 30.675 31.189 C 25.241 30.746 20.885 26.426 20.394 21.004 C 20.358 20.705 20.609 20.466 20.909 20.49 Z" fill="var(--token-3ea41072-e4a3-4fbd-afee-986fdaa2559f, rgb(0, 0, 0)) /* {&quot;name&quot;:&quot;Black&quot;} */"></path></g></svg></defs><use href="#svg33637349"></use></svg>