<?xml version="1.0" encoding="UTF-8"?>
<svg id="Layer_1" xmlns="http://www.w3.org/2000/svg" version="1.1" viewBox="0 0 500 500">
  <!-- Generator: Adobe Illustrator 29.1.0, SVG Export Plug-In . SVG Version: 2.1.0 Build 142)  -->
  <defs>
    <style>
      .st0 {
        fill: #fff;
      }
    </style>
  </defs>
  <path class="st0" d="M500,0v500H0V0h500ZM347.01,10.85c-12.82,1.76-17.66,18.98-7.96,27.58,6.73,5.96,21.95,3.37,24.48-5.68,3.14-11.26-3.81-23.64-16.52-21.89ZM403.15,412.24c81-76.52,93.63-212.39,28.01-302.7-3.91-5.39-8.59-10.24-12.56-15.54-3.12-4.16-.61-4.2,1.74-7.75,26.28-39.79-33.94-69.09-52.08-31.84-6.93,14.24-1.9,33.28,12.45,40.7,4.58,2.37,12.72,3.17,17.84,2.81,2.35-.16,7.44-1.92,9.07-1.65.84.13,1.74,1.24,2.28,1.88,4.51,5.31,9.9,13.69,13.82,19.65,40.34,61.35,51.27,129.02,27.11,199.35-24.71,71.92-85.53,126.62-159.01,145.54-13.74,3.54-27.87,5-42.01,5.92-5.71.37-15.53-2.04-14.29,6.82.29,2.05,3.3,2.87,5.18,3.08,6.9.75,18.41-.84,25.56-1.71,52.19-6.36,98.85-28.63,136.89-64.56ZM384.55,110.49c-53.62-57.36-133.31-77.21-208.42-52.74C82.31,88.3,24.52,191.09,47.39,287.53c9.86,41.56,27.73,71.9,57.77,101.74,1.59,1.58,7.05,5.28,5.81,7.84-.38.79-6.61,2.72-8.15,3.44-17.93,8.3-17.55,23.85.27,32.11,5.11,2.37,10.89,2.6,16.01,4.24,3.64,1.17,5.45,7.04,8,10.18,19.13,23.54,53.3,19.56,71.65-2.66,1.88-2.28,2.91-5.16,5.66-6.73,3.05-1.74,7.38-2.1,10.74-3.31,7.12-2.55,18.28-8.33,18.74-16.79.5-9.31-7.65-14.96-15.3-18.2-3.82-1.61-14.92-3.88-17.12-6.44s-4.05-6.75-6.44-9.26c-5.16-5.4-14.61-10.35-21.88-12.01-17.5-4-33.02-.95-45.07,12.82-1.25,1.43-3.13,5.33-5.15,5.43-2.38.11-12.94-10.6-15.1-12.85-49.85-51.65-67.22-120.41-45.97-189.79,17.39-56.76,65.58-103.37,122.03-120.95,112.11-34.91,227.85,40.79,241.72,156.6.86,7.17.75,14.84,1.66,21.89.37,2.87.18,4.85,3.49,4.77,6.76-.16,6.57-4.64,6.42-10.13-1.31-47.27-20.43-94.53-52.63-128.98ZM349.33,355.94c66.3-64.52,60.81-175.94-11.94-233.2-56.41-44.4-139.02-44.69-195.02.41-25.01,20.14-40.43,43.66-50.64,74.15-4.6,13.75-6.22,27.36-8.34,41.66-.56,1.07-4.21,2.61-5.49,3.6-11.94,9.11-12.57,26.16.08,35.05,21.33,14.98,42.92-17.9,24.61-32.99-2.34-1.93-7.87-2.65-7.99-5.98-.14-3.88,1.52-11.83,2.24-15.99,8.66-50.34,40.24-93.33,88.31-112.11,21.81-8.52,44.24-12.35,67.55-10.13,57.54,5.47,102.8,40.22,123.24,94.11,27,71.17-8.17,151.04-75.84,183.04-19.34,9.15-34.72,9.82-55.25,12.52-3.2.42-10.13,1.87-10.15,5.99-.03,4.36,8.34,4.45,11.38,4.33,37.92-1.5,76.23-18.17,103.26-44.47ZM298.05,179.23c-1.43-1.39-.96-4.7-.2-6.38.28-.63.94-1.03,1.23-1.66,1.01-2.2.03-4.85-2.09-5.98-4.81-2.56-4.98,2.78-8.13,3.6-4.09,1.07-7.74.26-7.48-4.57.15-2.81,4.71-8.88-1.81-9.31s-6.22,6.56-10.33,6.65c-8.17.16-4.18-7.25-6.06-10.91-1.29-2.51-4.23-2.99-6.67-1.82-2.06.99-1.3,2.54-1.86,4.34-1.13,3.61-4.96,6.19-7.93,2.79-2.72-3.12-2.22-6.63-3.81-9.41-1.23-2.15-5.07.13-6.34,1.35-3.27,3.14-.31,8.84-6.71,9.01-7.43.19-2.59-12.42-11.13-8.25-5.76,2.81-.57,8.97-5.34,12.01-7.2,4.58-5.87-4.17-9.5-6.08-1.78-.93-5.52-.21-6.38,1.77-1.61,3.7,1.5,6.2.85,9.53-.24,1.19-2.61,3.83-3.93,3.92-5.18.35-5.32-4.85-8.69-5.33-2.56-.36-5.12.68-5.54,3.51-.53,3.6,4.97,8.45-.21,12.17-4.83,3.47-6.31-3.09-9.57-3.3-2.69-.17-5.19,3.04-5.13,5.55.1,4.18,6.21,4.44,3.41,9.61-.68,1.26-3.15,3.17-4.52,3.35-2.17.29-4.36-2.38-8.08-.66s-1.49,5.4.51,7.56c2.44,2.63,4.02,1.95,2.17,6.69-1.96,5-6.28.8-10.31,2.91-1.43.75-3.09,5.26-2.39,6.71.89,1.82,8.25,2.25,7.97,6.28-.55,8.07-5.38,2.81-9.21,5.29-3.24,2.1-4.16,7.73-.3,9.4,2.89,1.25,6.28-.12,7.26,3.49,1.84,6.78-9.88,5.6-10.09,10.87-.31,7.67,9.45,4.76,11.63,7.43,4.44,5.47-7.25,8.31-7.42,11.14-.08,1.38,1.75,5.47,3.26,5.84,2.35.58,7.69-3.44,9.65-.54.86,1.27,2.13,7.38,1.12,8.38-4.86.72-7.36,4.73-3.92,8.86,3.01,3.61,8.6-4.23,12.82.41,4.58,5.04-2.75,8.06-3.44,11.06-.48,2.09.84,5.72,3.12,6.22,3.57.78,8.29-6.98,13.12-2.39,3.42,3.24-1.74,6.71-1.82,9.29-.12,3.74,3.27,6.63,6.96,5.37,1.71-.59,4.52-4.66,4.85-4.74,2.58-.62,7.01.05,7.01,3.44,0,3.77-3.36,5.27-.62,9.51,1.15,1.78,2.63,2.17,4.69,1.94,3.49-.39,3.45-4.78,5.18-5.98,2.15-1.5,5.43-1.81,7.61-.21,2.02,2.5-.7,6.52-.02,8.68.74,2.34,5.24,4.95,7.5,3.32,1.47-1.06,2.81-7.63,4.73-8.5s7.46-.21,8.18,2.14c.92,2.99-1.75,6.73,2.44,8.31,8.45,3.18,4.01-8.21,8.29-10.13,1.41-.63,5.08-.95,6.28.11,2.69,2.34,1.55,11.33,8.09,8.07,4.98-2.49.84-7.58,4.16-11.13,1.89-2.03,6.63-1.67,7.93.67.53.95.84,3.57,1.43,4.15,1.14,1.14,4.82.2,6.07-.55,4.9-2.95-.27-8.68,1.06-11.34.4-.79,5.19-2.16,6.17-2.06,3.08.32,4.19,3.93,6.34,4.46,2.34.58,5.17-1.95,5.44-4.3.45-3.95-4.5-4.63-2.06-9.92s9.39,1.62,11.96,2.09c2.72.5,5.01-3.4,4.88-5.71-.23-4-4.81-3.48-4.44-9.16.49-7.44,10.64.49,14.76-3.64s-2.59-6.31-4.06-9.5-.93-6.58,2.86-7.21c3.17-.53,8.35,2.32,9.77-2.65,1.39-4.91-5.78-5.91-7.2-10.43-2.18-6.92,6.11-3.66,9.28-5.65.48-.3,2.03-2.49,2.27-3.1,2.47-6.03-5.25-5.5-7.62-8-.88-.93-2.46-3.91-2.27-5.18.36-2.42,8.51-1.99,9.75-5.98.52-1.66-.3-6.08-1.88-6.85-2.47-1.21-8.55,3.72-9.34-3.5-.68-6.24,8.4-4.94,7.09-11.19-1.09-5.21-4.21-4.38-8.19-2.95-2.07-1.22-4.12-.04-4.98-2.88-2.15-7.04,8.96-8.26,4.46-13.97-3.46-4.39-11.45,1.27-13.44-1.13-.77-.92-1.33-3.55-1.12-4.78.59-3.54,4.59-3.48,3.35-8.09-.7-2.62-2.08-4.77-5.2-4.13-1.91.39-3.23,3.02-5.04,3.26-1.34.18-4.12-.44-5.07-1.38Z"/>
  <path d="M384.55,110.49c32.21,34.46,51.32,81.71,52.63,128.98.15,5.49.34,9.97-6.42,10.13-3.31.08-3.12-1.9-3.49-4.77-.92-7.05-.8-14.72-1.66-21.89-13.86-115.81-129.61-191.51-241.72-156.6-56.45,17.57-104.64,64.19-122.03,120.95-21.25,69.38-3.88,138.14,45.97,189.79,2.16,2.24,12.72,12.96,15.1,12.85,2.02-.09,3.9-4,5.15-5.43,12.05-13.78,27.58-16.82,45.07-12.82,7.27,1.66,16.71,6.61,21.88,12.01,2.4,2.51,4.28,6.75,6.44,9.26s13.3,4.82,17.12,6.44c7.65,3.24,15.8,8.89,15.3,18.2-.46,8.46-11.62,14.25-18.74,16.79-3.37,1.2-7.7,1.56-10.74,3.31-2.75,1.57-3.78,4.46-5.66,6.73-18.36,22.22-52.53,26.2-71.65,2.66-2.55-3.14-4.36-9.01-8-10.18-5.12-1.64-10.9-1.87-16.01-4.24-17.82-8.27-18.2-23.81-.27-32.11,1.54-.71,7.76-2.65,8.15-3.44,1.25-2.55-4.21-6.25-5.81-7.84-30.04-29.84-47.91-60.18-57.77-101.74C24.52,191.09,82.31,88.3,176.13,57.74c75.11-24.47,154.8-4.62,208.42,52.74ZM158.59,380.29c-21.9,1.99-34.85,21.53-32.56,42.64.53,4.9.88,5.81,5.69,6.71,16.72,3.13,38.36,3.68,55.14.82,2.5-.43,9.2-1.47,10.06-3.99,2.53-7.49.56-16.05-1.99-23.25-3.45-9.73-7.32-13.13-16.13-18.17-5.53-3.17-13.83-5.34-20.2-4.75ZM208.97,407.09c-1.98.57-1.43,5.57-1.1,7.15.46,3.27-1.01,7.21-.43,10.35.09.47.14.84.68.97.66.1,1.35.14,2.02.07,1.41-.14,9.25-3.85,10.5-4.79,1.9-1.44,2.74-3.14,3.68-5.27-.09-1.23-4-3.67-5.17-4.33-1.64-.92-8.76-4.55-10.16-4.14ZM112.7,407.54c-2.56.42-10.36,4.71-11.63,6.96-3.96,6.99,10.73,9.23,14.43,11.53,1.18-.91-.2-2.52-.21-3.92,0-.7.41-1.4.41-2.07.02-3.88.08-7.7.41-11.57l-.68-.97c-.92-.17-1.83-.11-2.74.04ZM187.14,442.61c-.94-1.52-8.28-1.33-10.1-1.29-6.9.14-13.54,1.04-20.65.85-3.61-.1-8-.9-11.55-.88-2.04,0-4.36.78-6.54.52l-.7.97c1.35,2.95,4.75,4.42,7.59,5.65,14.32,6.21,23.14,5.22,36.93-1.24,1.3-.61,6.31-2.52,5.04-4.57Z"/>
  <path d="M298.05,179.23c.95.93,3.73,1.56,5.07,1.38,1.81-.24,3.13-2.88,5.04-3.26,3.12-.63,4.5,1.52,5.2,4.13,1.24,4.62-2.77,4.55-3.35,8.09-.2,1.23.35,3.85,1.12,4.78,1.99,2.39,9.98-3.26,13.44,1.13,4.5,5.7-6.61,6.92-4.46,13.97.87,2.84,2.92,1.66,4.98,2.88,3.99-1.43,7.1-2.26,8.19,2.95,1.31,6.24-7.77,4.94-7.09,11.19.78,7.22,6.87,2.28,9.34,3.5,1.58.78,2.4,5.19,1.88,6.85-1.25,3.99-9.39,3.55-9.75,5.98-.19,1.27,1.39,4.25,2.27,5.18,2.38,2.5,10.09,1.97,7.62,8-.25.6-1.79,2.79-2.27,3.1-3.17,1.98-11.46-1.27-9.28,5.65,1.42,4.51,8.59,5.52,7.2,10.43-1.41,4.98-6.6,2.12-9.77,2.65-3.78.63-4.3,4.09-2.86,7.21s8.15,5.4,4.06,9.5-14.27-3.81-14.76,3.64c-.37,5.68,4.21,5.16,4.44,9.16.13,2.31-2.16,6.21-4.88,5.71-2.57-.47-9.45-7.51-11.96-2.09s2.51,5.96,2.06,9.92c-.27,2.35-3.1,4.88-5.44,4.3-2.16-.53-3.27-4.14-6.34-4.46-.98-.1-5.77,1.27-6.17,2.06-1.33,2.66,3.84,8.38-1.06,11.34-1.25.75-4.93,1.69-6.07.55-.58-.58-.9-3.2-1.43-4.15-1.3-2.34-6.04-2.69-7.93-.67-3.31,3.55.82,8.65-4.16,11.13-6.53,3.26-5.4-5.72-8.09-8.07-1.21-1.05-4.88-.74-6.28-.11-4.28,1.92.16,13.31-8.29,10.13-4.18-1.57-1.52-5.32-2.44-8.31-.72-2.35-6.29-2.99-8.18-2.14s-3.26,7.44-4.73,8.5c-2.26,1.63-6.76-.98-7.5-3.32-.68-2.17,2.03-6.18.02-8.68-2.18-1.6-5.46-1.29-7.61.21-1.73,1.2-1.69,5.59-5.18,5.98-2.06.23-3.54-.15-4.69-1.94-2.74-4.24.61-5.74.62-9.51,0-3.4-4.43-4.07-7.01-3.44-.33.08-3.14,4.15-4.85,4.74-3.69,1.26-7.07-1.63-6.96-5.37.08-2.58,5.23-6.05,1.82-9.29-4.84-4.59-9.55,3.18-13.12,2.39-2.28-.5-3.6-4.14-3.12-6.22.69-2.99,8.02-6.02,3.44-11.06-4.22-4.64-9.81,3.2-12.82-.41-3.44-4.13-.93-8.13,3.92-8.86,1.01-.99-.26-7.11-1.12-8.38-1.97-2.9-7.31,1.12-9.65.54-1.51-.37-3.34-4.46-3.26-5.84.17-2.83,11.86-5.68,7.42-11.14-2.17-2.68-11.93.23-11.63-7.43.21-5.27,11.93-4.09,10.09-10.87-.98-3.61-4.36-2.24-7.26-3.49-3.86-1.66-2.94-7.3.3-9.4,3.82-2.48,8.66,2.77,9.21-5.29.27-4.03-7.09-4.45-7.97-6.28-.7-1.45.96-5.96,2.39-6.71,4.04-2.11,8.36,2.09,10.31-2.91,1.85-4.74.27-4.06-2.17-6.69-2-2.16-4.31-5.8-.51-7.56s5.9.95,8.08.66c1.37-.18,3.83-2.09,4.52-3.35,2.8-5.17-3.31-5.43-3.41-9.61-.06-2.5,2.44-5.72,5.13-5.55,3.26.21,4.74,6.77,9.57,3.3,5.18-3.72-.33-8.57.21-12.17.42-2.83,2.98-3.88,5.54-3.51,3.37.48,3.51,5.68,8.69,5.33,1.33-.09,3.7-2.73,3.93-3.92.66-3.32-2.46-5.83-.85-9.53.87-1.98,4.61-2.71,6.38-1.77,3.63,1.91,2.29,10.67,9.5,6.08,4.78-3.04-.42-9.2,5.34-12.01,8.54-4.17,3.7,8.44,11.13,8.25,6.4-.16,3.44-5.87,6.71-9.01,1.27-1.22,5.11-3.5,6.34-1.35,1.59,2.78,1.09,6.29,3.81,9.41,2.97,3.41,6.8.82,7.93-2.79.56-1.8-.19-3.35,1.86-4.34,2.44-1.17,5.38-.69,6.67,1.82,1.88,3.65-2.11,11.07,6.06,10.91,4.11-.08,3.54-7.09,10.33-6.65s1.97,6.5,1.81,9.31c-.26,4.82,3.39,5.64,7.48,4.57,3.15-.83,3.32-6.17,8.13-3.6,2.12,1.13,3.11,3.78,2.09,5.98-.29.63-.95,1.03-1.23,1.66-.76,1.68-1.22,4.99.2,6.38ZM295.72,298.62c26.91-31.02,30.44-68.58,5.03-102.05-18.51-24.38-47.28-33.55-77.28-28.26-19.15,3.38-37.48,17.29-48.19,33.22-3.99,5.93-7.86,12.6-9.13,19.7l1.01.69c2.26-2.08,4.77-4.3,7.02-6.62,2.8-2.89,7.7-11.41,11.95-5.35,3.09,4.42-1.42,8.64-4.32,11.75-5.59,6-18.87,16.07-20.19,24-.53,3.2-.31,6.5.39,9.65.79.67,4.15-1.66,4.9-2.29,5.09-4.24,14.41-16.89,20.18-18.68,2.71-.84,3.61.28,4.45,2.8,1.1,3.32.85,4.38-1.24,7.04-4.25,5.39-11.42,11.1-16.34,16.31-2.33,2.47-4.47,5.17-6.96,7.5-.35.47-.45.96-.44,1.54.03,1.25,1.81,9.15,2.74,9.37.56.13,1.23-.06,1.79-.22,3.75-1.06,12.5-11.81,15.89-15.1,1.51-1.46,3.6-2.89,5.18-4.32,2.73-2.48,4.43-6.44,8.81-3.03,4.67,3.63,1.31,7.34-1.57,10.68-6.46,7.48-15.19,13.7-21.65,21.33-2.24,2.54,2.88,9.67,5.1,9.69.69,0,1.31-.27,1.85-.67,7.57-6.81,14.26-14.79,21.92-21.47,1.46-1.27,6.46-5.42,8.09-5.56,2.59-.22,4.76,6.35,3.51,8.49l-24,24.34c-.94,1.46-1.5,2.44-.76,4.06,1.32,2.89,2.49,2.21,4.78,3.08,1.09.41,1.87,1.64,3.11,1.27,5.85-5.15,11.32-10.72,17.04-16.07,2.78-2.6,7.56-8.31,11.35-8.9,2.26-.35,2.74-.18,3.51,1.9,2.09,5.7-3.24,9.11-6.18,13.21l-13.94,12.92c-.47,1.26-.88,2.69.08,3.83,1.37,1.63,9.39,3.88,11.38,1.85,9.69-9.28,18.18-20.07,28.99-28.03,3.85-2.75,7.86,2.64,6.24,6.24-.84,1.87-9.06,10.48-11.04,12.51-3.28,3.35-6.82,6.43-10.55,9.29l-.16,2.43c.62.09,1.24.34,1.86.41,4.01.43,12.95-.7,16.25-3.08,5.92-6.15,11.78-12.5,17.99-18.37,2.43-2.3,8.48-8.42,11.09-9.57,4.49-1.97,6.17,2.02,5.56,5.97-.38,2.49-2.37,4.12-2.38,6.5,3.28.27,4.51-3.25,6.21-5.17.3-.34.84-.47,1.08-.76Z"/>
  <path d="M349.33,355.94c-27.03,26.3-65.33,42.97-103.26,44.47-3.04.12-11.41.02-11.38-4.33.03-4.12,6.95-5.57,10.15-5.99,20.53-2.7,35.91-3.37,55.25-12.52,67.67-32.01,102.84-111.87,75.84-183.04-20.44-53.89-65.71-88.64-123.24-94.11-23.31-2.22-45.75,1.61-67.55,10.13-48.07,18.78-79.65,61.76-88.31,112.11-.72,4.16-2.38,12.11-2.24,15.99.12,3.33,5.65,4.05,7.99,5.98,18.32,15.09-3.28,47.97-24.61,32.99-12.65-8.89-12.02-25.93-.08-35.05,1.29-.98,4.93-2.52,5.49-3.6,2.12-14.3,3.74-27.91,8.34-41.66,10.21-30.49,25.63-54.01,50.64-74.15,56-45.11,138.61-44.82,195.02-.41,72.76,57.27,78.25,168.69,11.94,233.2ZM85.84,250.51c-4.25.88-7.88,6.86-7.14,11.08.26,1.48,3.2,6.82,4.38,7.61,1.75,1.16,6.62,1.73,8.68,1.28,5.78-1.24,8.33-9.12,7.23-14.3s-8.65-6.6-13.15-5.67Z"/>
  <path d="M403.15,412.24c-38.04,35.93-84.69,58.2-136.89,64.56-7.15.87-18.66,2.46-25.56,1.71-1.89-.2-4.9-1.03-5.18-3.08-1.24-8.86,8.59-6.45,14.29-6.82,14.14-.92,28.27-2.38,42.01-5.92,73.48-18.92,134.3-73.62,159.01-145.54,24.16-70.34,13.23-138.01-27.11-199.35-3.92-5.96-9.31-14.35-13.82-19.65-.54-.64-1.45-1.74-2.28-1.88-1.63-.26-6.73,1.49-9.07,1.65-5.12.36-13.26-.44-17.84-2.81-14.35-7.43-19.38-26.47-12.45-40.7,18.14-37.26,78.36-7.96,52.08,31.84-2.35,3.55-4.86,3.59-1.74,7.75,3.97,5.3,8.65,10.15,12.56,15.54,65.62,90.31,52.99,226.18-28.01,302.7ZM393.71,47.22c-14.5,1.46-22.62,18.15-15.28,30.75,15.65,26.83,48.25.82,34.55-21.33-3.83-6.19-12-10.16-19.28-9.42Z"/>
  <path d="M347.01,10.85c12.71-1.74,19.66,10.64,16.52,21.89-2.52,9.06-17.75,11.64-24.48,5.68-9.7-8.59-4.86-25.82,7.96-27.58ZM348.66,21.16c-7.62,1.05-4.99,15.88,3.19,9.83,4.48-3.32,2.34-10.59-3.19-9.83Z"/>
  <path class="st0" d="M158.59,380.29c6.37-.58,14.68,1.59,20.2,4.75,8.81,5.05,12.68,8.45,16.13,18.17,2.55,7.2,4.52,15.76,1.99,23.25-.85,2.52-7.56,3.57-10.06,3.99-16.77,2.86-38.41,2.31-55.14-.82-4.81-.9-5.15-1.81-5.69-6.71-2.3-21.11,10.66-40.64,32.56-42.64Z"/>
  <path class="st0" d="M187.14,442.61c1.27,2.05-3.74,3.96-5.04,4.57-13.79,6.46-22.6,7.45-36.93,1.24-2.84-1.23-6.24-2.7-7.59-5.65l.7-.97c2.19.26,4.51-.51,6.54-.52,3.55-.01,7.94.79,11.55.88,7.11.19,13.75-.7,20.65-.85,1.82-.04,9.16-.23,10.1,1.29Z"/>
  <path class="st0" d="M208.97,407.09c1.4-.41,8.52,3.22,10.16,4.14,1.17.66,5.08,3.1,5.17,4.33-.93,2.13-1.78,3.84-3.68,5.27-1.25.95-9.09,4.65-10.5,4.79-.67.07-1.35.03-2.02-.07-.54-.14-.59-.5-.68-.97-.58-3.14.89-7.08.43-10.35-.32-1.57-.87-6.57,1.1-7.15Z"/>
  <path class="st0" d="M112.7,407.54c.91-.15,1.82-.21,2.74-.04l.68.97c-.33,3.86-.4,7.69-.41,11.57,0,.67-.41,1.37-.41,2.07,0,1.4,1.39,3.01.21,3.92-3.7-2.3-18.39-4.54-14.43-11.53,1.27-2.25,9.07-6.54,11.63-6.96Z"/>
  <path class="st0" d="M295.72,298.62c-.25.29-.78.42-1.08.76-1.7,1.92-2.93,5.44-6.21,5.17,0-2.38,1.99-4.02,2.38-6.5.61-3.96-1.06-7.94-5.56-5.97-2.61,1.15-8.66,7.27-11.09,9.57-6.21,5.87-12.07,12.23-17.99,18.37-3.3,2.38-12.24,3.51-16.25,3.08-.62-.07-1.24-.32-1.86-.41l.16-2.43c3.72-2.86,7.27-5.93,10.55-9.29,1.98-2.03,10.2-10.64,11.04-12.51,1.62-3.59-2.39-8.99-6.24-6.24-10.81,7.96-19.3,18.75-28.99,28.03-1.99,2.03-10.02-.22-11.38-1.85-.96-1.15-.55-2.57-.08-3.83l13.94-12.92c2.93-4.1,8.27-7.51,6.18-13.21-.76-2.08-1.25-2.25-3.51-1.9-3.78.59-8.56,6.3-11.35,8.9-5.73,5.35-11.19,10.92-17.04,16.07-1.25.37-2.03-.86-3.11-1.27-2.29-.87-3.46-.19-4.78-3.08-.74-1.63-.18-2.61.76-4.06l24-24.34c1.25-2.14-.92-8.71-3.51-8.49-1.64.14-6.63,4.29-8.09,5.56-7.66,6.68-14.35,14.66-21.92,21.47-.54.41-1.16.68-1.85.67-2.22-.03-7.34-7.16-5.1-9.69,6.46-7.62,15.18-13.84,21.65-21.33,2.88-3.34,6.24-7.04,1.57-10.68-4.38-3.41-6.07.56-8.81,3.03-1.58,1.43-3.67,2.86-5.18,4.32-3.39,3.29-12.14,14.04-15.89,15.1-.55.16-1.22.35-1.79.22-.93-.22-2.71-8.12-2.74-9.37-.01-.58.08-1.07.44-1.54,2.49-2.34,4.63-5.03,6.96-7.5,4.92-5.21,12.09-10.92,16.34-16.31,2.09-2.65,2.34-3.71,1.24-7.04-.83-2.52-1.73-3.63-4.45-2.8-5.77,1.78-15.09,14.44-20.18,18.68-.76.63-4.11,2.96-4.9,2.29-.7-3.15-.92-6.45-.39-9.65,1.32-7.93,14.61-18.01,20.19-24,2.9-3.11,7.42-7.33,4.32-11.75-4.25-6.06-9.15,2.46-11.95,5.35-2.25,2.32-4.77,4.54-7.02,6.62l-1.01-.69c1.27-7.11,5.14-13.77,9.13-19.7,10.71-15.93,29.04-29.84,48.19-33.22,30-5.29,58.77,3.88,77.28,28.26,25.41,33.47,21.88,71.04-5.03,102.05Z"/>
  <path class="st0" d="M85.84,250.51c4.5-.93,12.02.33,13.15,5.67s-1.45,13.06-7.23,14.3c-2.06.44-6.93-.12-8.68-1.28-1.19-.79-4.12-6.13-4.38-7.61-.74-4.22,2.89-10.2,7.14-11.08Z"/>
  <path class="st0" d="M393.71,47.22c7.27-.73,15.45,3.23,19.28,9.42,13.7,22.15-18.9,48.16-34.55,21.33-7.35-12.6.78-29.29,15.28-30.75Z"/>
  <path class="st0" d="M348.66,21.16c5.53-.76,7.67,6.52,3.19,9.83-8.18,6.05-10.81-8.79-3.19-9.83Z"/>
</svg>