<?xml version="1.0" standalone="no"?>
<!DOCTYPE svg PUBLIC "-//W3C//DTD SVG 20010904//EN"
 "http://www.w3.org/TR/2001/REC-SVG-20010904/DTD/svg10.dtd">
<svg version="1.0" xmlns="http://www.w3.org/2000/svg"
 width="450.000000pt" height="450.000000pt" viewBox="0 0 450.000000 450.000000"
 preserveAspectRatio="xMidYMid meet">
<metadata>
Created by potrace 1.10, written by Peter Selinger 2001-2011
</metadata>
<g transform="translate(0.000000,450.000000) scale(0.100000,-0.100000)"
fill="#000000" stroke="none">
<path d="M2210 4192 c0 -4 4 -12 9 -17 11 -11 -1 -269 -14 -297 -6 -15 -2 -18
21 -18 22 0 25 3 16 12 -13 13 -14 98 -3 207 l6 63 100 -150 c55 -83 103 -151
107 -151 3 -1 9 71 13 159 4 88 11 163 16 166 19 11 8 24 -21 24 -33 0 -37 -5
-16 -25 11 -11 13 -38 9 -122 -3 -59 -6 -112 -7 -116 -1 -5 -45 55 -99 132
-69 100 -103 141 -117 141 -11 0 -20 -4 -20 -8z"/>
<path d="M2060 4182 c0 -4 4 -12 9 -17 12 -12 35 -268 26 -295 -6 -17 -2 -20
29 -20 36 0 44 8 27 25 -5 6 -15 72 -21 148 -10 108 -10 140 0 152 11 13 7 15
-29 15 -22 0 -41 -4 -41 -8z"/>
<path d="M1755 4133 c-55 -14 -101 -26 -103 -28 -2 -2 3 -14 11 -27 22 -33 79
-258 73 -283 -6 -22 -5 -22 107 8 61 16 113 31 115 32 1 1 -1 16 -4 33 l-6 31
-22 -31 c-16 -24 -36 -37 -76 -49 -30 -9 -58 -14 -62 -10 -4 3 -16 38 -27 78
-22 80 -24 77 53 88 32 5 51 3 62 -6 13 -11 14 -9 8 17 -4 16 -10 36 -15 44
-7 12 -8 12 -9 -3 0 -18 -36 -37 -92 -51 -25 -6 -28 -3 -37 32 -28 103 -30 99
34 113 51 11 61 11 87 -4 29 -17 29 -17 23 6 -4 12 -10 25 -14 28 -3 4 -51 -5
-106 -18z"/>
<path d="M2675 4129 c8 -26 -52 -275 -71 -294 -15 -14 -15 -14 48 -31 12 -4
15 0 11 15 -5 20 38 221 59 274 6 15 16 27 22 28 11 1 -51 27 -67 28 -5 1 -5
-8 -2 -20z"/>
<path d="M2819 4096 c8 -10 -1 -43 -40 -142 -28 -71 -58 -136 -65 -144 -12
-14 -9 -17 16 -27 31 -12 39 -6 19 14 -9 9 -1 41 32 127 24 64 46 116 50 116
3 0 27 -77 54 -170 27 -94 52 -167 56 -163 4 5 31 69 59 143 29 74 59 140 67
147 13 10 12 13 -6 22 -31 17 -43 14 -31 -8 8 -16 1 -44 -32 -132 -23 -61 -43
-108 -45 -103 -1 5 -23 78 -48 163 -43 148 -54 171 -84 171 -10 0 -11 -3 -2
-14z"/>
<path d="M1440 4014 c-8 -3 -45 -19 -83 -37 -52 -24 -64 -33 -51 -40 15 -9
119 -218 130 -264 10 -40 -23 -27 -176 66 -129 79 -146 88 -157 73 -9 -11 -10
-18 -3 -22 12 -7 80 -270 80 -307 0 -42 -36 -25 -139 68 -76 67 -101 96 -101
115 0 30 -13 31 -29 1 -11 -20 -8 -40 18 -132 18 -59 30 -109 28 -112 -2 -2
-54 7 -115 20 l-111 23 -20 -20 -21 -20 30 -11 c34 -12 208 -169 219 -197 6
-18 8 -17 31 7 l23 25 -26 0 c-19 0 -52 23 -117 81 -50 45 -89 83 -88 84 2 2
44 -5 93 -15 50 -11 100 -19 111 -20 l22 0 -24 84 c-13 46 -28 96 -34 110 -5
14 -7 26 -4 26 13 0 194 -176 194 -189 0 -8 21 6 48 30 40 37 46 47 36 59 -12
15 -38 99 -32 105 18 16 100 75 105 75 15 0 93 -56 93 -67 0 -18 15 -16 31 3
7 9 54 36 105 60 73 35 97 51 116 81 32 52 32 134 -1 187 -35 57 -120 89 -181
70z m50 -24 c28 0 90 -59 111 -105 37 -81 18 -136 -61 -179 -28 -15 -53 -26
-56 -24 -8 9 -135 280 -132 283 10 10 95 33 106 30 8 -3 22 -5 32 -5z m-258
-279 c16 -9 28 -19 28 -22 0 -6 -91 -71 -95 -67 -3 4 -35 135 -35 144 0 3 17
-4 38 -17 20 -12 49 -29 64 -38z"/>
<path d="M3156 3944 c-8 -31 -150 -250 -166 -256 -12 -4 55 -50 117 -82 90
-46 203 9 234 113 24 81 -15 151 -120 214 l-59 35 -6 -24z m106 -57 c38 -35
54 -96 40 -145 -18 -60 -66 -118 -107 -132 -33 -11 -41 -9 -93 17 -38 18 -57
34 -56 45 1 9 36 71 79 137 84 131 82 129 137 78z"/>
<path d="M3464 3752 c7 -12 -15 -45 -98 -142 -43 -51 -87 -95 -98 -98 -18 -4
-17 -7 8 -33 l28 -29 10 25 c20 46 179 225 201 225 17 0 16 4 -12 30 -30 28
-50 40 -39 22z"/>
<path d="M3630 3567 c-20 -18 -260 -107 -288 -107 -26 0 -27 -6 -6 -28 14 -14
17 -14 25 0 8 14 97 54 103 47 1 -2 21 -25 44 -50 l42 -46 -21 -47 c-11 -26
-27 -50 -35 -53 -11 -4 -9 -11 9 -33 29 -37 33 -37 40 3 3 17 35 95 71 171 50
105 63 142 54 148 -18 11 -21 10 -38 -5z m-10 -31 c0 -2 -14 -35 -30 -72 l-31
-67 -44 43 -45 44 67 28 c68 27 83 31 83 24z"/>
<path d="M3715 3179 c-116 -72 -217 -138 -225 -146 -13 -14 -13 -14 7 -4 23
12 424 260 432 267 2 2 2 6 0 8 -2 3 -99 -54 -214 -125z"/>
<path d="M480 3152 c0 -5 362 -193 463 -240 4 -2 7 0 7 5 0 4 -106 61 -235
126 -129 64 -235 114 -235 109z"/>
<path d="M4030 2969 c-18 -23 -243 -92 -278 -86 -20 4 -23 1 -18 -17 3 -11 6
-24 6 -28 0 -15 20 -8 20 7 0 9 24 21 68 34 37 11 93 29 126 41 67 23 69 29
-31 -84 -35 -39 -63 -74 -63 -77 0 -3 44 -16 98 -29 53 -13 103 -26 110 -30
18 -9 -232 -82 -253 -74 -14 6 -16 4 -7 -12 5 -10 13 -41 16 -67 6 -37 10 -46
20 -38 9 7 28 5 64 -6 50 -16 52 -18 52 -54 0 -20 3 -50 6 -66 5 -27 2 -30
-47 -53 -29 -14 -57 -24 -63 -23 -8 2 -11 -44 -11 -140 0 -131 2 -144 22 -173
45 -63 151 -87 221 -50 56 29 85 92 95 209 5 49 3 57 -8 47 -17 -14 -292 13
-309 30 -16 16 6 31 166 115 151 78 171 98 105 107 -32 5 -274 75 -289 84 -4
3 -8 14 -8 24 0 16 21 26 113 54 153 47 166 49 185 34 13 -11 14 -9 8 17 -4
16 -8 31 -9 31 -1 1 -51 14 -112 29 -60 16 -112 30 -114 32 -2 1 32 42 76 91
76 83 80 89 69 114 -11 26 -11 26 -26 7z m22 -510 l70 -22 -68 -38 -69 -38 -7
37 c-9 47 -10 82 -2 82 3 0 37 -10 76 -21z m8 -299 c58 -7 107 -13 109 -15 2
-2 -2 -26 -9 -53 -18 -78 -77 -122 -161 -122 -93 0 -149 51 -149 134 0 65 13
79 65 72 22 -3 87 -10 145 -16z"/>
<path d="M734 2850 c-6 -6 -86 -18 -177 -28 -164 -16 -167 -17 -167 -40 0 -22
2 -23 43 -17 23 4 68 11 100 15 l58 6 -7 -30 c-3 -17 -11 -43 -18 -58 l-11
-28 -58 46 c-32 26 -60 44 -62 42 -3 -2 47 -46 110 -96 63 -51 115 -99 115
-107 0 -10 -10 -15 -32 -15 -56 1 -257 37 -272 49 -11 9 -15 5 -20 -20 -9 -47
-8 -51 12 -41 25 13 291 -30 302 -48 5 -8 11 -12 13 -10 8 10 15 130 7 125
-12 -8 -95 60 -93 76 1 8 7 37 14 66 l13 52 59 6 c39 5 62 4 66 -4 4 -6 12 7
18 29 10 40 6 49 -13 30z"/>
<path d="M405 2427 c-63 -29 -95 -99 -95 -206 l0 -66 156 3 c110 2 159 0 170
-9 12 -10 14 2 14 83 0 104 -14 138 -72 181 -35 26 -130 33 -173 14z m165 -45
c45 -22 71 -73 68 -132 l-3 -45 -95 -3 c-52 -2 -123 0 -158 3 l-63 7 6 41 c10
63 35 99 85 125 53 26 112 28 160 4z"/>
<path d="M485 2074 c-72 -13 -139 -22 -151 -19 -18 4 -20 1 -16 -25 4 -30 22
-42 22 -16 0 8 8 17 18 20 30 10 217 44 220 41 2 -2 -45 -56 -105 -120 -109
-118 -120 -134 -109 -162 5 -12 12 -8 34 18 15 18 80 90 146 161 135 146 139
139 -59 102z"/>
<path d="M3786 1836 c-15 -45 -29 -99 -32 -118 -5 -31 -3 -36 17 -41 39 -11
41 -8 18 22 -20 28 -21 29 -4 90 12 43 22 61 34 61 27 0 136 -37 136 -46 0
-33 -30 -103 -47 -111 -18 -8 -17 -10 16 -20 35 -11 36 -10 30 13 -9 37 15
126 33 120 7 -3 38 -13 67 -21 l54 -16 -10 -37 c-17 -60 -37 -91 -64 -98 -31
-8 -17 -27 17 -22 19 2 27 15 45 73 33 107 38 136 22 130 -19 -8 -281 72 -294
90 -8 11 -17 -4 -38 -69z"/>
<path d="M670 1889 c-11 -15 -44 -25 -125 -40 -60 -10 -114 -21 -120 -24 -17
-8 106 6 175 20 42 9 70 10 82 4 16 -8 17 -6 11 23 -3 18 -6 34 -7 34 -1 1 -8
-7 -16 -17z"/>
<path d="M685 1795 c-31 -22 -247 -87 -273 -82 -17 3 -22 1 -18 -10 4 -8 9
-26 12 -39 5 -20 8 -22 20 -9 20 19 272 98 291 91 12 -5 14 -1 9 16 -3 13 -6
29 -6 36 0 15 -10 15 -35 -3z"/>
<path d="M640 1535 c-74 -41 -141 -72 -147 -70 -16 5 -16 2 -1 -30 l11 -25 11
22 c6 12 31 33 56 48 105 61 162 91 157 83 -3 -4 -34 -74 -70 -155 -41 -91
-63 -155 -60 -167 6 -24 23 -28 23 -7 0 14 241 146 267 146 16 0 16 9 -2 40
-14 25 -14 25 -15 3 0 -15 -13 -31 -37 -46 -59 -37 -193 -108 -193 -103 0 2
34 78 75 167 41 90 75 164 75 166 0 8 -24 -4 -150 -72z"/>
<path d="M3677 1544 c-21 -43 -21 -43 1 -37 20 5 249 -109 269 -134 10 -13 14
-10 27 16 19 37 20 42 3 35 -18 -7 -252 110 -269 135 -14 20 -15 20 -31 -15z"/>
<path d="M3628 1450 c-17 -30 -17 -30 5 -25 17 5 50 -12 127 -62 l104 -68 -45
-6 c-24 -4 -107 -10 -184 -14 l-139 -8 29 -23 c17 -13 36 -22 44 -19 7 3 84
10 170 16 130 9 159 14 176 30 19 19 19 19 -2 19 -26 0 -248 147 -260 172 -7
16 -10 14 -25 -12z"/>
<path d="M917 1336 c-9 -22 -227 -176 -249 -176 -19 0 -18 -1 4 -29 22 -28 24
-28 38 -10 24 30 223 169 243 169 17 0 17 1 0 30 -19 33 -28 37 -36 16z"/>
<path d="M3590 1200 c14 -11 58 -41 97 -67 40 -27 73 -54 73 -60 0 -18 10 -16
26 5 18 24 17 31 -4 25 -11 -2 -54 20 -110 56 -91 60 -132 80 -82 41z"/>
<path d="M1023 1173 c-32 -22 -29 -30 11 -25 29 3 43 -3 80 -34 25 -21 46 -43
46 -49 -1 -13 -96 -115 -108 -115 -16 0 -65 63 -71 92 l-6 29 -29 -30 -30 -31
26 0 c15 0 42 -15 67 -37 l42 -38 -51 -50 -51 -50 -46 48 c-39 42 -44 52 -39
79 6 31 6 31 -14 13 -11 -10 -20 -23 -20 -30 0 -6 36 -46 80 -89 66 -63 80
-73 80 -55 0 24 184 219 207 219 7 0 13 3 13 8 0 8 -153 162 -160 161 -3 0
-15 -7 -27 -16z"/>
<path d="M3375 1130 c-26 -27 -27 -30 -9 -30 22 0 224 -198 224 -220 0 -8 10
-5 25 10 24 23 33 42 17 37 -14 -4 -199 173 -215 204 l-13 29 -29 -30z"/>
<path d="M3300 1051 l-25 -20 26 -1 c20 0 41 -20 102 -97 43 -53 76 -97 74
-99 -1 -2 -78 17 -171 42 -92 25 -170 43 -173 41 -2 -3 36 -59 86 -125 50 -66
91 -127 91 -136 0 -22 13 -20 35 4 18 19 17 20 -2 20 -13 0 -44 31 -91 92 -40
50 -71 93 -69 94 1 1 67 -15 147 -37 161 -43 182 -46 200 -24 10 13 9 15 -9
15 -12 0 -28 12 -38 28 -10 15 -47 65 -84 112 -36 47 -68 92 -70 99 -3 9 -11
7 -29 -8z"/>
<path d="M1212 929 c-98 -49 -127 -169 -61 -253 19 -24 130 -106 143 -106 4 0
6 7 6 15 0 20 157 255 170 255 23 0 31 -60 28 -212 -3 -145 -2 -158 15 -158 9
0 17 4 17 8 0 16 221 227 240 230 16 3 20 -2 20 -25 -1 -55 -48 -254 -64 -272
-16 -17 -15 -19 6 -25 19 -5 36 7 103 79 44 47 82 85 86 85 3 0 23 -49 44
-109 36 -100 42 -110 67 -113 30 -5 35 1 17 19 -13 13 38 270 59 296 13 14 13
17 1 17 -8 0 -25 3 -39 7 -24 6 -24 5 -8 -13 16 -18 16 -25 -3 -119 -10 -55
-19 -110 -19 -122 0 -45 -16 -21 -48 70 -18 50 -36 98 -41 105 -6 10 -28 -8
-80 -64 -39 -43 -71 -81 -71 -86 0 -4 -4 -8 -9 -8 -12 0 39 242 55 261 13 15
10 17 -33 26 -26 6 -56 14 -65 18 -14 5 -18 2 -18 -12 0 -10 -15 -34 -34 -52
l-35 -34 -58 23 c-32 13 -62 26 -66 30 -5 4 -5 35 1 69 8 55 7 61 -10 67 -11
3 -49 26 -86 51 -115 79 -156 88 -230 52z m165 -24 c23 -14 43 -32 43 -40 0
-14 -156 -255 -166 -255 -20 0 -76 58 -90 96 -23 60 -6 121 51 181 35 36 48
43 80 43 23 0 56 -10 82 -25z m221 -257 l52 -22 -52 -53 c-29 -29 -56 -53 -60
-53 -4 0 -8 34 -8 75 0 41 3 75 7 75 4 0 31 -10 61 -22z"/>
<path d="M3005 852 c-89 -49 -115 -85 -115 -160 0 -69 34 -132 84 -156 55 -26
112 -20 195 19 l74 36 -21 22 c-28 31 -134 248 -128 264 9 21 -15 15 -89 -25z
m107 -117 c80 -156 80 -159 24 -180 -96 -37 -183 18 -217 139 -14 50 6 93 59
127 26 16 54 28 62 27 8 -2 41 -53 72 -113z"/>
<path d="M2262 590 c0 -118 3 -237 8 -265 4 -32 7 36 7 185 1 129 -3 249 -7
265 -4 17 -8 -66 -8 -185z"/>
<path d="M2745 741 c-22 -11 -49 -22 -60 -25 -14 -5 -16 -9 -7 -15 9 -6 10
-20 1 -62 l-11 -55 -65 -12 c-36 -7 -67 -11 -68 -10 -1 2 -12 18 -24 36 -13
18 -26 43 -29 56 -6 20 -11 22 -40 14 -32 -9 -33 -9 -14 -26 11 -9 59 -75 108
-147 48 -72 91 -130 96 -129 4 1 13 2 19 3 6 0 8 8 5 17 -7 18 40 288 55 316
6 11 16 18 22 15 16 -4 107 -267 101 -289 -4 -14 -1 -15 31 -6 31 10 33 13 21
27 -20 24 -99 269 -93 292 6 23 3 23 -48 0z m-92 -243 c-7 -39 -15 -73 -17
-76 -2 -2 -23 24 -46 58 -23 34 -40 63 -38 66 5 4 77 22 99 23 14 1 15 -6 2
-71z"/>
</g>
</svg>
