<svg xmlns:xlink="http://www.w3.org/1999/xlink" xmlns="http://www.w3.org/2000/svg" viewBox="0 0 91 44" id="svg2103064498" width="91"  height="44" ><path d="M 76.912 33.161 C 74.19 33.161 72.103 32.517 70.652 31.228 C 69.202 29.94 68.476 28.058 68.476 25.58 L 68.476 19.219 C 68.476 16.742 69.202 14.859 70.652 13.571 C 72.103 12.283 74.19 11.638 76.912 11.638 C 79.635 11.638 81.711 12.283 83.142 13.571 C 84.593 14.859 85.318 16.742 85.318 19.219 L 85.318 25.58 C 85.318 28.058 84.593 29.94 83.142 31.228 C 81.711 32.517 79.635 33.161 76.912 33.161 Z M 76.912 30.396 C 78.482 30.396 79.684 29.99 80.519 29.177 C 81.373 28.345 81.801 27.146 81.801 25.58 L 81.801 19.219 C 81.801 17.653 81.373 16.464 80.519 15.652 C 79.684 14.819 78.482 14.403 76.912 14.403 C 75.322 14.403 74.1 14.819 73.246 15.652 C 72.411 16.464 71.994 17.653 71.994 19.219 L 71.994 25.58 C 71.994 27.146 72.411 28.345 73.246 29.177 C 74.1 29.99 75.322 30.396 76.912 30.396 Z" fill="#EDECDA"></path><path d="M 63.373 11.995 L 63.373 28.493 C 63.373 29.92 63.075 31 62.479 31.733 C 61.902 32.447 60.978 32.804 59.707 32.804 L 57.233 32.804 L 49.87 17.494 L 49.87 32.804 L 46.561 32.804 L 46.561 11.995 L 50.585 11.995 L 59.081 29.801 L 59.23 29.801 C 59.548 29.801 59.766 29.672 59.885 29.415 C 60.005 29.137 60.064 28.662 60.064 27.988 L 60.064 11.995 Z" fill="#EDECDA"></path><path d="M 36.952 27.334 L 28.397 27.334 L 26.758 32.804 L 23.24 32.804 L 28.457 15.949 C 28.794 14.839 29.142 13.977 29.5 13.363 C 29.878 12.748 30.315 12.312 30.811 12.055 C 31.308 11.777 31.934 11.638 32.689 11.638 C 33.425 11.638 34.041 11.777 34.538 12.055 C 35.034 12.312 35.472 12.748 35.849 13.363 C 36.227 13.977 36.584 14.839 36.922 15.949 L 42.109 32.804 L 38.592 32.804 Z M 36.177 24.718 L 33.584 16.008 C 33.464 15.612 33.335 15.325 33.196 15.146 C 33.077 14.968 32.908 14.879 32.689 14.879 C 32.471 14.879 32.292 14.968 32.153 15.146 C 32.014 15.325 31.885 15.612 31.765 16.008 L 29.172 24.718 Z" fill="#EDECDA"></path><path d="M 13.769 14.76 L 7.301 14.76 L 7.301 11.995 L 23.725 11.995 L 23.725 14.76 L 17.286 14.76 L 17.286 32.804 L 13.769 32.804 Z" fill="#EDECDA"></path></svg>