<svg xmlns:xlink="http://www.w3.org/1999/xlink" xmlns="http://www.w3.org/2000/svg" viewBox="0 0 93 40" id="svg1415962918" width="93"  height="40" ><path d="M 84.896 18.941 C 85.442 17.939 85.946 17.062 86.408 16.393 C 86.786 15.85 87.122 15.767 87.416 16.143 C 88.046 16.894 88.382 18.691 87.374 20.779 C 86.45 22.659 84.35 25.791 83.342 28.005 C 82.292 30.344 82.25 32.14 83.678 32.057 C 85.4 31.973 87.71 29.133 89.18 26.251 C 89.389 25.875 89.683 25.833 89.851 26.209 C 90.019 26.585 90.019 27.629 89.474 28.799 C 88.382 31.096 85.736 33.393 83.426 33.268 C 81.158 33.143 79.983 31.806 79.983 29.843 C 78.639 31.556 76.749 33.101 74.733 33.101 C 70.828 33.101 70.03 27.796 73.515 22.742 C 76.917 17.813 80.234 15.934 82.334 15.934 C 84.14 15.934 84.98 17.312 84.896 18.941 Z M 81.242 25.415 C 83.888 20.821 84.266 18.231 83.048 18.106 C 81.704 17.98 78.639 20.695 76.329 24.413 C 74.103 28.005 73.557 31.681 75.195 31.723 C 76.917 31.764 79.101 29.091 81.242 25.415 Z" fill="var(--token-3ea41072-e4a3-4fbd-afee-986fdaa2559f, rgb(0, 0, 0)) /* {&quot;name&quot;:&quot;Black&quot;} */"></path><path d="M 60.119 29.133 C 58.65 31.096 56.424 33.226 54.072 33.059 C 51.091 32.85 51.006 29.76 51.93 27.003 C 52.854 24.246 54.996 20.152 57.726 16.351 C 58.062 15.892 58.482 15.934 58.818 16.31 C 59.742 17.688 59.532 19.568 58.02 21.949 C 56.466 24.413 55.626 26.084 54.744 28.089 C 53.862 30.135 53.988 31.639 54.954 31.723 C 56.592 31.848 58.902 28.924 61.169 25.29 C 63.815 21.03 65.033 18.148 66.377 16.351 C 66.797 15.767 67.091 15.683 67.427 16.101 C 68.057 16.853 68.393 18.691 67.385 20.779 C 66.461 22.659 64.361 25.791 63.395 27.922 C 62.303 30.303 62.471 32.057 63.983 31.973 C 65.747 31.89 67.889 29.133 69.527 26.209 C 69.736 25.833 70.114 25.791 70.282 26.167 C 70.45 26.501 70.492 27.629 69.904 28.799 C 68.687 31.138 66.083 33.268 63.605 33.268 C 60.875 33.268 59.784 31.556 60.119 29.133 Z" fill="var(--token-3ea41072-e4a3-4fbd-afee-986fdaa2559f, rgb(0, 0, 0)) /* {&quot;name&quot;:&quot;Black&quot;} */"></path><path d="M 40.19 20.236 C 42.079 18.231 44.935 15.934 46.321 16.143 C 47.707 16.351 49.009 18.398 47.959 20.57 C 47.077 22.408 45.019 25.499 44.053 27.671 C 42.961 30.094 43.213 32.057 44.725 31.973 C 46.447 31.89 48.505 29.133 50.101 26.209 C 50.31 25.833 50.605 25.833 50.814 26.167 C 51.108 26.627 51.024 27.587 50.437 28.799 C 49.303 31.138 46.657 33.268 44.221 33.268 C 40.652 33.268 39.812 30.678 41.03 27.044 C 42.415 22.951 46.111 18.523 45.355 18.189 C 44.935 18.022 42.499 19.192 39.812 22.116 C 37.334 24.789 35.486 28.799 33.68 32.725 C 33.512 33.101 33.26 33.268 32.882 32.892 C 32.043 32.057 31.791 30.678 32.463 28.59 C 33.302 25.958 36.536 20.152 39.182 16.268 C 39.476 15.808 39.812 15.85 40.064 16.268 C 40.694 17.312 40.652 18.732 40.19 20.236 Z" fill="var(--token-3ea41072-e4a3-4fbd-afee-986fdaa2559f, rgb(0, 0, 0)) /* {&quot;name&quot;:&quot;Black&quot;} */"></path><path d="M 32.341 13.344 C 32.887 14.43 32.593 15.558 32.047 16.143 C 31.501 16.728 30.325 16.602 29.696 15.516 C 29.024 14.389 29.234 13.135 29.906 12.425 C 30.577 11.715 31.795 12.216 32.341 13.344 Z M 25.496 33.143 C 22.304 33.143 21.506 30.47 22.682 27.045 C 23.732 23.996 26.504 19.067 28.058 16.895 C 28.436 16.393 28.73 16.268 29.066 16.644 C 29.696 17.312 30.031 19.109 29.024 21.197 C 28.142 23.035 26.378 25.875 25.496 27.964 C 24.488 30.386 24.572 32.015 25.916 31.932 C 27.806 31.848 30.116 29.091 31.375 26.209 C 31.585 25.833 31.879 25.875 32.047 26.209 C 32.383 26.878 32.257 27.755 31.753 28.799 C 30.493 31.389 27.848 33.143 25.496 33.143 Z" fill="var(--token-3ea41072-e4a3-4fbd-afee-986fdaa2559f, rgb(0, 0, 0)) /* {&quot;name&quot;:&quot;Black&quot;} */"></path><path d="M 9.554 23.745 C 8.084 26.543 6.615 29.676 5.229 32.892 C 5.061 33.268 4.809 33.352 4.557 33.018 C 3.927 32.14 3.591 30.929 4.347 28.423 C 5.397 24.872 12.62 10.713 15.182 7.162 C 15.56 6.661 15.853 6.703 16.19 7.246 C 16.735 8.206 16.945 10.211 15.224 13.344 C 14.132 15.307 12.746 17.772 11.234 20.57 C 16.735 16.477 22.615 11.256 26.604 6.953 C 26.898 6.619 27.234 6.661 27.402 7.037 C 27.654 7.956 27.612 9.376 26.1 11.423 C 24.211 13.971 18.499 19.067 12.83 23.035 C 14.174 25.165 15.308 27.086 15.812 28.256 C 16.819 30.637 16.442 32.099 15.812 32.892 C 15.56 33.185 15.266 33.185 15.056 32.809 C 13.46 29.718 11.612 26.71 9.554 23.745 Z" fill="var(--token-3ea41072-e4a3-4fbd-afee-986fdaa2559f, rgb(0, 0, 0)) /* {&quot;name&quot;:&quot;Black&quot;} */"></path></svg>