<svg xmlns:xlink="http://www.w3.org/1999/xlink" xmlns="http://www.w3.org/2000/svg" viewBox="0 0 129 41" id="svg3478811527" width="129"  height="41" ><path d="M 31.923 14.432 C 31.358 13.117 30.609 11.891 29.701 10.793 C 28.358 9.12 26.682 7.756 24.784 6.79 C 22.885 5.824 20.807 5.278 18.686 5.188 C 16.565 5.098 14.449 5.465 12.478 6.266 C 10.507 7.068 8.725 8.285 7.249 9.837 C 5.774 11.389 4.638 13.241 3.917 15.272 C 3.196 17.303 2.906 19.466 3.066 21.619 C 3.226 23.772 3.833 25.866 4.846 27.763 C 5.859 29.661 7.256 31.318 8.945 32.627 C 10.028 33.484 11.225 34.18 12.5 34.695 C 14.288 35.44 16.202 35.824 18.134 35.825 C 22.122 35.816 25.944 34.199 28.762 31.329 C 31.581 28.458 33.165 24.568 33.168 20.512 C 33.17 18.419 32.747 16.349 31.923 14.432 Z M 18.123 8.295 C 19.858 8.295 21.572 8.681 23.145 9.425 C 22.761 9.594 22.358 9.712 21.945 9.776 C 20.586 9.976 19.326 10.618 18.355 11.605 C 17.384 12.593 16.753 13.874 16.556 15.257 C 16.47 16.032 16.123 16.754 15.574 17.299 C 15.026 17.845 14.309 18.181 13.545 18.252 C 12.185 18.452 10.926 19.094 9.955 20.082 C 8.984 21.069 8.352 22.35 8.156 23.733 C 8.089 24.47 7.78 25.163 7.278 25.699 C 6.412 23.838 6.023 21.785 6.147 19.73 C 6.271 17.674 6.904 15.685 7.988 13.945 C 9.071 12.206 10.57 10.774 12.344 9.782 C 14.118 8.79 16.109 8.271 18.134 8.272 Z M 8.934 28.423 C 9.067 28.299 9.2 28.186 9.334 28.05 C 10.322 27.075 10.957 25.788 11.134 24.4 C 11.205 23.619 11.548 22.89 12.1 22.343 C 12.632 21.78 13.347 21.434 14.111 21.371 C 15.471 21.171 16.73 20.529 17.701 19.541 C 18.673 18.553 19.304 17.272 19.5 15.89 C 19.549 15.073 19.893 14.304 20.467 13.731 C 21.012 13.179 21.734 12.846 22.501 12.793 C 23.749 12.618 24.914 12.054 25.834 11.177 C 26.881 12.061 27.769 13.124 28.456 14.319 C 28.414 14.377 28.366 14.43 28.312 14.477 C 27.781 15.045 27.067 15.398 26.301 15.471 C 24.94 15.668 23.679 16.309 22.707 17.297 C 21.735 18.286 21.105 19.569 20.912 20.953 C 20.833 21.731 20.493 22.457 19.948 23.009 C 19.404 23.561 18.688 23.905 17.923 23.981 C 16.559 24.18 15.295 24.821 14.318 25.808 C 13.342 26.796 12.704 28.077 12.5 29.463 C 12.441 30.015 12.254 30.545 11.956 31.011 C 10.816 30.322 9.795 29.448 8.934 28.423 Z M 18.123 32.785 C 16.995 32.786 15.873 32.627 14.789 32.311 C 15.16 31.608 15.401 30.842 15.5 30.05 C 15.578 29.274 15.917 28.549 16.459 27.997 C 17.002 27.445 17.715 27.101 18.478 27.022 C 19.84 26.824 21.101 26.183 22.075 25.195 C 23.048 24.207 23.681 22.925 23.878 21.54 C 23.956 20.764 24.295 20.039 24.838 19.487 C 25.38 18.935 26.093 18.591 26.856 18.512 C 27.881 18.376 28.857 17.988 29.701 17.381 C 30.169 19.187 30.225 21.078 29.863 22.909 C 29.501 24.74 28.732 26.463 27.614 27.945 C 26.496 29.426 25.06 30.628 23.414 31.457 C 21.769 32.287 19.959 32.721 18.123 32.729 Z" fill="var(--token-3ea41072-e4a3-4fbd-afee-986fdaa2559f, rgb(0, 0, 0)) /* {&quot;name&quot;:&quot;Black&quot;} */"></path><path d="M 116.604 11.686 L 116.604 29.336 L 113.02 29.336 L 113.02 11.686 Z M 124.097 22.334 L 116.604 22.334 L 116.604 18.689 L 124.097 18.666 Z M 125.509 15.331 L 116.604 15.331 L 116.604 11.686 L 125.509 11.686 Z M 125.509 29.336 L 116.604 29.336 L 116.604 25.691 L 125.509 25.669 Z" fill="var(--token-3ea41072-e4a3-4fbd-afee-986fdaa2559f, rgb(0, 0, 0)) /* {&quot;name&quot;:&quot;Black&quot;} */"></path><path d="M 105.301 11.664 L 105.301 29.336 L 101.716 29.336 L 101.716 11.664 Z M 110.839 15.309 L 96.178 15.309 L 96.178 11.686 L 110.839 11.664 Z" fill="var(--token-3ea41072-e4a3-4fbd-afee-986fdaa2559f, rgb(0, 0, 0)) /* {&quot;name&quot;:&quot;Black&quot;} */"></path><path d="M 88.642 11.664 L 81.17 29.336 L 77.13 29.336 L 84.602 11.664 Z M 88.664 11.664 L 96.179 29.336 L 92.139 29.336 L 84.624 11.664 Z M 91.705 26.067 L 81.387 26.067 L 81.387 22.311 L 91.705 22.289 Z" fill="var(--token-3ea41072-e4a3-4fbd-afee-986fdaa2559f, rgb(0, 0, 0)) /* {&quot;name&quot;:&quot;Black&quot;} */"></path><path d="M 59.079 11.664 L 66.421 11.664 C 68.839 11.664 70.866 12.061 72.502 12.857 C 74.139 13.652 74.957 15.206 74.957 17.518 C 74.957 18.887 74.522 19.97 73.654 20.765 C 72.799 21.546 71.735 22.091 70.461 22.4 C 69.201 22.694 67.854 22.842 66.421 22.842 L 62.75 22.842 L 62.75 29.314 L 62.75 29.336 L 59.079 29.336 Z M 67.203 21.605 L 71.308 21.605 L 74.587 29.336 L 70.482 29.336 Z M 66.421 19.285 C 67.565 19.285 68.441 19.226 69.049 19.108 C 69.671 18.976 70.106 18.77 70.352 18.49 C 70.598 18.21 70.721 17.834 70.721 17.363 C 70.721 16.892 70.598 16.516 70.352 16.236 C 70.106 15.957 69.671 15.75 69.049 15.618 C 68.441 15.485 67.565 15.419 66.421 15.419 L 62.75 15.419 L 62.75 19.285 Z" fill="var(--token-3ea41072-e4a3-4fbd-afee-986fdaa2559f, rgb(0, 0, 0)) /* {&quot;name&quot;:&quot;Black&quot;} */"></path><path d="M 56.899 11.664 L 45.235 26.951 L 45.061 21.87 L 52.533 11.664 Z M 45.822 11.664 L 45.822 29.336 L 42.238 29.336 L 42.238 11.664 Z M 46.908 21.693 L 49.166 19.152 L 56.899 29.336 L 52.533 29.336 Z" fill="var(--token-3ea41072-e4a3-4fbd-afee-986fdaa2559f, rgb(0, 0, 0)) /* {&quot;name&quot;:&quot;Black&quot;} */"></path></svg>