<svg xmlns:xlink="http://www.w3.org/1999/xlink" xmlns="http://www.w3.org/2000/svg" viewBox="0 0 130 36" id="svg891056551" width="130"  height="36" ><g transform="translate(0.138 0.134)" id="ss891056551_1"><path d="M -0 38.118 L -0 0 L 129.391 0 L 129.391 38.118 Z" fill="#000000" fill-opacity="0"></path><path d="M 22.26 17.431 C 21.901 17.78 21.626 18.202 21.454 18.667 C 21.282 19.131 21.219 19.626 21.268 20.117 L 21.251 20.101 C 21.301 20.678 21.221 21.26 21.015 21.804 C 20.809 22.349 20.483 22.843 20.059 23.253 C 19.635 23.663 19.123 23.979 18.56 24.178 C 17.997 24.377 17.396 24.455 16.798 24.406 L 16.815 24.423 C 16.1 24.358 15.383 24.509 14.759 24.853 C 14.136 25.198 13.638 25.72 13.333 26.348 C 13.028 26.977 12.931 27.68 13.055 28.364 C 13.179 29.048 13.518 29.678 14.026 30.168 C 14.534 30.659 15.186 30.986 15.893 31.105 C 16.6 31.225 17.328 31.13 17.977 30.834 C 18.627 30.539 19.166 30.057 19.522 29.454 C 19.878 28.851 20.033 28.157 19.966 27.466 L 19.984 27.483 C 19.933 26.905 20.014 26.323 20.22 25.779 C 20.426 25.234 20.752 24.74 21.176 24.33 C 21.6 23.92 22.111 23.604 22.674 23.405 C 23.238 23.206 23.839 23.128 24.436 23.177 L 24.418 23.161 C 25.002 23.211 25.59 23.119 26.127 22.891 C 26.664 22.664 27.133 22.309 27.49 21.86 C 27.848 21.411 28.082 20.882 28.172 20.322 C 28.261 19.762 28.203 19.189 28.003 18.656 C 27.803 18.123 27.466 17.648 27.026 17.275 C 26.585 16.901 26.054 16.641 25.481 16.519 C 24.909 16.397 24.314 16.416 23.751 16.576 C 23.189 16.735 22.677 17.029 22.263 17.431 Z" fill="#EDECDA"></path><path d="M 15.26 22.258 L 15.242 22.241 C 15.75 22.291 16.263 22.231 16.743 22.065 C 17.224 21.899 17.661 21.632 18.022 21.284 C 18.383 20.935 18.659 20.513 18.831 20.048 C 19.003 19.583 19.065 19.087 19.015 18.596 L 19.033 18.613 C 18.982 18.035 19.063 17.454 19.269 16.909 C 19.475 16.365 19.801 15.87 20.225 15.46 C 20.649 15.05 21.16 14.735 21.724 14.536 C 22.287 14.336 22.888 14.258 23.486 14.307 L 23.467 14.291 C 24.182 14.356 24.9 14.206 25.524 13.861 C 26.147 13.517 26.646 12.995 26.951 12.367 C 27.257 11.739 27.354 11.035 27.231 10.351 C 27.107 9.668 26.769 9.037 26.261 8.546 C 25.753 8.056 25.101 7.728 24.394 7.609 C 23.687 7.489 22.959 7.584 22.309 7.879 C 21.659 8.174 21.12 8.656 20.764 9.259 C 20.408 9.862 20.253 10.556 20.32 11.247 L 20.303 11.23 C 20.353 11.808 20.273 12.389 20.067 12.934 C 19.861 13.478 19.535 13.973 19.111 14.383 C 18.687 14.793 18.175 15.108 17.612 15.307 C 17.049 15.506 16.448 15.584 15.85 15.535 L 15.867 15.553 C 15.359 15.503 14.846 15.564 14.366 15.729 C 13.885 15.895 13.448 16.162 13.087 16.511 C 12.726 16.859 12.45 17.282 12.278 17.746 C 12.106 18.211 12.044 18.707 12.094 19.198 L 12.077 19.181 C 12.128 19.759 12.047 20.34 11.841 20.885 C 11.635 21.429 11.309 21.924 10.885 22.334 C 10.461 22.744 9.949 23.059 9.386 23.258 C 8.823 23.457 8.222 23.536 7.624 23.487 L 7.642 23.503 C 6.927 23.439 6.209 23.588 5.585 23.933 C 4.962 24.277 4.463 24.799 4.158 25.427 C 3.852 26.055 3.755 26.759 3.878 27.443 C 4.002 28.127 4.341 28.757 4.848 29.248 C 5.356 29.739 6.008 30.066 6.715 30.186 C 7.422 30.305 8.15 30.211 8.8 29.915 C 9.45 29.62 9.989 29.138 10.345 28.535 C 10.701 27.932 10.856 27.238 10.789 26.547 L 10.807 26.563 C 10.757 25.986 10.837 25.404 11.043 24.86 C 11.249 24.315 11.575 23.821 11.999 23.411 C 12.423 23.001 12.935 22.685 13.498 22.486 C 14.061 22.287 14.662 22.209 15.26 22.258 Z" fill="#EDECDA"></path><path d="M 8.904 20.417 C 9.264 20.068 9.539 19.646 9.711 19.181 C 9.882 18.717 9.945 18.221 9.896 17.731 L 9.914 17.747 C 9.863 17.169 9.944 16.588 10.15 16.043 C 10.356 15.499 10.682 15.004 11.107 14.594 C 11.531 14.184 12.043 13.868 12.606 13.669 C 13.169 13.47 13.771 13.393 14.369 13.442 L 14.35 13.425 C 15.065 13.49 15.783 13.34 16.406 12.996 C 17.029 12.652 17.527 12.13 17.833 11.502 C 18.138 10.874 18.235 10.17 18.112 9.487 C 17.988 8.803 17.65 8.173 17.142 7.682 C 16.635 7.192 15.983 6.864 15.276 6.745 C 14.569 6.625 13.841 6.72 13.192 7.015 C 12.543 7.31 12.003 7.792 11.647 8.394 C 11.291 8.997 11.136 9.691 11.203 10.382 L 11.186 10.365 C 11.236 10.943 11.156 11.524 10.95 12.069 C 10.744 12.613 10.417 13.108 9.993 13.518 C 9.569 13.928 9.058 14.243 8.495 14.443 C 7.932 14.642 7.33 14.72 6.733 14.671 L 6.75 14.687 C 6.166 14.637 5.579 14.729 5.042 14.957 C 4.505 15.184 4.036 15.539 3.679 15.988 C 3.321 16.437 3.087 16.967 2.997 17.527 C 2.908 18.087 2.966 18.66 3.166 19.192 C 3.367 19.725 3.703 20.2 4.144 20.574 C 4.585 20.947 5.116 21.207 5.688 21.329 C 6.261 21.451 6.856 21.432 7.418 21.272 C 7.981 21.113 8.493 20.819 8.906 20.417 Z" fill="#EDECDA"></path><path d="M 124.539 12.336 C 124.165 12.336 123.853 12.309 123.606 12.256 C 123.368 12.203 123.171 12.11 123.015 11.977 C 122.868 11.844 122.763 11.663 122.699 11.433 C 122.644 11.202 122.617 10.906 122.617 10.543 C 122.617 10.179 122.644 9.883 122.699 9.653 C 122.763 9.413 122.868 9.223 123.015 9.081 C 123.171 8.94 123.368 8.842 123.606 8.789 C 123.853 8.736 124.165 8.709 124.539 8.709 C 124.915 8.709 125.222 8.736 125.461 8.789 C 125.707 8.842 125.904 8.94 126.05 9.081 C 126.197 9.223 126.298 9.413 126.354 9.653 C 126.408 9.883 126.435 10.179 126.435 10.543 C 126.435 10.906 126.408 11.202 126.354 11.433 C 126.298 11.663 126.197 11.844 126.05 11.977 C 125.904 12.11 125.707 12.203 125.461 12.256 C 125.222 12.309 124.915 12.336 124.539 12.336 Z M 122.905 14.714 L 126.175 14.714 L 126.175 28.729 L 122.905 28.729 Z" fill="#EDECDA"></path><path d="M 105.543 14.714 L 108.799 14.714 L 108.799 24.265 C 108.799 24.637 108.822 24.952 108.868 25.209 C 108.923 25.465 109.033 25.678 109.197 25.846 C 109.362 26.006 109.6 26.125 109.912 26.205 C 110.223 26.276 110.64 26.311 111.162 26.311 C 111.711 26.311 112.21 26.284 112.659 26.231 C 113.108 26.169 113.492 26.103 113.813 26.032 C 114.188 25.943 114.527 25.846 114.829 25.74 L 114.829 14.714 L 118.085 14.714 L 118.085 28.729 L 115.695 28.729 L 115.31 27.693 C 114.797 27.967 114.243 28.211 113.648 28.423 C 113.135 28.6 112.54 28.764 111.862 28.915 C 111.194 29.065 110.484 29.141 109.733 29.141 C 108.314 29.141 107.26 28.778 106.574 28.051 C 105.887 27.316 105.543 26.174 105.543 24.624 Z" fill="#EDECDA"></path><path d="M 90.625 26.032 C 91.028 26.121 91.476 26.201 91.971 26.271 C 92.392 26.333 92.887 26.386 93.454 26.431 C 94.031 26.475 94.663 26.497 95.35 26.497 C 96.101 26.497 96.696 26.471 97.136 26.417 C 97.575 26.364 97.905 26.276 98.125 26.152 C 98.354 26.019 98.5 25.842 98.564 25.62 C 98.628 25.399 98.66 25.12 98.66 24.783 C 98.66 24.606 98.647 24.447 98.619 24.305 C 98.601 24.155 98.546 24.022 98.454 23.907 C 98.372 23.783 98.244 23.681 98.07 23.601 C 97.905 23.513 97.681 23.446 97.397 23.402 L 94.361 22.857 C 93.665 22.742 93.079 22.587 92.603 22.392 C 92.126 22.197 91.742 21.941 91.449 21.622 C 91.165 21.294 90.959 20.896 90.831 20.426 C 90.712 19.948 90.652 19.368 90.652 18.686 C 90.652 17.216 91.156 16.122 92.163 15.405 C 93.18 14.679 94.626 14.315 96.504 14.315 C 97.163 14.315 97.768 14.355 98.317 14.435 C 98.876 14.506 99.361 14.59 99.773 14.687 C 100.249 14.794 100.684 14.913 101.078 15.046 L 101.078 17.304 C 100.638 17.233 100.181 17.172 99.704 17.118 C 99.292 17.074 98.83 17.03 98.317 16.985 C 97.813 16.941 97.301 16.919 96.779 16.919 C 96.183 16.919 95.689 16.946 95.295 16.999 C 94.901 17.043 94.59 17.123 94.361 17.238 C 94.132 17.353 93.972 17.504 93.88 17.69 C 93.789 17.867 93.743 18.093 93.743 18.367 C 93.743 18.58 93.761 18.77 93.798 18.938 C 93.834 19.107 93.912 19.257 94.031 19.39 C 94.15 19.523 94.315 19.638 94.526 19.735 C 94.736 19.833 95.02 19.913 95.377 19.974 L 98.523 20.546 C 99.137 20.661 99.654 20.811 100.075 20.997 C 100.506 21.183 100.854 21.436 101.119 21.755 C 101.385 22.073 101.577 22.481 101.696 22.977 C 101.815 23.464 101.875 24.066 101.875 24.783 C 101.875 25.465 101.802 26.077 101.655 26.617 C 101.518 27.157 101.234 27.613 100.803 27.985 C 100.373 28.357 99.764 28.64 98.976 28.835 C 98.189 29.039 97.149 29.141 95.858 29.141 C 95.144 29.141 94.471 29.092 93.839 28.995 C 93.207 28.906 92.653 28.804 92.177 28.689 C 91.618 28.556 91.101 28.406 90.625 28.237 Z" fill="#EDECDA"></path><path d="M 76.394 26.032 C 76.797 26.121 77.245 26.201 77.74 26.271 C 78.161 26.333 78.656 26.386 79.224 26.431 C 79.8 26.475 80.432 26.497 81.119 26.497 C 81.87 26.497 82.465 26.471 82.905 26.417 C 83.344 26.364 83.674 26.276 83.894 26.152 C 84.123 26.019 84.269 25.842 84.333 25.62 C 84.398 25.399 84.43 25.12 84.43 24.783 C 84.43 24.606 84.416 24.447 84.388 24.305 C 84.37 24.155 84.315 24.022 84.224 23.907 C 84.141 23.783 84.013 23.681 83.839 23.601 C 83.674 23.513 83.45 23.446 83.166 23.402 L 80.13 22.857 C 79.434 22.742 78.848 22.587 78.372 22.392 C 77.896 22.197 77.511 21.941 77.218 21.622 C 76.934 21.294 76.728 20.896 76.6 20.426 C 76.481 19.948 76.421 19.368 76.421 18.686 C 76.421 17.216 76.925 16.122 77.932 15.405 C 78.949 14.679 80.396 14.315 82.273 14.315 C 82.932 14.315 83.537 14.355 84.086 14.435 C 84.645 14.506 85.13 14.59 85.542 14.687 C 86.018 14.794 86.453 14.913 86.847 15.046 L 86.847 17.304 C 86.408 17.233 85.95 17.172 85.474 17.118 C 85.061 17.074 84.599 17.03 84.086 16.985 C 83.583 16.941 83.07 16.919 82.548 16.919 C 81.953 16.919 81.458 16.946 81.064 16.999 C 80.67 17.043 80.359 17.123 80.13 17.238 C 79.901 17.353 79.741 17.504 79.649 17.69 C 79.558 17.867 79.512 18.093 79.512 18.367 C 79.512 18.58 79.53 18.77 79.567 18.938 C 79.604 19.107 79.681 19.257 79.8 19.39 C 79.919 19.523 80.084 19.638 80.295 19.735 C 80.506 19.833 80.789 19.913 81.147 19.974 L 84.292 20.546 C 84.906 20.661 85.423 20.811 85.844 20.997 C 86.275 21.183 86.623 21.436 86.888 21.755 C 87.154 22.073 87.346 22.481 87.465 22.977 C 87.584 23.464 87.644 24.066 87.644 24.783 C 87.644 25.465 87.571 26.077 87.424 26.617 C 87.287 27.157 87.003 27.613 86.573 27.985 C 86.142 28.357 85.533 28.64 84.746 28.835 C 83.958 29.039 82.919 29.141 81.627 29.141 C 80.913 29.141 80.24 29.092 79.608 28.995 C 78.976 28.906 78.422 28.804 77.946 28.689 C 77.387 28.556 76.87 28.406 76.394 28.237 Z" fill="#EDECDA"></path><path d="M 60.145 24.757 C 60.145 23.96 60.264 23.287 60.502 22.738 C 60.749 22.189 61.079 21.746 61.491 21.409 C 61.912 21.073 62.402 20.829 62.961 20.679 C 63.528 20.528 64.137 20.453 64.788 20.453 C 65.447 20.453 66.042 20.488 66.573 20.559 C 67.113 20.63 67.581 20.71 67.974 20.798 C 68.423 20.895 68.831 21.006 69.197 21.13 L 69.197 19.828 C 69.197 19.501 69.183 19.226 69.156 19.005 C 69.137 18.774 69.101 18.575 69.046 18.407 C 68.991 18.239 68.913 18.097 68.812 17.982 C 68.721 17.867 68.606 17.756 68.469 17.65 C 68.176 17.446 67.773 17.3 67.26 17.211 C 66.747 17.123 66.079 17.078 65.255 17.078 C 64.733 17.078 64.224 17.096 63.73 17.132 C 63.244 17.158 62.809 17.194 62.425 17.238 C 61.976 17.282 61.55 17.331 61.147 17.384 L 61.147 15.179 C 61.514 15.037 61.967 14.909 62.507 14.794 C 62.965 14.696 63.537 14.608 64.224 14.528 C 64.911 14.439 65.726 14.395 66.669 14.395 C 67.301 14.395 67.86 14.422 68.345 14.475 C 68.84 14.519 69.275 14.599 69.65 14.714 C 70.026 14.829 70.355 14.98 70.639 15.166 C 70.932 15.352 71.193 15.582 71.422 15.856 C 71.615 16.087 71.775 16.33 71.903 16.587 C 72.031 16.844 72.137 17.145 72.219 17.49 C 72.301 17.836 72.356 18.234 72.384 18.686 C 72.42 19.129 72.439 19.647 72.439 20.24 L 72.439 28.729 L 69.678 28.729 L 69.43 27.693 C 69.027 27.967 68.583 28.211 68.098 28.423 C 67.677 28.6 67.182 28.764 66.614 28.915 C 66.056 29.065 65.438 29.141 64.76 29.141 C 63.936 29.141 63.231 29.061 62.645 28.902 C 62.059 28.742 61.578 28.49 61.202 28.144 C 60.836 27.799 60.566 27.347 60.392 26.789 C 60.227 26.231 60.145 25.554 60.145 24.757 Z M 63.483 24.757 C 63.483 25.147 63.533 25.457 63.634 25.687 C 63.734 25.917 63.881 26.094 64.073 26.218 C 64.266 26.333 64.499 26.409 64.774 26.444 C 65.058 26.479 65.378 26.497 65.735 26.497 C 66.202 26.497 66.642 26.457 67.054 26.378 C 67.475 26.289 67.846 26.196 68.167 26.099 C 68.533 25.983 68.876 25.851 69.197 25.7 L 69.197 23.269 C 68.904 23.216 68.588 23.167 68.249 23.123 C 67.956 23.079 67.622 23.043 67.246 23.017 C 66.88 22.981 66.491 22.963 66.079 22.963 C 65.621 22.963 65.227 22.986 64.897 23.03 C 64.577 23.065 64.311 23.149 64.101 23.282 C 63.89 23.406 63.734 23.588 63.634 23.827 C 63.533 24.057 63.483 24.367 63.483 24.757 Z" fill="#EDECDA"></path><path d="M 37.08 9.772 L 42.794 9.772 L 46.421 21.197 L 46.531 21.197 L 50.281 9.772 L 55.899 9.772 L 55.899 28.729 L 52.616 28.729 L 52.616 12.734 L 52.534 12.734 L 52.163 13.93 C 52.062 14.266 51.952 14.621 51.833 14.993 C 51.714 15.356 51.609 15.67 51.517 15.936 L 48.99 23.588 L 44.058 23.588 L 41.476 15.883 C 41.384 15.617 41.279 15.307 41.16 14.953 C 41.041 14.59 40.931 14.244 40.83 13.917 C 40.711 13.536 40.587 13.142 40.459 12.734 L 40.377 12.734 L 40.377 28.729 L 37.08 28.729 Z" fill="#EDECDA"></path></g></svg>