<svg xmlns:xlink="http://www.w3.org/1999/xlink" xmlns="http://www.w3.org/2000/svg" viewBox="0 0 128 42" id="svg1317082971" width="128"  height="42" ><path d="M 31.676 14.784 C 31.115 13.437 30.372 12.181 29.471 11.056 C 28.138 9.343 26.475 7.946 24.592 6.956 C 22.708 5.966 20.646 5.407 18.541 5.314 C 16.437 5.222 14.337 5.598 12.381 6.419 C 10.425 7.24 8.657 8.487 7.193 10.077 C 5.729 11.667 4.602 13.564 3.887 15.645 C 3.171 17.725 2.884 19.941 3.043 22.146 C 3.201 24.352 3.803 26.497 4.809 28.441 C 5.814 30.384 7.2 32.082 8.875 33.423 C 9.95 34.3 11.138 35.014 12.403 35.541 C 14.177 36.305 16.076 36.698 17.993 36.699 C 21.951 36.69 25.743 35.034 28.539 32.093 C 31.336 29.152 32.908 25.168 32.91 21.012 C 32.913 18.869 32.493 16.748 31.676 14.784 Z M 17.982 8.497 C 19.704 8.497 21.405 8.892 22.966 9.655 C 22.585 9.828 22.185 9.948 21.775 10.014 C 20.426 10.219 19.177 10.877 18.213 11.889 C 17.249 12.9 16.623 14.212 16.428 15.629 C 16.342 16.423 15.998 17.162 15.454 17.721 C 14.909 18.28 14.198 18.625 13.44 18.697 C 12.091 18.902 10.841 19.559 9.878 20.571 C 8.914 21.583 8.288 22.895 8.092 24.312 C 8.026 25.067 7.719 25.777 7.221 26.326 C 6.362 24.42 5.976 22.316 6.099 20.211 C 6.223 18.106 6.851 16.067 7.926 14.286 C 9.001 12.504 10.488 11.037 12.248 10.021 C 14.008 9.005 15.985 8.473 17.993 8.474 Z M 8.864 29.116 C 8.997 28.989 9.129 28.873 9.261 28.734 C 10.242 27.736 10.872 26.417 11.047 24.995 C 11.119 24.195 11.459 23.448 12.007 22.888 C 12.534 22.311 13.244 21.957 14.002 21.892 C 15.351 21.687 16.6 21.03 17.564 20.018 C 18.528 19.006 19.154 17.694 19.349 16.277 C 19.397 15.441 19.739 14.653 20.309 14.066 C 20.849 13.501 21.565 13.16 22.326 13.105 C 23.565 12.926 24.721 12.348 25.634 11.45 C 26.673 12.355 27.554 13.444 28.236 14.668 C 28.194 14.727 28.146 14.782 28.092 14.83 C 27.566 15.411 26.857 15.773 26.097 15.849 C 24.747 16.05 23.495 16.707 22.531 17.719 C 21.567 18.732 20.941 20.046 20.75 21.464 C 20.672 22.261 20.334 23.005 19.794 23.57 C 19.253 24.136 18.543 24.488 17.784 24.566 C 16.431 24.77 15.177 25.426 14.207 26.438 C 13.238 27.449 12.606 28.762 12.403 30.181 C 12.344 30.747 12.159 31.29 11.863 31.767 C 10.732 31.062 9.719 30.166 8.864 29.116 Z M 17.982 33.585 C 16.863 33.586 15.75 33.422 14.675 33.099 C 15.042 32.379 15.282 31.594 15.38 30.783 C 15.457 29.988 15.794 29.245 16.332 28.68 C 16.87 28.115 17.578 27.762 18.335 27.681 C 19.686 27.478 20.938 26.821 21.904 25.809 C 22.87 24.797 23.497 23.484 23.693 22.066 C 23.771 21.27 24.107 20.528 24.645 19.962 C 25.183 19.397 25.891 19.044 26.648 18.963 C 27.665 18.824 28.633 18.427 29.47 17.805 C 29.935 19.655 29.99 21.592 29.631 23.468 C 29.273 25.344 28.509 27.108 27.4 28.626 C 26.291 30.144 24.865 31.375 23.233 32.225 C 21.6 33.074 19.804 33.52 17.982 33.527 Z" fill="#EDECDA"></path><path d="M 115.7 11.971 L 115.7 30.052 L 112.144 30.052 L 112.144 11.971 Z M 123.135 22.878 L 115.7 22.878 L 115.7 19.144 L 123.135 19.122 Z M 124.536 15.705 L 115.7 15.705 L 115.7 11.971 L 124.536 11.971 Z M 124.536 30.052 L 115.7 30.052 L 115.7 26.318 L 124.536 26.295 Z" fill="#EDECDA"></path><path d="M 104.485 11.948 L 104.485 30.052 L 100.928 30.052 L 100.928 11.948 Z M 109.98 15.682 L 95.433 15.682 L 95.433 11.971 L 109.98 11.948 Z" fill="#EDECDA"></path><path d="M 87.955 11.948 L 80.541 30.052 L 76.532 30.052 L 83.946 11.948 Z M 87.976 11.948 L 95.433 30.052 L 91.425 30.052 L 83.968 11.948 Z M 90.994 26.703 L 80.756 26.703 L 80.756 22.856 L 90.994 22.833 Z" fill="#EDECDA"></path><path d="M 58.621 11.948 L 65.906 11.948 C 68.305 11.948 70.317 12.355 71.94 13.17 C 73.564 13.985 74.376 15.576 74.376 17.945 C 74.376 19.348 73.945 20.457 73.083 21.272 C 72.235 22.071 71.179 22.629 69.914 22.946 C 68.664 23.248 67.328 23.399 65.906 23.399 L 62.263 23.399 L 62.263 30.029 L 62.263 30.052 L 58.621 30.052 Z M 66.682 22.131 L 70.755 22.131 L 74.009 30.052 L 69.936 30.052 Z M 65.906 19.755 C 67.041 19.755 67.91 19.695 68.513 19.574 C 69.131 19.439 69.562 19.227 69.807 18.941 C 70.051 18.654 70.173 18.269 70.173 17.787 C 70.173 17.304 70.051 16.919 69.807 16.632 C 69.562 16.346 69.131 16.135 68.513 15.999 C 67.91 15.863 67.041 15.795 65.906 15.795 L 62.263 15.795 L 62.263 19.755 Z" fill="#EDECDA"></path><path d="M 56.458 11.948 L 44.884 27.608 L 44.712 22.403 L 52.126 11.948 Z M 45.466 11.948 L 45.466 30.052 L 41.91 30.052 L 41.91 11.948 Z M 46.544 22.222 L 48.785 19.62 L 56.458 30.052 L 52.126 30.052 Z" fill="#EDECDA"></path></svg>