<svg xmlns:xlink="http://www.w3.org/1999/xlink" xmlns="http://www.w3.org/2000/svg" viewBox="0 0 130 38" id="svg1415132974" width="130"  height="38" ><path d="M 1.103 42.302 L 1.103 1.045 L 131.678 1.045 L 131.678 42.302 Z" fill="#000000" fill-opacity="0"></path><path d="M 4.37 34.381 L 4.37 6.876 L 47.926 6.876 L 47.926 34.381 Z" fill="#000000" fill-opacity="0"></path><path d="M 18.884 34.382 L 23.292 34.382 L 22.008 33.166 C 21.668 32.844 21.206 32.663 20.725 32.663 L 18.884 32.663 C 11.868 32.663 6.18 27.275 6.18 20.63 C 6.18 13.984 11.868 8.597 18.884 8.597 L 33.402 8.597 C 40.418 8.597 46.106 13.984 46.106 20.63 C 46.106 27.275 40.418 32.663 33.402 32.663 L 27.971 32.663 C 27.249 32.663 26.557 32.391 26.046 31.908 L 24.543 30.483 C 23.692 29.678 22.538 29.225 21.334 29.225 L 18.884 29.225 C 13.872 29.225 9.81 25.377 9.81 20.63 C 9.81 15.883 13.872 12.035 18.884 12.035 L 33.402 12.035 C 38.414 12.035 42.476 15.883 42.476 20.63 C 42.476 25.377 38.414 29.225 33.402 29.225 L 29.915 29.225 C 29.193 29.225 28.5 28.953 27.99 28.47 L 26.486 27.045 C 25.636 26.24 24.482 25.787 23.278 25.787 L 18.884 25.787 C 15.877 25.787 13.439 23.478 13.439 20.63 C 13.439 17.782 15.877 15.473 18.884 15.473 L 33.402 15.473 C 36.409 15.473 38.847 17.782 38.847 20.63 C 38.847 23.443 36.468 25.73 33.512 25.786 L 33.511 25.787 L 32.183 25.787 C 31.461 25.787 30.769 25.515 30.258 25.032 L 28.755 23.607 C 28.057 22.946 27.155 22.523 26.188 22.392 L 26.143 22.349 L 18.884 22.349 C 17.881 22.349 17.069 21.579 17.069 20.63 C 17.069 19.68 17.881 18.911 18.884 18.911 L 33.402 18.911 C 34.404 18.911 35.217 19.68 35.217 20.63 C 35.217 21.579 34.404 22.349 33.402 22.349 L 29.772 22.349 L 31.056 23.564 C 31.396 23.887 31.858 24.068 32.339 24.068 L 33.402 24.068 C 35.407 24.068 37.032 22.528 37.032 20.63 C 37.032 18.731 35.407 17.192 33.402 17.192 L 18.884 17.192 C 16.879 17.192 15.254 18.731 15.254 20.63 C 15.254 22.528 16.879 24.068 18.884 24.068 L 25.547 24.068 C 26.269 24.068 26.961 24.339 27.472 24.823 L 28.975 26.247 C 29.826 27.053 30.98 27.506 32.183 27.506 L 33.856 27.506 L 33.856 27.493 C 37.654 27.271 40.661 24.283 40.661 20.63 C 40.661 16.832 37.411 13.754 33.402 13.754 L 18.884 13.754 C 14.874 13.754 11.624 16.832 11.624 20.63 C 11.624 24.427 14.874 27.506 18.884 27.506 L 23.278 27.506 C 24 27.506 24.693 27.777 25.203 28.261 L 26.707 29.685 C 27.558 30.491 28.711 30.944 29.915 30.944 L 33.402 30.944 C 39.416 30.944 44.291 26.326 44.291 20.63 C 44.291 14.933 39.416 10.316 33.402 10.316 L 18.884 10.316 C 12.87 10.316 7.995 14.933 7.995 20.63 C 7.995 26.326 12.87 30.944 18.884 30.944 L 21.334 30.944 C 22.056 30.944 22.749 31.216 23.259 31.699 L 24.763 33.123 C 25.614 33.929 26.768 34.382 27.971 34.382 L 33.402 34.382 C 41.42 34.382 47.921 28.225 47.921 20.63 C 47.921 13.035 41.42 6.878 33.402 6.878 L 18.884 6.878 C 10.865 6.878 4.365 13.035 4.365 20.63 C 4.365 28.225 10.865 34.382 18.884 34.382 Z" fill="var(--token-3ea41072-e4a3-4fbd-afee-986fdaa2559f, rgb(0, 0, 0)) /* {&quot;name&quot;:&quot;Black&quot;} */"></path><path d="M 125.767 31.758 C 124.438 31.758 123.431 31.454 122.744 30.847 C 122.056 30.218 121.713 29.187 121.713 27.755 L 121.713 9.499 L 125.457 9.499 L 125.457 27.43 C 125.457 28.037 125.572 28.449 125.801 28.666 C 126.03 28.883 126.374 28.992 126.832 28.992 C 127.381 28.992 127.908 28.927 128.412 28.796 L 128.412 31.367 C 127.977 31.519 127.553 31.617 127.141 31.66 C 126.751 31.725 126.293 31.758 125.767 31.758 Z" fill="var(--token-3ea41072-e4a3-4fbd-afee-986fdaa2559f, rgb(0, 0, 0)) /* {&quot;name&quot;:&quot;Black&quot;} */"></path><path d="M 118.1 31.758 C 116.771 31.758 115.764 31.454 115.077 30.847 C 114.39 30.218 114.046 29.187 114.046 27.755 L 114.046 9.499 L 117.791 9.499 L 117.791 27.43 C 117.791 28.037 117.905 28.449 118.134 28.666 C 118.363 28.883 118.707 28.992 119.165 28.992 C 119.715 28.992 120.241 28.927 120.745 28.796 L 120.745 31.367 C 120.31 31.519 119.886 31.617 119.474 31.66 C 119.085 31.725 118.627 31.758 118.1 31.758 Z" fill="var(--token-3ea41072-e4a3-4fbd-afee-986fdaa2559f, rgb(0, 0, 0)) /* {&quot;name&quot;:&quot;Black&quot;} */"></path><path d="M 101.431 31.758 C 100.4 31.758 99.438 31.584 98.545 31.237 C 97.674 30.89 96.976 30.369 96.449 29.675 C 95.922 28.959 95.659 28.081 95.659 27.039 C 95.659 25.564 96.186 24.382 97.239 23.492 C 98.316 22.581 99.965 22.126 102.186 22.126 L 107.408 22.126 L 107.408 21.442 C 107.408 20.705 107.282 20.119 107.03 19.685 C 106.801 19.251 106.366 18.937 105.725 18.741 C 105.107 18.546 104.19 18.448 102.977 18.448 C 101.053 18.448 99.255 18.72 97.583 19.262 L 97.583 16.626 C 98.316 16.344 99.209 16.116 100.262 15.943 C 101.316 15.769 102.45 15.682 103.664 15.682 C 106.046 15.682 107.855 16.138 109.092 17.049 C 110.351 17.96 110.981 19.446 110.981 21.507 L 110.981 31.432 L 107.786 31.432 L 107.546 29.87 C 106.881 30.478 106.057 30.944 105.072 31.27 C 104.11 31.595 102.896 31.758 101.431 31.758 Z M 102.427 29.22 C 103.549 29.22 104.522 29.046 105.347 28.699 C 106.194 28.33 106.881 27.842 107.408 27.235 L 107.408 24.534 L 102.255 24.534 C 101.156 24.534 100.354 24.74 99.85 25.152 C 99.369 25.542 99.129 26.15 99.129 26.974 C 99.129 27.777 99.415 28.352 99.988 28.699 C 100.56 29.046 101.373 29.22 102.427 29.22 Z" fill="var(--token-3ea41072-e4a3-4fbd-afee-986fdaa2559f, rgb(0, 0, 0)) /* {&quot;name&quot;:&quot;Black&quot;} */"></path><path d="M 91.307 31.758 C 89.567 31.758 88.261 31.324 87.391 30.456 C 86.543 29.567 86.12 28.363 86.12 26.844 L 86.12 18.774 L 83.715 18.774 L 83.715 16.008 L 86.12 16.008 L 86.12 12.461 L 89.83 11.387 L 89.83 16.008 L 94.159 16.008 L 93.918 18.774 L 89.83 18.774 L 89.83 26.649 C 89.83 27.538 90.048 28.167 90.483 28.536 C 90.918 28.883 91.628 29.057 92.613 29.057 C 93.231 29.057 93.884 28.948 94.571 28.731 L 94.571 31.237 C 93.678 31.584 92.59 31.758 91.307 31.758 Z" fill="var(--token-3ea41072-e4a3-4fbd-afee-986fdaa2559f, rgb(0, 0, 0)) /* {&quot;name&quot;:&quot;Black&quot;} */"></path><path d="M 81.476 31.758 C 80.148 31.758 79.14 31.454 78.453 30.847 C 77.766 30.218 77.422 29.187 77.422 27.755 L 77.422 9.499 L 81.167 9.499 L 81.167 27.43 C 81.167 28.037 81.281 28.449 81.511 28.666 C 81.74 28.883 82.083 28.992 82.541 28.992 C 83.091 28.992 83.618 28.927 84.121 28.796 L 84.121 31.367 C 83.686 31.519 83.263 31.617 82.85 31.66 C 82.461 31.725 82.003 31.758 81.476 31.758 Z" fill="var(--token-3ea41072-e4a3-4fbd-afee-986fdaa2559f, rgb(0, 0, 0)) /* {&quot;name&quot;:&quot;Black&quot;} */"></path><path d="M 55.548 31.433 L 63.999 10.476 L 68.19 10.476 L 76.572 31.433 L 72.725 31.433 L 70.526 26.031 L 61.628 26.031 L 59.43 31.433 Z M 62.212 23.297 L 69.908 23.297 L 66.06 13.697 Z" fill="var(--token-3ea41072-e4a3-4fbd-afee-986fdaa2559f, rgb(0, 0, 0)) /* {&quot;name&quot;:&quot;Black&quot;} */"></path></svg>