<svg xmlns:xlink="http://www.w3.org/1999/xlink" xmlns="http://www.w3.org/2000/svg" viewBox="0 0 113 44" id="svg496786659" width="113"  height="44" ><g transform="translate(3.477 7.699)" id="ss496786659_1"><path d="M 0 28.601 L 0 0.001 L 30.133 0.001 L 30.133 28.601 Z" fill="#000000" fill-opacity="0"></path><path d="M 23.772 14.338 C 27.459 12.18 29.963 8.367 30.134 3.994 C 30.144 3.727 29.913 3.499 29.633 3.499 L 26.928 3.499 C 26.708 3.499 26.527 3.328 26.527 3.119 L 26.527 0.476 C 26.527 0.209 26.297 -0.009 26.006 0 C 21.408 0.171 17.391 2.539 15.107 6.038 C 12.833 2.548 8.816 0.171 4.208 0 C 3.927 -0.009 3.687 0.209 3.687 0.476 L 3.687 3.043 C 3.687 3.252 3.507 3.423 3.286 3.423 L 0.501 3.423 C 0.221 3.423 -0.01 3.642 0 3.918 C 0.181 8.282 2.675 12.094 6.362 14.262 C 2.685 16.43 0.181 20.233 0 24.607 C -0.01 24.873 0.221 25.101 0.501 25.101 L 3.206 25.101 C 3.426 25.101 3.607 25.272 3.607 25.482 L 3.607 28.134 C 3.607 28.401 3.837 28.619 4.128 28.61 C 8.726 28.439 12.743 26.071 15.027 22.572 C 17.311 26.071 21.328 28.448 25.926 28.61 C 26.207 28.619 26.447 28.401 26.447 28.134 L 26.447 25.567 C 26.447 25.358 26.627 25.187 26.848 25.187 L 29.643 25.187 C 29.923 25.187 30.154 24.968 30.144 24.693 C 29.963 20.319 27.459 16.506 23.772 14.338 Z M 15.067 12.732 C 15.979 12.732 16.72 13.435 16.72 14.3 C 16.72 15.166 15.979 15.869 15.067 15.869 C 14.155 15.869 13.414 15.166 13.414 14.3 C 13.414 13.435 14.155 12.732 15.067 12.732 Z M 26.106 4.241 C 25.736 8.557 22.119 12.018 17.582 12.408 C 17.341 12.427 17.131 12.237 17.151 11.999 C 17.521 7.683 21.138 4.222 25.676 3.832 C 25.916 3.813 26.127 4.003 26.106 4.241 Z M 12.643 12.323 C 8.095 11.971 4.448 8.538 4.037 4.231 C 4.017 4.003 4.218 3.803 4.468 3.823 C 9.016 4.174 12.663 7.607 13.073 11.914 C 13.094 12.152 12.883 12.351 12.643 12.323 Z M 4.027 24.36 C 4.398 20.043 8.015 16.582 12.553 16.192 C 12.793 16.173 13.003 16.364 12.983 16.601 C 12.613 20.918 8.996 24.379 4.458 24.769 C 4.218 24.788 4.007 24.597 4.027 24.36 Z M 17.501 16.278 C 22.049 16.63 25.696 20.062 26.106 24.369 C 26.127 24.597 25.926 24.797 25.676 24.778 C 21.128 24.426 17.481 20.994 17.071 16.687 C 17.04 16.449 17.251 16.259 17.501 16.278 Z" fill="var(--token-3ea41072-e4a3-4fbd-afee-986fdaa2559f, rgb(0, 0, 0)) /* {&quot;name&quot;:&quot;Black&quot;} */"></path></g><path d="M 94.208 30.014 C 92.704 28.697 91.953 26.757 91.953 24.195 C 91.953 21.625 92.704 19.685 94.208 18.377 C 95.712 17.059 97.871 16.401 100.686 16.401 C 103.51 16.401 105.674 17.059 107.178 18.377 C 108.682 19.685 109.433 21.625 109.433 24.195 C 109.433 26.757 108.682 28.697 107.178 30.014 C 105.674 31.331 103.51 31.99 100.686 31.99 C 97.871 31.99 95.712 31.331 94.208 30.014 Z M 97.866 20.627 C 97.269 21.368 96.97 22.553 96.97 24.182 C 96.97 25.81 97.269 26.999 97.866 27.75 C 98.464 28.5 99.404 28.875 100.686 28.875 C 101.977 28.875 102.922 28.5 103.52 27.75 C 104.127 26.999 104.431 25.81 104.431 24.182 C 104.431 22.553 104.127 21.368 103.52 20.627 C 102.922 19.886 101.977 19.516 100.686 19.516 C 99.404 19.516 98.464 19.886 97.866 20.627 Z" fill="var(--token-3ea41072-e4a3-4fbd-afee-986fdaa2559f, rgb(0, 0, 0)) /* {&quot;name&quot;:&quot;Black&quot;} */"></path><path d="M 84.29 30.879 L 84.29 12.887 C 84.29 12.64 84.372 12.439 84.536 12.284 C 84.71 12.119 84.922 12.037 85.172 12.037 L 88.411 12.037 C 88.662 12.037 88.869 12.119 89.033 12.284 C 89.206 12.439 89.293 12.64 89.293 12.887 L 89.293 30.879 C 89.293 31.116 89.206 31.318 89.033 31.482 C 88.869 31.638 88.662 31.716 88.411 31.716 L 85.172 31.716 C 84.922 31.716 84.71 31.638 84.536 31.482 C 84.372 31.318 84.29 31.116 84.29 30.879 Z" fill="var(--token-3ea41072-e4a3-4fbd-afee-986fdaa2559f, rgb(0, 0, 0)) /* {&quot;name&quot;:&quot;Black&quot;} */"></path><path d="M 65.985 30.728 C 64.712 29.886 64.076 28.697 64.076 27.16 C 64.076 25.623 64.712 24.442 65.985 23.619 C 67.267 22.796 68.915 22.384 70.93 22.384 L 75.716 22.384 C 75.716 21.313 75.479 20.568 75.007 20.147 C 74.535 19.726 73.706 19.516 72.52 19.516 C 71.344 19.516 70.515 19.795 70.033 20.353 C 69.561 20.902 68.978 21.176 68.284 21.176 L 66.129 21.176 C 65.869 21.176 65.652 21.099 65.479 20.943 C 65.315 20.778 65.233 20.577 65.233 20.339 C 65.233 17.713 67.859 16.401 73.113 16.401 C 75.407 16.401 77.248 16.89 78.636 17.869 C 80.024 18.839 80.718 20.344 80.718 22.384 L 80.718 30.879 C 80.718 31.126 80.636 31.327 80.472 31.482 C 80.309 31.638 80.097 31.716 79.836 31.716 L 77.046 31.716 C 76.785 31.716 76.573 31.638 76.409 31.482 C 76.246 31.318 76.164 31.116 76.164 30.879 L 76.164 30.453 C 74.641 31.487 72.882 31.999 70.886 31.99 C 68.9 31.99 67.267 31.569 65.985 30.728 Z M 71.277 25.499 C 70.602 25.499 70.067 25.655 69.672 25.966 C 69.286 26.277 69.093 26.679 69.093 27.173 C 69.093 27.667 69.296 28.074 69.701 28.395 C 70.105 28.715 70.679 28.875 71.421 28.875 C 72.906 28.875 74.337 28.463 75.716 27.64 L 75.716 25.499 Z" fill="var(--token-3ea41072-e4a3-4fbd-afee-986fdaa2559f, rgb(0, 0, 0)) /* {&quot;name&quot;:&quot;Black&quot;} */"></path><path d="M 63.18 31.112 C 63.18 31.514 62.929 31.715 62.428 31.715 L 59.117 31.715 C 58.741 31.715 58.336 31.592 57.902 31.345 C 57.468 31.089 57.131 30.782 56.89 30.426 L 54.345 26.597 C 53.738 25.664 53.126 24.964 52.509 24.497 C 51.892 24.021 51.15 23.784 50.282 23.784 L 47.174 23.784 L 47.174 30.453 C 47.174 30.81 47.039 31.112 46.769 31.359 C 46.509 31.597 46.191 31.715 45.815 31.715 L 43.096 31.715 C 42.721 31.715 42.398 31.587 42.128 31.331 C 41.858 31.066 41.723 30.755 41.723 30.398 L 41.723 13.34 C 41.723 12.983 41.858 12.672 42.128 12.407 C 42.398 12.142 42.721 12.009 43.096 12.009 L 45.815 12.009 C 46.191 12.009 46.509 12.142 46.769 12.407 C 47.039 12.672 47.174 12.983 47.174 13.34 L 47.174 19.914 L 50.282 19.914 C 51.131 19.914 51.873 19.694 52.509 19.255 C 53.155 18.816 53.767 18.107 54.345 17.128 L 56.586 13.34 C 57.097 12.462 57.791 12.018 58.669 12.009 L 62.009 12.009 C 62.471 12.009 62.703 12.201 62.703 12.585 C 62.703 12.796 62.621 13.047 62.457 13.34 L 59.319 18.733 C 58.866 19.52 58.355 20.17 57.787 20.682 C 57.228 21.194 56.495 21.556 55.589 21.766 C 56.225 21.894 56.876 22.274 57.541 22.905 C 58.216 23.537 58.808 24.223 59.319 24.964 L 62.934 30.426 C 63.098 30.691 63.18 30.92 63.18 31.112 Z" fill="var(--token-3ea41072-e4a3-4fbd-afee-986fdaa2559f, rgb(0, 0, 0)) /* {&quot;name&quot;:&quot;Black&quot;} */"></path></svg>