<svg xmlns:xlink="http://www.w3.org/1999/xlink" xmlns="http://www.w3.org/2000/svg" viewBox="0 0 111 32" id="svg3363722060" width="111"  height="32" ><path d="M 100.192 28.122 C 98.347 28.122 96.839 27.734 95.67 26.957 C 94.526 26.153 93.669 25.143 93.097 23.925 C 92.551 22.681 92.265 21.373 92.24 20 C 92.213 18.393 92.512 16.968 93.136 15.725 C 93.786 14.455 94.695 13.471 95.865 12.771 C 97.06 12.046 98.463 11.683 100.075 11.683 C 101.504 11.683 102.777 11.994 103.895 12.616 C 105.038 13.238 105.948 14.118 106.624 15.258 C 107.299 16.373 107.65 17.694 107.676 19.223 C 107.676 19.274 107.676 19.417 107.676 19.65 C 107.676 19.883 107.676 20.078 107.676 20.233 L 96.021 20.233 C 96.021 21.71 96.385 22.85 97.112 23.653 C 97.84 24.43 98.84 24.819 100.114 24.819 C 101.101 24.819 101.92 24.573 102.569 24.081 C 103.245 23.588 103.648 22.941 103.778 22.137 L 107.637 22.137 C 107.455 23.821 106.727 25.247 105.454 26.412 C 104.181 27.552 102.427 28.122 100.192 28.122 Z M 96.138 18.445 L 103.7 18.445 C 103.674 18.264 103.609 17.979 103.505 17.59 C 103.427 17.202 103.258 16.8 102.998 16.385 C 102.764 15.971 102.401 15.621 101.907 15.336 C 101.413 15.051 100.776 14.909 99.997 14.909 C 98.957 14.909 98.165 15.129 97.619 15.569 C 97.099 15.984 96.722 16.476 96.488 17.046 C 96.28 17.59 96.164 18.057 96.138 18.445 Z" fill="var(--token-3ea41072-e4a3-4fbd-afee-986fdaa2559f, rgb(0, 0, 0)) /* {&quot;name&quot;:&quot;Black&quot;} */"></path><path d="M 82.869 28.122 C 81.024 28.122 79.516 27.734 78.347 26.957 C 77.204 26.153 76.346 25.143 75.774 23.925 C 75.228 22.681 74.943 21.373 74.917 20 C 74.891 18.393 75.19 16.968 75.813 15.725 C 76.463 14.455 77.372 13.471 78.542 12.771 C 79.737 12.046 81.141 11.683 82.752 11.683 C 84.181 11.683 85.454 11.994 86.572 12.616 C 87.715 13.238 88.625 14.118 89.301 15.258 C 89.976 16.373 90.327 17.694 90.353 19.223 C 90.353 19.274 90.353 19.417 90.353 19.65 C 90.353 19.883 90.353 20.078 90.353 20.233 L 78.698 20.233 C 78.698 21.71 79.062 22.85 79.789 23.653 C 80.517 24.43 81.517 24.819 82.791 24.819 C 83.778 24.819 84.597 24.573 85.247 24.081 C 85.922 23.588 86.325 22.941 86.455 22.137 L 90.314 22.137 C 90.132 23.821 89.405 25.247 88.131 26.412 C 86.858 27.552 85.104 28.122 82.869 28.122 Z M 78.815 18.445 L 86.377 18.445 C 86.351 18.264 86.286 17.979 86.182 17.59 C 86.104 17.202 85.935 16.8 85.675 16.385 C 85.442 15.971 85.078 15.621 84.584 15.336 C 84.09 15.051 83.454 14.909 82.674 14.909 C 81.634 14.909 80.842 15.129 80.296 15.569 C 79.776 15.984 79.4 16.476 79.166 17.046 C 78.958 17.59 78.841 18.057 78.815 18.445 Z" fill="var(--token-3ea41072-e4a3-4fbd-afee-986fdaa2559f, rgb(0, 0, 0)) /* {&quot;name&quot;:&quot;Black&quot;} */"></path><path d="M 63.205 27.734 L 63.205 11.761 L 66.909 11.761 L 67.181 16.192 C 67.337 15.518 67.636 14.844 68.078 14.171 C 68.546 13.471 69.183 12.901 69.988 12.461 C 70.82 11.994 71.885 11.761 73.185 11.761 L 73.769 11.761 L 73.769 16.192 L 73.185 16.192 C 70.95 16.192 69.39 16.554 68.507 17.28 C 67.623 17.979 67.181 19.171 67.181 20.855 L 67.181 27.734 Z" fill="var(--token-3ea41072-e4a3-4fbd-afee-986fdaa2559f, rgb(0, 0, 0)) /* {&quot;name&quot;:&quot;Black&quot;} */"></path><path d="M 57.08 27.734 C 55.806 27.734 54.845 27.423 54.195 26.801 C 53.571 26.18 53.26 25.169 53.26 23.77 L 53.26 14.559 L 50.843 14.559 L 50.843 11.761 C 51.596 11.761 52.181 11.683 52.597 11.528 C 53.013 11.372 53.312 11.01 53.493 10.44 C 53.675 9.87 53.766 8.95 53.766 7.68 L 56.963 7.68 L 56.963 11.761 L 60.627 11.761 L 60.627 14.559 L 56.963 14.559 L 56.963 24.625 L 60.705 24.625 L 60.705 27.734 Z" fill="var(--token-3ea41072-e4a3-4fbd-afee-986fdaa2559f, rgb(0, 0, 0)) /* {&quot;name&quot;:&quot;Black&quot;} */"></path><path d="M 45.277 27.734 L 45.277 5.854 L 49.175 5.854 L 49.175 27.734 Z" fill="var(--token-3ea41072-e4a3-4fbd-afee-986fdaa2559f, rgb(0, 0, 0)) /* {&quot;name&quot;:&quot;Black&quot;} */"></path><path d="M 38.308 27.734 L 38.308 5.854 L 42.206 5.854 L 42.206 27.734 Z" fill="var(--token-3ea41072-e4a3-4fbd-afee-986fdaa2559f, rgb(0, 0, 0)) /* {&quot;name&quot;:&quot;Black&quot;} */"></path><path d="M 27.738 28.123 C 25.919 28.123 24.412 27.773 23.216 27.073 C 22.021 26.374 21.124 25.415 20.527 24.198 C 19.929 22.954 19.63 21.542 19.63 19.961 C 19.604 17.578 20.267 15.622 21.618 14.093 C 22.995 12.538 25.035 11.761 27.738 11.761 C 30.363 11.761 32.351 12.512 33.702 14.015 C 35.079 15.518 35.768 17.5 35.768 19.961 C 35.768 21.49 35.482 22.876 34.911 24.12 C 34.339 25.363 33.455 26.348 32.26 27.073 C 31.064 27.773 29.557 28.123 27.738 28.123 Z M 27.738 24.781 C 28.882 24.781 29.752 24.534 30.35 24.042 C 30.974 23.55 31.389 22.928 31.597 22.177 C 31.805 21.399 31.909 20.622 31.909 19.845 C 31.909 19.042 31.805 18.251 31.597 17.474 C 31.389 16.697 30.974 16.062 30.35 15.57 C 29.752 15.077 28.882 14.831 27.738 14.831 C 26.569 14.831 25.672 15.09 25.048 15.609 C 24.451 16.101 24.035 16.736 23.801 17.513 C 23.593 18.264 23.489 19.042 23.489 19.845 C 23.489 20.622 23.593 21.399 23.801 22.177 C 24.035 22.928 24.451 23.55 25.048 24.042 C 25.672 24.534 26.569 24.781 27.738 24.781 Z" fill="var(--token-3ea41072-e4a3-4fbd-afee-986fdaa2559f, rgb(0, 0, 0)) /* {&quot;name&quot;:&quot;Black&quot;} */"></path><path d="M 6.199 27.734 L 2.223 27.734 L 2.223 5.854 L 11.033 5.854 C 13.475 5.854 15.372 6.462 16.724 7.68 C 18.075 8.898 18.751 10.737 18.751 13.199 C 18.751 15.349 18.049 17.033 16.646 18.251 C 15.269 19.469 13.397 20.078 11.033 20.078 L 6.199 20.078 Z M 10.487 9.079 L 6.199 9.079 L 6.199 17.163 L 10.487 17.163 C 11.89 17.163 13.021 16.826 13.878 16.153 C 14.736 15.479 15.165 14.468 15.165 13.121 C 15.165 11.748 14.736 10.737 13.878 10.09 C 13.047 9.416 11.916 9.079 10.487 9.079 Z" fill="var(--token-3ea41072-e4a3-4fbd-afee-986fdaa2559f, rgb(0, 0, 0)) /* {&quot;name&quot;:&quot;Black&quot;} */"></path></svg>