<svg xmlns:xlink="http://www.w3.org/1999/xlink" xmlns="http://www.w3.org/2000/svg" viewBox="0 0 114 24" id="svg2156713849" width="114"  height="24" ><g transform="translate(0 0.267)" id="ss2156713849_1"><path d="M 0 23.467 L 0 0 L 113.47 0 L 113.47 23.467 Z" fill="#000000" fill-opacity="0"></path><path d="M 104.368 23.179 C 103.187 23.179 102.188 22.955 101.371 22.509 C 100.553 22.052 99.932 21.448 99.508 20.697 C 99.095 19.946 98.888 19.118 98.888 18.215 C 98.888 17.423 99.019 16.712 99.281 16.083 C 99.544 15.444 99.948 14.895 100.492 14.439 C 101.038 13.972 101.744 13.591 102.612 13.297 C 103.268 13.083 104.035 12.891 104.913 12.718 C 105.801 12.545 106.76 12.388 107.789 12.246 C 108.829 12.094 109.914 11.931 111.044 11.759 L 109.742 12.505 C 109.752 11.368 109.5 10.53 108.985 9.992 C 108.47 9.454 107.602 9.185 106.381 9.185 C 105.644 9.185 104.933 9.358 104.247 9.703 C 103.561 10.048 103.081 10.642 102.809 11.485 L 99.478 10.434 C 99.882 9.043 100.649 7.927 101.779 7.084 C 102.92 6.242 104.454 5.82 106.381 5.82 C 107.834 5.82 109.111 6.059 110.211 6.536 C 111.321 7.013 112.144 7.795 112.679 8.881 C 112.971 9.459 113.148 10.053 113.209 10.662 C 113.269 11.261 113.299 11.916 113.299 12.627 L 113.299 22.722 L 110.105 22.722 L 110.105 19.159 L 110.635 19.737 C 109.898 20.925 109.035 21.798 108.046 22.357 C 107.067 22.905 105.841 23.179 104.368 23.179 Z M 105.094 20.255 C 105.922 20.255 106.628 20.108 107.214 19.814 C 107.799 19.519 108.263 19.159 108.607 18.733 C 108.96 18.306 109.197 17.905 109.318 17.53 C 109.51 17.063 109.616 16.53 109.636 15.931 C 109.666 15.322 109.681 14.829 109.681 14.454 L 110.802 14.789 C 109.702 14.961 108.758 15.114 107.971 15.246 C 107.184 15.378 106.507 15.505 105.942 15.626 C 105.377 15.738 104.877 15.865 104.444 16.007 C 104.02 16.159 103.661 16.337 103.369 16.54 C 103.076 16.743 102.849 16.976 102.687 17.24 C 102.536 17.504 102.46 17.814 102.46 18.169 C 102.46 18.575 102.561 18.936 102.763 19.25 C 102.965 19.555 103.258 19.798 103.641 19.981 C 104.035 20.164 104.519 20.255 105.094 20.255 Z" fill="#EDECDA"></path><path d="M 92.142 22.722 L 92.142 0.339 L 95.79 0.339 L 95.79 22.722 Z" fill="#EDECDA"></path><path d="M 79.498 23.179 C 78.317 23.179 77.318 22.955 76.5 22.509 C 75.683 22.052 75.062 21.448 74.638 20.697 C 74.225 19.946 74.018 19.118 74.018 18.215 C 74.018 17.423 74.149 16.712 74.411 16.083 C 74.674 15.444 75.077 14.895 75.622 14.439 C 76.167 13.972 76.874 13.591 77.742 13.297 C 78.398 13.083 79.165 12.891 80.043 12.718 C 80.931 12.545 81.89 12.388 82.919 12.246 C 83.958 12.094 85.043 11.931 86.174 11.759 L 84.872 12.505 C 84.882 11.368 84.629 10.53 84.115 9.992 C 83.6 9.454 82.732 9.185 81.511 9.185 C 80.774 9.185 80.063 9.358 79.377 9.703 C 78.69 10.048 78.211 10.642 77.938 11.485 L 74.608 10.434 C 75.012 9.043 75.779 7.927 76.909 7.084 C 78.049 6.242 79.583 5.82 81.511 5.82 C 82.964 5.82 84.241 6.059 85.341 6.536 C 86.451 7.013 87.274 7.795 87.808 8.881 C 88.101 9.459 88.278 10.053 88.338 10.662 C 88.399 11.261 88.429 11.916 88.429 12.627 L 88.429 22.722 L 85.235 22.722 L 85.235 19.159 L 85.765 19.737 C 85.028 20.925 84.165 21.798 83.176 22.357 C 82.197 22.905 80.971 23.179 79.498 23.179 Z M 80.224 20.255 C 81.052 20.255 81.758 20.108 82.344 19.814 C 82.929 19.519 83.393 19.159 83.736 18.733 C 84.09 18.306 84.327 17.905 84.448 17.53 C 84.64 17.063 84.746 16.53 84.766 15.931 C 84.796 15.322 84.811 14.829 84.811 14.454 L 85.931 14.789 C 84.831 14.961 83.888 15.114 83.101 15.246 C 82.313 15.378 81.637 15.505 81.072 15.626 C 80.507 15.738 80.007 15.865 79.573 16.007 C 79.15 16.159 78.791 16.337 78.499 16.54 C 78.206 16.743 77.979 16.976 77.817 17.24 C 77.666 17.504 77.59 17.814 77.59 18.169 C 77.59 18.575 77.691 18.936 77.893 19.25 C 78.095 19.555 78.388 19.798 78.771 19.981 C 79.165 20.164 79.649 20.255 80.224 20.255 Z" fill="#EDECDA"></path><path d="M 63.748 22.722 L 63.748 6.277 L 66.973 6.277 L 66.973 10.282 L 66.579 9.764 C 66.781 9.216 67.048 8.719 67.381 8.272 C 67.725 7.815 68.133 7.439 68.608 7.145 C 69.011 6.871 69.455 6.658 69.94 6.506 C 70.434 6.343 70.939 6.247 71.454 6.216 C 71.968 6.176 72.468 6.196 72.952 6.277 L 72.952 9.703 C 72.468 9.561 71.908 9.515 71.272 9.566 C 70.646 9.617 70.081 9.795 69.576 10.099 C 69.072 10.373 68.658 10.723 68.335 11.15 C 68.022 11.576 67.79 12.063 67.639 12.611 C 67.487 13.149 67.412 13.733 67.412 14.363 L 67.412 22.722 Z" fill="#EDECDA"></path><path d="M 51.405 23.179 C 50.225 23.179 49.226 22.955 48.408 22.509 C 47.591 22.052 46.97 21.448 46.546 20.697 C 46.132 19.946 45.925 19.118 45.925 18.215 C 45.925 17.423 46.057 16.712 46.319 16.083 C 46.581 15.444 46.985 14.895 47.53 14.439 C 48.075 13.972 48.782 13.591 49.649 13.297 C 50.305 13.083 51.072 12.891 51.95 12.718 C 52.838 12.545 53.797 12.388 54.827 12.246 C 55.866 12.094 56.951 11.931 58.081 11.759 L 56.78 12.505 C 56.79 11.368 56.537 10.53 56.023 9.992 C 55.508 9.454 54.64 9.185 53.419 9.185 C 52.682 9.185 51.971 9.358 51.284 9.703 C 50.598 10.048 50.119 10.642 49.846 11.485 L 46.516 10.434 C 46.919 9.043 47.686 7.927 48.817 7.084 C 49.957 6.242 51.491 5.82 53.419 5.82 C 54.872 5.82 56.149 6.059 57.249 6.536 C 58.359 7.013 59.181 7.795 59.716 8.881 C 60.009 9.459 60.186 10.053 60.246 10.662 C 60.307 11.261 60.337 11.916 60.337 12.627 L 60.337 22.722 L 57.143 22.722 L 57.143 19.159 L 57.673 19.737 C 56.936 20.925 56.073 21.798 55.084 22.357 C 54.105 22.905 52.879 23.179 51.405 23.179 Z M 52.132 20.255 C 52.96 20.255 53.666 20.108 54.251 19.814 C 54.837 19.519 55.301 19.159 55.644 18.733 C 55.997 18.306 56.234 17.905 56.356 17.53 C 56.547 17.063 56.653 16.53 56.674 15.931 C 56.704 15.322 56.719 14.829 56.719 14.454 L 57.839 14.789 C 56.739 14.961 55.795 15.114 55.008 15.246 C 54.221 15.378 53.545 15.505 52.98 15.626 C 52.415 15.738 51.915 15.865 51.481 16.007 C 51.057 16.159 50.699 16.337 50.406 16.54 C 50.114 16.743 49.887 16.976 49.725 17.24 C 49.574 17.504 49.498 17.814 49.498 18.169 C 49.498 18.575 49.599 18.936 49.801 19.25 C 50.003 19.555 50.295 19.798 50.679 19.981 C 51.072 20.164 51.557 20.255 52.132 20.255 Z" fill="#EDECDA"></path><path d="M 35.534 23.179 C 33.939 23.179 32.501 22.9 31.22 22.342 C 29.948 21.783 28.898 20.986 28.071 19.951 C 27.253 18.905 26.734 17.667 26.512 16.236 L 30.296 15.657 C 30.619 16.956 31.28 17.961 32.279 18.672 C 33.289 19.383 34.449 19.738 35.761 19.738 C 36.538 19.738 37.27 19.616 37.956 19.372 C 38.642 19.129 39.197 18.773 39.621 18.307 C 40.055 17.839 40.272 17.266 40.272 16.586 C 40.272 16.281 40.222 16.002 40.121 15.748 C 40.02 15.484 39.868 15.251 39.667 15.048 C 39.475 14.845 39.223 14.662 38.91 14.5 C 38.607 14.327 38.254 14.18 37.85 14.058 L 32.219 12.383 C 31.734 12.241 31.209 12.053 30.644 11.82 C 30.089 11.576 29.559 11.246 29.055 10.83 C 28.56 10.404 28.152 9.866 27.829 9.216 C 27.516 8.556 27.359 7.744 27.359 6.78 C 27.359 5.369 27.713 4.186 28.419 3.232 C 29.136 2.268 30.094 1.547 31.295 1.07 C 32.506 0.593 33.849 0.359 35.322 0.369 C 36.816 0.38 38.148 0.638 39.318 1.146 C 40.489 1.643 41.468 2.369 42.255 3.323 C 43.042 4.278 43.598 5.43 43.92 6.78 L 40 7.465 C 39.838 6.694 39.525 6.039 39.061 5.501 C 38.607 4.953 38.047 4.536 37.381 4.252 C 36.725 3.968 36.023 3.816 35.277 3.795 C 34.55 3.785 33.874 3.897 33.248 4.13 C 32.633 4.354 32.133 4.679 31.749 5.105 C 31.376 5.531 31.189 6.029 31.189 6.597 C 31.189 7.135 31.351 7.577 31.674 7.922 C 31.997 8.257 32.395 8.526 32.87 8.729 C 33.354 8.922 33.844 9.084 34.338 9.216 L 38.244 10.312 C 38.779 10.455 39.379 10.647 40.045 10.891 C 40.711 11.135 41.352 11.475 41.968 11.911 C 42.583 12.348 43.088 12.921 43.481 13.632 C 43.885 14.342 44.087 15.246 44.087 16.342 C 44.087 17.479 43.85 18.479 43.376 19.342 C 42.911 20.195 42.28 20.905 41.483 21.474 C 40.686 22.042 39.773 22.468 38.743 22.753 C 37.724 23.037 36.654 23.179 35.534 23.179 Z" fill="#EDECDA"></path><g transform="translate(0 0.686)" id="ss2156713849_9"><path d="M 0 22.4 L 0 0 L 22.27 0 L 22.27 22.4 Z" fill="#000000" fill-opacity="0"></path><path d="M 9.961 14.471 C 10.02 14.545 10.028 14.65 9.976 14.732 C 9.887 14.874 9.805 15.016 9.724 15.158 C 9.256 15.972 8.87 16.83 8.565 17.719 C 8.521 17.838 8.358 17.853 8.298 17.741 C 7.519 16.352 6.413 15.18 5.062 14.314 C 3.607 13.388 1.944 12.873 0.222 12.821 C 0.103 12.821 0.006 12.716 0.006 12.597 L 0.006 9.804 C 0.006 9.685 0.103 9.587 0.222 9.58 C 1.944 9.528 3.607 9.013 5.062 8.087 C 6.405 7.228 7.519 6.048 8.298 4.659 C 8.365 4.547 8.528 4.562 8.565 4.682 C 8.87 5.57 9.256 6.429 9.724 7.243 C 9.805 7.385 9.894 7.527 9.976 7.669 C 10.028 7.751 10.02 7.855 9.961 7.93 C 8.929 9.237 7.682 10.312 6.242 11.133 L 6.131 11.2 L 6.242 11.267 C 7.682 12.089 8.937 13.164 9.961 14.471 Z" fill="#EDECDA"></path><path d="M 22.27 9.804 L 22.27 12.596 C 22.27 12.716 22.173 12.813 22.054 12.82 C 16.992 12.977 12.902 17.091 12.746 22.184 C 12.746 22.303 12.642 22.4 12.523 22.4 L 9.754 22.4 C 9.628 22.4 9.532 22.296 9.532 22.176 C 9.635 17.674 12.107 13.515 16.019 11.267 L 16.131 11.2 L 16.019 11.133 C 12.1 8.885 9.635 4.726 9.532 0.224 C 9.532 0.097 9.628 0 9.754 0 L 12.523 0 C 12.642 0 12.738 0.097 12.746 0.217 C 12.902 5.309 16.992 9.423 22.054 9.58 C 22.173 9.58 22.27 9.684 22.27 9.804 Z" fill="#EDECDA"></path></g></g></svg>