<svg width="187" height="37" viewBox="0 0 187 37" fill="none" xmlns="http://www.w3.org/2000/svg">
<path d="M0 4.83715C0 2.16567 2.16567 0 4.83715 0L181.21 0C183.882 0 186.047 2.16567 186.047 4.83715V31.1727C186.047 33.8442 183.882 36.0099 181.21 36.0099L4.83715 36.0099C2.16566 36.0099 0 33.8442 0 31.1727V4.83715Z" fill="#2652B9"/>
<path d="M18 27.8085H20.4376V19.9139H23.5955L30.2989 27.8085H33.1244L26.3932 19.9139C30.4928 20.0524 33.069 17.9749 33.069 14.8725C33.069 11.8531 30.659 9.80331 27.6397 9.80331H18V27.8085ZM27.1688 18.0857H20.4376V11.6592H27.1688C29.2186 11.6592 30.5205 12.8226 30.5205 14.8171C30.5205 17.0331 29.1355 18.0857 27.1688 18.0857Z" fill="#F1F0EF"/>
<path d="M41.6883 28.0855C45.7326 28.0855 47.6716 25.9249 48.4472 23.9582C48.5026 23.8474 48.281 23.7366 48.0594 23.7366H46.1481C46.0373 23.7366 45.9265 23.792 45.8988 23.9028C45.4556 25.0662 44.3475 26.4235 41.6883 26.4235C38.946 26.4235 37.0347 24.1798 36.8962 21.2158H48.7519C48.9735 17.5317 46.5082 13.6814 41.6883 13.6814C37.2286 13.6814 34.5693 16.8946 34.5693 20.8003C34.5693 24.7892 37.3671 28.0855 41.6883 28.0855ZM46.2866 19.5261H37.0347C37.0624 17.5317 38.8906 15.3711 41.6883 15.3711C43.9874 15.3711 46.3697 17.504 46.2866 19.5261Z" fill="#F1F0EF"/>
<path d="M51.0305 14.4847V27.8085H53.4404C53.4681 24.4568 53.4127 15.4542 57.8447 15.4542C60.4209 15.4542 61.6397 17.7256 61.6397 19.997V27.8085H64.0496V23.8751C64.0496 20.0247 65.1853 15.4542 68.3432 15.4542C70.9193 15.4542 72.1381 17.7256 72.1381 19.997V27.8085H74.548V19.5538C74.548 16.3129 72.1935 13.7091 69.3127 13.7091C65.9055 13.7091 64.4651 16.3683 64.0496 19.4984C64.0219 16.2852 61.6674 13.7091 58.8143 13.7091C54.6315 13.7091 53.4127 17.7256 53.4127 21.6867L53.1357 14.2908C53.1357 14.1246 52.9695 13.9861 52.8033 14.0138L51.2798 14.2077C51.1413 14.2354 51.0305 14.3462 51.0305 14.4847Z" fill="#F1F0EF"/>
<path d="M81.1243 28.0855C85.6117 28.0855 87.0798 23.238 87.0798 21.7144L87.3014 27.8085H89.6006L89.4344 17.4763C89.4067 15.6481 87.6061 13.6814 83.5896 13.6814C79.9886 13.6814 78.1326 15.3988 77.3016 16.8946C77.2185 17.0331 77.3016 17.227 77.4678 17.2824L79.0744 17.8641C79.2129 17.9195 79.3791 17.8641 79.4345 17.7256C79.9609 16.396 81.0689 15.2326 83.645 15.2326C85.5286 15.2326 86.7197 15.7866 87.0244 17.0885C87.1629 17.6979 86.692 17.9472 86.3596 18.0303C83.1741 18.9167 76.5537 20.4679 76.5537 24.4845C76.5537 26.6451 78.6589 28.0855 81.1243 28.0855ZM81.2905 26.4235C80.1825 26.4235 78.9636 25.8418 78.9636 24.4291C78.9636 20.7449 86.2488 19.6923 87.0798 19.1383C87.0798 23.5704 83.5619 26.4235 81.2905 26.4235Z" fill="#F1F0EF"/>
<path d="M91.8787 14.4847V27.8085H94.2886C94.3163 20.3294 95.2027 15.3988 97.9451 15.3988C99.0808 15.3988 100.327 16.396 100.687 18.3904C100.715 18.5843 100.854 18.6674 101.02 18.6397L102.654 18.3627C102.82 18.335 102.931 18.1688 102.903 18.0026C102.294 15.4265 100.383 13.6814 98.4991 13.6814C94.9534 13.6814 94.2332 18.6674 94.1501 21.6867L93.8731 14.2908C93.8731 14.1246 93.7069 13.9861 93.5407 14.0138L92.1003 14.2077C91.9618 14.2354 91.8787 14.3462 91.8787 14.4847Z" fill="#F1F0EF"/>
<path d="M104.904 9.277V27.8085H107.314V23.8751L109.392 21.4928L113.879 27.8085H116.594L110.832 19.9139L115.929 13.9861H113.325L107.342 21.105L107.037 9.3601C107.037 9.1939 106.926 9.0831 106.788 9.0831L105.209 9C105.043 9 104.904 9.1108 104.904 9.277Z" fill="#F1F0EF"/>
<path d="M121.5 28.0855C125.987 28.0855 127.455 23.238 127.455 21.7144L127.677 27.8085H129.976L129.81 17.4763C129.782 15.6481 127.982 13.6814 123.965 13.6814C120.364 13.6814 118.508 15.3988 117.677 16.8946C117.594 17.0331 117.677 17.227 117.843 17.2824L119.45 17.8641C119.588 17.9195 119.755 17.8641 119.81 17.7256C120.336 16.396 121.444 15.2326 124.02 15.2326C125.904 15.2326 127.095 15.7866 127.4 17.0885C127.538 17.6979 127.067 17.9472 126.735 18.0303C123.549 18.9167 116.929 20.4679 116.929 24.4845C116.929 26.6451 119.034 28.0855 121.5 28.0855ZM121.666 26.4235C120.558 26.4235 119.339 25.8418 119.339 24.4291C119.339 20.7449 126.624 19.6923 127.455 19.1383C127.455 23.5704 123.937 26.4235 121.666 26.4235Z" fill="#F1F0EF"/>
<path d="M134.741 23.9582L134.768 23.0164C135.544 25.9526 137.898 28.0855 140.724 28.0855C144.186 28.0855 146.956 24.8723 146.956 20.8834C146.956 16.9223 144.186 13.7091 140.724 13.7091C138.037 13.7091 135.766 15.6481 134.879 18.3627L134.907 17.4486L134.658 9.3601C134.658 9.1939 134.547 9.0831 134.408 9.0831L132.829 9C132.663 9 132.525 9.1108 132.525 9.277V27.8085H134.297L134.741 23.9582ZM135.184 20.8834C135.184 17.8641 137.234 15.3988 139.893 15.3988C142.441 15.3988 144.547 17.8641 144.547 20.8834C144.547 23.9305 142.441 26.3958 139.893 26.3958C137.289 26.3958 135.184 23.9305 135.184 20.8834Z" fill="#F1F0EF"/>
<path d="M149.666 27.8085H152.104C151.91 26.8944 151.771 26.008 151.771 25.0939V9.277C151.771 9.1108 151.633 9 151.466 9L149.583 9.0831C149.444 9.0831 149.333 9.2216 149.333 9.3601V25.0939C149.333 26.008 149.472 26.8944 149.666 27.8085Z" fill="#F1F0EF"/>
<path d="M161.61 28.0855C165.654 28.0855 167.593 25.9249 168.369 23.9582C168.424 23.8474 168.203 23.7366 167.981 23.7366H166.07C165.959 23.7366 165.848 23.792 165.821 23.9028C165.377 25.0662 164.269 26.4235 161.61 26.4235C158.868 26.4235 156.956 24.1798 156.818 21.2158H168.674C168.895 17.5317 166.43 13.6814 161.61 13.6814C157.15 13.6814 154.491 16.8946 154.491 20.8003C154.491 24.7892 157.289 28.0855 161.61 28.0855ZM166.208 19.5261H156.956C156.984 17.5317 158.812 15.3711 161.61 15.3711C163.909 15.3711 166.291 17.504 166.208 19.5261Z" fill="#F1F0EF"/>
</svg>
