 <svg  version="1.0" xmlns="http://www.w3.org/2000/svg"  width="500.000000pt" height="500.000000pt" viewBox="0 0 500.000000 500.000000"  preserveAspectRatio="xMidYMid meet">  <g transform="translate(0.000000,500.000000) scale(0.100000,-0.100000)" fill="#ffffff" stroke="none"> <path d="M2280 4841 c0 -6 4 -11 9 -11 5 0 28 -36 51 -80 l42 -81 -58 -70 c-31 -38 -61 -72 -65 -75 -17 -10 -9 -19 17 -20 19 -2 24 2 20 13 -4 9 13 39 40 74 26 32 48 59 50 59 10 0 72 -134 67 -146 -4 -10 4 -14 29 -14 l35 0 -49 96 c-43 83 -48 98 -36 113 7 10 28 39 47 64 19 26 41 47 48 47 7 0 13 5 13 10 0 6 -13 10 -30 10 -21 0 -28 -4 -24 -14 5 -13 -63 -116 -76 -116 -10 0 -60 122 -54 131 3 5 -6 9 -20 9 -13 0 -31 3 -40 6 -9 3 -16 1 -16 -5z"/> <path d="M2154 4818 c16 -25 26 -283 12 -306 -5 -8 3 -12 28 -12 35 0 47 12 26 25 -16 10 -13 302 3 308 6 3 -9 6 -36 6 -47 1 -47 1 -33 -21z"/> <path d="M1882 4807 c-40 -9 -50 -15 -41 -24 15 -15 52 -238 46 -284 -4 -34 -3 -36 22 -32 49 8 57 13 41 23 -21 13 -41 150 -24 157 37 14 69 -3 101 -52 57 -89 62 -95 93 -95 17 0 30 5 30 10 0 5 -5 9 -12 7 -6 -1 -30 25 -52 57 -34 49 -56 70 -84 82 -2 1 11 15 28 32 55 56 30 119 -50 126 -25 3 -69 -1 -98 -7z m118 -27 c44 -44 6 -120 -60 -120 -26 0 -29 4 -39 63 -6 35 -11 67 -11 70 0 4 20 7 45 7 32 0 51 -6 65 -20z"/> <path d="M2692 4766 c-13 -28 -2 -35 18 -11 9 11 23 14 49 9 20 -4 37 -8 39 -9 8 -7 -81 -290 -94 -300 -12 -8 -8 -13 23 -21 l38 -10 1 41 c2 38 64 258 77 271 13 13 67 -19 73 -42 8 -33 24 -30 24 4 0 27 -5 30 -87 55 -137 42 -147 43 -161 13z"/> <path d="M1705 4769 c-144 -48 -175 -62 -162 -73 18 -14 100 -273 93 -293 -4 -10 -1 -13 14 -9 11 3 30 8 43 12 12 3 54 16 93 30 68 24 70 26 66 54 -5 33 -22 41 -22 12 0 -11 -8 -26 -17 -34 -16 -13 -105 -48 -124 -48 -3 0 -28 66 -54 146 -52 163 -53 155 28 175 45 10 51 10 78 -10 16 -12 29 -19 29 -16 0 7 -30 65 -33 64 -1 0 -15 -5 -32 -10z"/> <path d="M3006 4683 c6 -22 -111 -272 -131 -279 -16 -6 81 -60 160 -89 28 -10 57 -24 66 -32 20 -17 30 -17 23 1 -3 9 12 26 40 45 l45 32 56 -37 c30 -20 55 -41 55 -46 0 -21 -24 -103 -32 -109 -4 -3 13 -21 40 -40 59 -42 64 -45 56 -25 -4 12 22 45 87 111 51 52 94 94 95 92 1 -1 -8 -40 -20 -87 -42 -157 -42 -142 1 -134 21 4 73 17 116 29 42 13 77 20 77 16 0 -15 -178 -181 -194 -181 -22 0 -20 -13 7 -38 26 -25 39 -28 31 -9 -2 7 42 58 100 116 90 88 108 102 128 96 l23 -7 -23 24 c-26 29 -31 28 -164 -8 -48 -13 -89 -24 -92 -24 -2 0 9 52 26 115 30 111 30 116 13 135 -22 24 -37 26 -28 4 4 -11 -25 -47 -98 -120 -57 -57 -109 -104 -116 -104 -19 0 -16 27 17 200 16 85 30 158 30 163 0 13 -40 8 -40 -5 -1 -13 -230 -170 -256 -176 -16 -4 -19 14 -4 23 6 3 10 11 10 16 0 6 -10 3 -22 -5 -29 -20 -36 -20 -103 5 -32 12 -55 27 -55 35 0 8 13 44 30 80 l29 65 51 -26 c28 -14 54 -35 58 -46 7 -18 10 -16 25 16 17 36 17 36 -3 30 -16 -5 -100 17 -119 32 -2 1 8 32 24 68 l27 65 59 -31 c57 -31 78 -57 63 -80 -4 -7 -1 -10 7 -7 7 2 16 16 20 30 6 25 2 28 -91 72 -54 25 -100 46 -103 46 -3 0 -3 -8 -1 -17z m336 -303 c-8 -41 -17 -77 -19 -79 -2 -3 -13 5 -26 16 -12 11 -35 27 -51 35 l-28 15 68 46 c38 25 70 45 70 44 1 -1 -5 -36 -14 -77z"/> <path d="M1405 4659 c-16 -10 -24 -19 -18 -19 7 0 26 -24 43 -52 30 -53 37 -78 22 -78 -14 0 -143 -72 -138 -77 2 -3 39 13 81 35 l76 40 34 -69 c19 -37 32 -75 29 -84 -5 -13 1 -11 30 6 35 20 35 21 17 37 -24 21 -135 241 -133 265 1 21 -5 21 -43 -4z"/> <path d="M1747 4637 c-3 -8 -30 -23 -59 -33 -62 -20 -47 -32 18 -14 36 10 47 10 60 -1 15 -12 16 -11 9 11 -13 44 -21 54 -28 37z"/> <path d="M1213 4561 c-37 -18 -41 -27 -15 -33 23 -7 145 -249 136 -272 -8 -21 -2 -20 42 6 33 19 35 22 17 29 -21 8 -131 210 -142 260 -6 26 -6 26 -38 10z"/> <path d="M2553 4523 c-18 -6 -16 -40 1 -46 8 -3 20 1 27 9 10 12 9 18 -2 28 -8 8 -20 12 -26 9z"/> <path d="M1019 4428 l-97 -72 17 -25 16 -25 3 32 c2 21 12 38 30 51 l27 19 88 -116 c52 -69 87 -125 87 -139 l0 -24 35 28 c31 25 33 28 15 35 -10 4 -58 59 -106 123 l-88 117 25 19 c18 14 33 18 59 13 35 -6 35 -6 16 15 -11 12 -22 21 -25 21 -3 0 -49 -33 -102 -72z"/> <path d="M786 4220 c-42 -45 -76 -83 -76 -85 0 -2 7 -2 15 1 17 7 225 -190 225 -213 0 -8 -12 -13 -30 -13 -24 0 -266 49 -321 66 -11 3 -18 -3 -22 -16 -3 -11 -1 -20 4 -20 16 0 181 -260 175 -276 -9 -23 15 -12 33 16 15 22 15 24 -1 17 -13 -5 -25 5 -49 39 l-31 45 38 55 c20 29 41 54 45 54 26 0 109 -23 109 -30 0 -9 106 94 180 174 l38 41 -24 28 -25 29 6 -39 c5 -35 2 -42 -41 -86 l-46 -48 -57 53 c-31 28 -58 53 -60 54 -2 2 16 21 40 44 27 24 51 39 62 36 23 -6 21 5 -7 32 -29 27 -36 28 -29 4 3 -11 -10 -34 -36 -62 l-39 -45 -52 50 -51 50 46 44 c41 38 50 43 81 38 19 -3 34 -3 34 0 0 6 -43 42 -51 43 -3 0 -41 -36 -83 -80z m-88 -306 c37 -10 68 -18 70 -19 5 -4 -61 -95 -67 -94 -11 1 -89 129 -80 129 6 0 40 -7 77 -16z"/> <path d="M3725 3899 c-214 -160 -224 -169 -209 -169 7 0 380 274 408 301 5 5 8 11 5 13 -2 3 -94 -63 -204 -145z"/> <path d="M3750 3636 c0 -2 6 -16 14 -30 12 -23 15 -24 26 -11 8 9 30 15 59 15 l47 0 29 -60 29 -60 -39 -40 c-22 -22 -45 -40 -52 -40 -11 0 -11 -5 1 -28 8 -15 21 -61 30 -102 8 -41 23 -97 32 -123 14 -42 20 -48 38 -43 11 3 28 6 36 6 8 0 -1 8 -20 18 -29 14 -38 27 -53 72 -9 30 -15 60 -13 66 2 6 32 19 67 28 35 10 68 20 74 22 17 7 37 -116 22 -135 -10 -12 -9 -14 6 -8 10 4 27 7 38 7 10 0 19 5 19 10 0 6 -7 10 -15 10 -14 0 -53 106 -42 116 10 10 118 35 127 29 10 -6 26 -91 21 -115 -2 -8 -9 -22 -17 -31 -22 -24 -17 -28 17 -16 28 11 30 15 24 47 -7 42 -45 173 -52 180 -2 2 -8 -2 -12 -9 -9 -14 -239 -81 -278 -81 -50 0 -28 31 157 223 52 55 62 69 50 77 -8 5 -24 7 -35 5 -53 -11 -297 -15 -315 -5 -11 6 -20 9 -20 6z m320 -24 c0 -4 -24 -32 -54 -61 l-55 -54 -14 35 c-34 80 -36 77 40 81 37 2 71 4 76 5 4 1 7 -2 7 -6z"/> <path d="M320 3582 c0 -5 8 -12 18 -15 9 -3 96 -38 192 -77 262 -107 270 -110 270 -101 0 5 -46 28 -102 50 -81 31 -271 109 -365 148 -7 3 -13 1 -13 -5z"/> <path d="M300 3423 c0 -21 19 -47 81 -109 l82 -82 -117 -38 c-68 -21 -116 -42 -116 -50 0 -7 -3 -20 -6 -29 -6 -15 -4 -15 14 -4 19 12 40 9 154 -20 168 -43 180 -52 107 -84 -30 -14 -101 -41 -159 -61 -58 -20 -111 -40 -118 -45 -16 -9 -5 -42 12 -35 6 2 73 -25 149 -61 135 -65 177 -93 123 -83 -30 6 -35 -8 -6 -17 11 -3 24 -14 29 -23 13 -25 24 -129 14 -135 -4 -3 -41 -9 -80 -12 l-71 -7 -7 57 c-7 50 -5 60 11 72 16 12 13 13 -24 13 -23 0 -42 -4 -42 -10 0 -5 7 -10 15 -10 9 0 16 -14 20 -37 4 -21 9 -50 11 -64 5 -26 4 -27 -63 -31 -37 -3 -69 -4 -70 -4 -1 1 -5 29 -8 62 -7 55 -5 64 15 84 26 26 24 30 -12 23 -33 -6 -35 -22 -17 -149 l12 -81 26 12 c31 15 260 40 291 32 19 -5 21 -2 16 36 -24 194 -31 235 -39 230 -5 -3 -31 5 -57 17 l-48 23 1 67 2 68 51 17 c29 10 56 15 62 11 6 -4 13 15 17 46 3 29 9 62 12 73 5 19 5 19 -13 3 -18 -16 -26 -15 -144 13 -68 16 -125 31 -127 32 -2 2 41 16 95 31 54 15 104 31 112 36 12 7 -3 27 -69 94 l-84 84 124 -30 c68 -17 130 -38 136 -46 16 -20 20 -16 29 33 6 34 5 38 -8 28 -11 -10 -41 -5 -149 22 -74 20 -139 42 -145 50 -17 22 -24 18 -24 -12z m110 -553 c0 -33 -2 -60 -4 -60 -2 0 -36 15 -76 33 l-72 34 69 25 c37 14 71 26 76 27 4 0 7 -26 7 -59z"/> <path d="M4235 3118 c11 -6 22 -12 23 -14 2 -1 7 -18 12 -38 9 -41 17 -39 -167 -57 -104 -11 -124 -10 -139 2 -16 13 -17 11 -11 -20 4 -18 7 -41 7 -49 0 -14 1 -14 13 0 9 12 43 19 127 27 63 7 130 14 148 17 32 5 32 4 32 -34 0 -23 -6 -45 -15 -52 -23 -19 -18 -28 11 -22 l26 5 -6 91 c-11 150 -13 156 -50 156 -28 -1 -29 -2 -11 -12z"/> <path d="M3970 2801 c0 -36 2 -41 18 -33 9 5 48 7 85 4 l68 -4 -7 -92 c-3 -50 -7 -91 -8 -92 0 0 -34 2 -74 5 -48 4 -76 11 -82 21 -8 13 -10 13 -10 -1 0 -9 -3 -32 -7 -50 -6 -31 -5 -33 10 -20 23 18 284 6 308 -16 15 -13 17 -10 21 27 2 23 0 44 -4 46 -4 3 -8 0 -8 -5 0 -7 -28 -11 -71 -11 l-72 0 7 53 c3 28 6 71 6 94 l0 41 63 -5 c34 -3 68 -10 75 -16 9 -7 12 -4 12 9 0 11 3 30 7 44 6 22 5 24 -10 11 -24 -20 -284 -6 -309 17 -17 14 -18 12 -18 -27z"/> <path d="M3937 2488 c-2 -13 -12 -50 -20 -83 -30 -117 -30 -124 0 -136 33 -12 40 -5 18 17 -30 31 -3 173 30 160 8 -3 41 -11 75 -18 44 -9 59 -16 55 -26 -3 -8 -8 -32 -11 -53 -4 -22 -15 -46 -26 -53 -18 -13 -17 -14 13 -25 36 -13 47 -8 30 12 -8 11 -9 28 0 68 6 30 13 55 14 57 3 3 127 -27 132 -32 5 -5 -27 -109 -37 -122 -7 -8 -21 -14 -31 -14 -30 0 -22 -17 11 -22 28 -4 30 -2 45 49 9 29 19 72 24 96 5 23 12 50 16 61 7 16 6 17 -14 7 -17 -10 -46 -6 -154 20 -72 17 -139 38 -148 46 -15 12 -17 11 -22 -9z"/> <path d="M261 2391 c-12 -8 -11 -22 8 -93 39 -145 40 -148 67 -148 29 0 32 16 4 23 -19 5 -44 51 -37 70 1 5 66 27 142 48 109 29 143 35 154 26 12 -10 13 -6 7 28 -9 48 -15 55 -27 33 -5 -9 -33 -21 -61 -28 -29 -7 -91 -23 -138 -36 -46 -13 -87 -24 -91 -24 -16 0 -19 64 -4 87 17 25 4 32 -24 14z"/> <path d="M3867 2219 c-15 -37 -15 -40 0 -35 9 4 47 -5 84 -20 l68 -27 -15 -28 c-20 -40 -43 -49 -122 -49 -54 0 -72 -4 -85 -18 -10 -10 -17 -23 -17 -29 0 -6 -3 -13 -7 -15 -5 -1 -16 -18 -26 -35 l-18 -33 23 0 c28 0 236 -113 260 -140 16 -19 17 -19 37 16 18 30 19 35 5 30 -10 -4 -59 17 -128 55 -148 81 -153 85 -140 107 8 13 31 19 88 23 43 4 83 12 89 18 17 17 27 13 27 -13 0 -38 36 -76 74 -76 42 0 66 26 105 113 27 61 29 68 12 62 -24 -7 -260 88 -282 114 -16 19 -17 19 -32 -20z m231 -115 c34 -15 62 -30 62 -34 0 -4 -10 -22 -23 -41 -17 -25 -31 -35 -56 -37 -39 -4 -71 20 -71 53 0 33 12 85 19 85 3 0 34 -12 69 -26z"/> <path d="M613 2184 c-6 -17 14 -36 32 -31 6 2 11 13 13 25 3 17 -2 22 -18 22 -11 0 -23 -7 -27 -16z"/> <path d="M657 2129 c-3 -11 -27 -55 -52 -98 l-47 -77 -77 11 c-42 5 -82 14 -89 19 -20 12 -25 1 -10 -23 13 -22 28 -28 28 -11 0 8 128 3 138 -5 4 -4 -70 -118 -81 -126 -9 -7 12 -59 25 -59 4 0 8 7 8 16 0 13 64 126 85 152 6 6 181 -22 193 -31 17 -13 16 14 -1 37 -11 16 -15 16 -19 4 -5 -11 -18 -13 -64 -7 -33 4 -69 8 -81 8 -22 1 -21 4 18 64 22 34 46 67 53 72 10 8 10 16 -1 43 -15 38 -19 39 -26 11z"/> <path d="M3712 1900 c-15 -24 -15 -31 -1 -27 6 1 26 -32 44 -74 l33 -76 -77 5 c-42 2 -81 9 -88 14 -7 6 -18 -1 -32 -21 l-22 -30 33 5 c18 3 68 1 112 -3 l78 -8 25 -65 c14 -36 26 -75 27 -87 1 -28 5 -28 22 -5 16 21 18 33 4 29 -8 -2 -60 104 -60 123 0 9 125 -2 137 -11 7 -7 18 0 32 20 26 36 27 45 2 31 -13 -6 -50 -7 -102 -3 l-82 8 -28 75 c-15 41 -28 85 -28 98 -1 27 -12 28 -29 2z"/> <path d="M789 1871 c-23 -32 -231 -163 -251 -158 -23 6 -23 6 3 -38 21 -35 22 -36 33 -14 10 20 228 169 247 169 5 0 13 -9 19 -20 8 -16 4 -33 -24 -88 -23 -46 -33 -77 -29 -92 5 -20 4 -21 -15 -11 -37 20 -79 13 -102 -16 -29 -37 -21 -73 33 -142 41 -53 71 -76 65 -50 -4 17 212 199 236 199 17 0 16 3 -9 30 -28 29 -28 29 -39 8 -6 -11 -33 -39 -59 -62 l-48 -41 -20 25 c-25 33 -24 51 6 111 47 92 47 90 6 153 -36 54 -39 56 -52 37z m25 -302 c17 -15 28 -30 25 -32 -2 -1 -28 -22 -56 -46 -29 -23 -57 -40 -62 -37 -18 12 -43 78 -37 102 7 28 53 55 81 47 11 -3 33 -18 49 -34z"/> <path d="M3543 1669 c-16 -16 -5 -39 19 -39 14 0 19 6 16 22 -4 25 -19 33 -35 17z"/> <path d="M1010 1565 l-23 -24 34 5 c28 5 42 0 82 -31 26 -20 47 -42 47 -50 0 -12 -107 -141 -185 -223 -10 -11 -21 -6 -59 30 -43 38 -47 46 -43 75 7 39 -1 41 -25 8 l-18 -24 81 -73 c83 -76 103 -90 94 -65 -3 8 9 32 28 55 93 111 161 182 175 182 20 0 -33 57 -109 116 l-56 43 -23 -24z"/> <path d="M3418 1545 c-31 -27 -34 -35 -14 -35 13 0 116 -101 187 -184 l33 -38 -24 -20 c-15 -12 -34 -18 -52 -16 -32 5 -34 1 -12 -23 16 -18 18 -17 48 7 17 15 59 53 94 87 l63 60 -20 21 -21 20 0 -30 c0 -19 -9 -39 -24 -53 l-23 -22 -99 106 c-55 59 -101 115 -104 125 -5 17 -7 17 -32 -5z"/> <path d="M941 1430 c-21 -29 -21 -31 -4 -26 13 4 32 -5 62 -30 23 -20 44 -34 47 -31 3 2 -11 18 -31 34 -20 17 -39 42 -43 57 l-7 27 -24 -31z"/> <path d="M3215 1380 c-55 -39 -108 -73 -117 -76 -19 -7 -25 -24 -9 -24 5 0 11 -25 13 -56 l3 -56 -59 -30 -58 -30 -37 34 c-44 41 -51 50 -45 60 3 4 1 8 -5 8 -5 0 -12 -4 -15 -9 -4 -5 -29 -15 -57 -22 -48 -12 -49 -14 -30 -29 13 -10 30 -54 50 -132 17 -64 31 -119 31 -121 0 -3 -35 31 -77 74 -42 44 -81 78 -87 76 -12 -4 -66 -163 -66 -196 0 -47 -17 -6 -45 107 -15 61 -25 122 -22 133 5 19 3 20 -31 14 -45 -8 -52 -14 -31 -26 11 -5 28 -55 49 -140 28 -110 31 -135 21 -152 -12 -18 -11 -19 16 -12 15 3 29 7 30 8 4 5 42 128 54 175 l13 53 86 -86 c86 -85 87 -86 121 -77 19 6 30 11 24 11 -27 3 -39 28 -70 156 -32 133 -35 155 -15 155 9 0 69 -51 194 -164 44 -39 80 -65 85 -60 4 5 3 83 -4 174 -11 160 -7 212 14 157 12 -32 26 -36 18 -6 -3 12 -1 31 4 43 10 21 90 86 107 86 9 0 92 -117 92 -128 -1 -15 -92 -64 -110 -59 -26 7 -25 -1 5 -38 l25 -30 0 27 c0 21 11 34 47 59 26 18 48 28 50 23 2 -5 19 -31 38 -59 l36 -49 -23 -18 c-48 -36 -96 -52 -123 -40 -30 14 -33 2 -5 -23 20 -18 22 -18 53 0 50 29 146 99 147 108 0 4 -6 7 -14 7 -20 0 -177 235 -170 254 3 9 5 16 3 16 -2 0 -49 -32 -104 -70z m-105 -294 c0 -35 3 -73 7 -83 4 -10 -20 6 -53 36 -32 29 -60 56 -61 60 -2 5 82 48 100 50 4 1 7 -28 7 -63z"/> <path d="M1230 1392 c0 -22 -123 -230 -150 -253 -17 -15 -17 -16 10 -32 34 -21 41 -21 34 -3 -6 15 52 116 67 116 4 0 36 -18 69 -39 34 -22 66 -41 72 -43 15 -5 -52 -118 -69 -118 -32 0 -10 -20 51 -49 5 -2 6 4 2 14 -8 22 137 262 162 267 12 2 6 10 -21 25 l-37 22 0 -21 c0 -11 -16 -46 -35 -78 l-35 -58 -75 45 c-41 26 -75 50 -75 55 0 17 70 119 86 125 12 4 8 10 -16 24 -38 23 -40 23 -40 1z"/> <path d="M2411 1230 c-2 -18 39 -456 45 -487 2 -13 8 -23 12 -23 4 0 -5 113 -20 251 -25 233 -35 298 -37 259z"/> <path d="M1577 1209 c8 -8 7 -22 -3 -53 -24 -68 -87 -220 -95 -230 -5 -5 -20 -4 -38 3 -30 13 -46 35 -35 52 3 5 1 9 -5 9 -14 0 -25 -40 -14 -51 5 -5 55 -27 112 -49 97 -38 104 -39 117 -23 7 10 14 24 14 32 0 11 -5 10 -20 -4 -14 -13 -28 -16 -55 -11 -19 4 -35 12 -35 17 0 25 104 271 116 276 22 8 16 18 -19 31 -42 15 -54 15 -40 1z"/> <path d="M1740 1148 c0 -7 -3 -24 -6 -38 l-6 -25 17 24 c16 21 23 23 75 18 32 -3 66 -10 78 -16 20 -11 20 -11 2 -82 -10 -39 -21 -73 -23 -76 -11 -10 -117 28 -117 42 0 29 -18 15 -23 -17 -6 -39 -2 -45 17 -29 12 10 27 10 69 1 l54 -12 -16 -67 c-8 -36 -15 -67 -16 -68 0 -1 -25 4 -54 12 -57 15 -91 38 -92 64 0 12 -3 11 -9 -4 -19 -44 -13 -50 68 -68 138 -30 141 -31 136 -10 -6 23 51 269 67 289 6 8 10 16 8 18 -4 4 -212 56 -223 56 -3 0 -6 -6 -6 -12z"/> <path d="M1993 1078 c8 -13 36 -90 63 -173 27 -82 49 -151 50 -153 4 -8 34 12 34 24 0 22 129 276 147 289 14 11 12 13 -15 17 -28 4 -31 2 -26 -18 3 -12 -3 -39 -16 -64 l-22 -42 -66 7 c-37 4 -67 8 -68 8 -17 36 -33 98 -28 111 5 13 -1 16 -30 16 -35 0 -36 -1 -23 -22z m205 -133 c4 -4 -61 -135 -68 -135 -3 0 -13 26 -22 58 -9 32 -20 65 -23 73 -5 13 3 15 52 11 32 -2 59 -6 61 -7z"/> </g> </svg> 