<svg width="113" height="111" viewBox="0 0 113 111" fill="none" xmlns="http://www.w3.org/2000/svg">
<path d="M102.067 64.7703C97.0633 89.1076 72.5822 104.717 47.3105 99.5217C22.0388 94.3263 5.70098 70.3251 10.7043 45.9878C15.7076 21.6505 40.1887 6.04091 65.4604 11.2363C90.7321 16.4317 107.07 40.4329 102.067 64.7703Z" fill="#DAFC47" stroke="#D4FD25" stroke-width="2.75961"/>
<path d="M26.2764 65.6087C27.6064 66.4253 31.0004 66.4762 33.9359 60.1468M30.7621 64.7155C35.9693 75.7837 54.2813 90.6404 77.2758 73.2573" stroke="#0A0B1A" stroke-width="3.05412" stroke-linecap="round"/>
<path d="M81.9163 73.5257C80.3807 73.6244 77.1923 72.6582 76.7243 68.0045" stroke="#0A0B1A" stroke-width="3.05412" stroke-linecap="round"/>
<line x1="53.8577" y1="31.0452" x2="50.0621" y2="49.5081" stroke="#0A0B1A" stroke-width="3.05412" stroke-linecap="round"/>
<line x1="67.8182" y1="33.9153" x2="64.0225" y2="52.3783" stroke="#0A0B1A" stroke-width="3.05412" stroke-linecap="round"/>
</svg>
