<svg xmlns:xlink="http://www.w3.org/1999/xlink" xmlns="http://www.w3.org/2000/svg" viewBox="0 0 256 256" focusable="false" color="var(--token-3ea41072-e4a3-4fbd-afee-986fdaa2559f, rgb(0, 0, 0)) /* {&quot;name&quot;:&quot;Black&quot;} */" style="user-select: none; width: 100%; height: 100%; display: inline-block; fill: var(--token-3ea41072-e4a3-4fbd-afee-986fdaa2559f, rgb(0, 0, 0)); color: var(--token-3ea41072-e4a3-4fbd-afee-986fdaa2559f, rgb(0, 0, 0)); flex-shrink: 0;" width="256"  height="256" ><g color="var(--token-3ea41072-e4a3-4fbd-afee-986fdaa2559f, rgb(0, 0, 0)) /* {&quot;name&quot;:&quot;Black&quot;} */" weight="light"><path d="M214,96A86,86,0,1,0,74,162.87V240a6,6,0,0,0,2.85,5.1A5.93,5.93,0,0,0,80,246a6,6,0,0,0,2.68-.63L128,222.71l45.33,22.66A6,6,0,0,0,182,240V162.87A85.87,85.87,0,0,0,214,96ZM54,96a74,74,0,1,1,74,74A74.09,74.09,0,0,1,54,96ZM170,230.29l-39.33-19.66a6,6,0,0,0-5.36,0L86,230.29V171a85.75,85.75,0,0,0,84,0ZM128,150A54,54,0,1,0,74,96,54.06,54.06,0,0,0,128,150Zm0-96A42,42,0,1,1,86,96,42,42,0,0,1,128,54Z"></path></g></svg>