<svg width="160" height="65" viewBox="0 0 160 65" fill="none" xmlns="http://www.w3.org/2000/svg">
<rect y="29.0432" width="155.739" height="36.1055" rx="4.84999" transform="rotate(-10.7478 0 29.0432)" fill="#E24012"/>
<path d="M32.8609 50.5704C38.4001 49.519 41.5407 44.7672 40.5669 39.6373C39.5777 34.4256 34.9298 31.2369 29.3907 32.2884C23.8515 33.3398 20.7005 38.037 21.6846 43.2215C22.6687 48.4059 27.3217 51.6218 32.8609 50.5704ZM32.519 48.7695C28.6171 49.5102 25.0368 46.8822 24.2495 42.7346C23.4571 38.5598 25.8084 34.8624 29.7377 34.1166C33.667 33.3707 37.2095 35.9493 38.002 40.1242C38.7893 44.2717 36.421 48.0288 32.519 48.7695Z" fill="#FEF0E5"/>
<path d="M50.4802 47.226C55.5555 46.2626 53.6704 37.9699 54.0122 39.7708L54.8669 44.2731L55.2557 45.7258C55.2868 45.8896 55.4764 45.9949 55.6349 45.9366L57.3944 45.3764C57.5257 45.3232 57.6089 45.1661 57.583 45.0297L57.246 43.8498L54.9877 31.9528L52.6138 32.4034C54.0278 39.8527 53.9298 44.8467 50.2734 45.5408C47.763 46.0173 46.5259 44.4146 46.0649 41.9861L44.537 33.9365L42.163 34.3871L43.7117 42.5458C44.3384 45.8475 46.3599 48.0081 50.4802 47.226Z" fill="#FEF0E5"/>
<path d="M57.704 31.9743L60.1953 45.0992L62.5692 44.6486C61.198 37.276 61.1493 32.2533 63.8506 31.7405C64.9694 31.5281 66.3838 32.2774 67.1114 34.1747C67.1749 34.3605 67.3269 34.4165 67.4855 34.3581L69.0436 33.7797C69.2021 33.7213 69.2802 33.5369 69.2218 33.3783C68.1398 30.9546 65.9307 29.5929 64.0753 29.9451C60.5826 30.6081 60.8054 35.6544 61.2881 38.6441L59.6323 31.4104C59.6013 31.2467 59.4116 31.1413 59.2531 31.1997L57.8705 31.66C57.7392 31.7132 57.6781 31.8379 57.704 31.9743Z" fill="#FEF0E5"/>
<path d="M78.8079 41.5662L83.2557 40.722L83.4204 22.8242L90.1046 39.4219L94.5523 38.5777L94.3509 20.2406L91.9497 20.6963L92.1891 38.4891L85.6465 21.8928L80.9805 22.7785L80.9743 40.6179L74.6773 23.9749L72.2761 24.4307L78.8079 41.5662Z" fill="#FEF0E5"/>
<path d="M105.71 36.7425C109.721 35.9811 112.61 32.4361 111.813 28.234C111.02 24.0591 107.033 21.8193 103.022 22.5807C99.0107 23.3421 96.1216 26.8871 96.9141 31.0619C97.7117 35.2641 101.699 37.5039 105.71 36.7425ZM105.415 35.1871C102.632 35.7154 99.9199 33.9403 99.288 30.6113C98.6561 27.2824 100.529 24.6371 103.312 24.1088C106.095 23.5805 108.807 25.3556 109.439 28.6846C110.071 32.0135 108.198 34.6588 105.415 35.1871Z" fill="#FEF0E5"/>
<path d="M112.866 21.5038L115.357 34.6286L117.731 34.178C116.36 26.8055 116.311 21.7827 119.012 21.2699C120.131 21.0576 121.545 21.8068 122.273 23.7041C122.337 23.89 122.489 23.9459 122.647 23.8875L124.205 23.3091C124.364 23.2507 124.442 23.0663 124.383 22.9078C123.301 20.484 121.092 19.1224 119.237 19.4746C115.744 20.1375 115.967 25.1838 116.45 28.1736L114.794 20.9398C114.763 20.7761 114.573 20.6708 114.415 20.7291L113.032 21.1895C112.901 21.2427 112.84 21.3673 112.866 21.5038Z" fill="#FEF0E5"/>
<path d="M124.723 13.9383L128.188 32.1931L130.562 31.7425L129.826 27.8678L131.428 25.1327L137.029 30.5149L139.703 30.0074L132.551 23.308L136.464 16.5156L133.899 17.0025L129.336 25.1339L126.84 13.6214C126.808 13.4577 126.679 13.3692 126.542 13.3951L124.971 13.6085C124.808 13.6396 124.692 13.7746 124.723 13.9383Z" fill="#FEF0E5"/>
</svg>
